<svg xmlns="http://www.w3.org/2000/svg" xmlns:xlink="http://www.w3.org/1999/xlink" width="500" zoomAndPan="magnify" viewBox="0 0 375 374.999991" height="500" preserveAspectRatio="xMidYMid meet" version="1.0"><defs><g/><clipPath id="87f08a5f85"><path d="M 109 170 L 282.929688 170 L 282.929688 282.640625 L 109 282.640625 Z M 109 170 " clip-rule="nonzero"/></clipPath><clipPath id="868bdb4da4"><path d="M 92.429688 66.640625 L 269 66.640625 L 269 173 L 92.429688 173 Z M 92.429688 66.640625 " clip-rule="nonzero"/></clipPath></defs><g fill="#fbf9f6" fill-opacity="1"><g transform="translate(145.920113, 188.695183)"><g><path d="M 1.390625 0.46875 L 4.921875 0.46875 C 5.203125 0.46875 5.390625 0.28125 5.390625 0.09375 C 5.390625 -0.1875 5.203125 -0.375 4.921875 -0.375 C 4.65625 -0.375 4.375 -0.5625 4.28125 -0.75 C 4.09375 -0.9375 4.09375 -1.203125 4.1875 -1.578125 L 15.625 -39.53125 C 27.71875 -35.8125 37.390625 -26.5 41.578125 -14.515625 C 41.578125 -14.421875 41.578125 -14.421875 41.578125 -14.421875 L 45.484375 -1.578125 C 45.5625 -1.203125 45.5625 -0.9375 45.390625 -0.75 C 45.203125 -0.5625 45.015625 -0.375 44.640625 -0.375 C 44.453125 -0.375 44.171875 -0.1875 44.171875 0.09375 C 44.171875 0.28125 44.453125 0.46875 44.640625 0.46875 L 50.40625 0.46875 C 50.6875 0.46875 50.875 0.28125 50.875 0.09375 C 50.875 -0.1875 50.6875 -0.375 50.40625 -0.375 C 49.65625 -0.375 48.734375 -1.109375 48.546875 -1.859375 L 26.3125 -75.328125 C 26.3125 -75.328125 26.3125 -75.421875 26.3125 -75.421875 C 26.3125 -75.421875 26.21875 -75.515625 26.21875 -75.515625 C 26.21875 -75.515625 26.21875 -75.515625 26.140625 -75.515625 C 26.140625 -75.609375 26.140625 -75.609375 26.140625 -75.609375 C 26.046875 -75.609375 26.046875 -75.609375 26.046875 -75.609375 C 25.953125 -75.609375 25.953125 -75.609375 25.953125 -75.609375 C 25.859375 -75.609375 25.859375 -75.609375 25.859375 -75.609375 C 25.859375 -75.609375 25.765625 -75.609375 25.765625 -75.609375 C 25.765625 -75.609375 25.671875 -75.609375 25.671875 -75.515625 C 25.671875 -75.515625 25.578125 -75.515625 25.578125 -75.515625 C 25.578125 -75.515625 25.578125 -75.421875 25.578125 -75.421875 C 25.578125 -75.421875 25.484375 -75.328125 25.484375 -75.328125 L 25.484375 -75.234375 L 24.359375 -71.703125 C 24.359375 -71.703125 24.359375 -71.609375 24.359375 -71.609375 L 14.875 -40.265625 L 3.25 -1.859375 C 3.0625 -1.109375 2.234375 -0.375 1.390625 -0.375 C 1.203125 -0.375 1.015625 -0.1875 1.015625 0.09375 C 1.015625 0.28125 1.203125 0.46875 1.390625 0.46875 Z M 15.90625 -40.453125 L 24.828125 -69.9375 L 39.53125 -21.296875 C 34.5 -30.40625 26.046875 -37.296875 15.90625 -40.453125 Z M 15.90625 -40.453125 "/></g></g></g><g fill="#fbf9f6" fill-opacity="1"><g transform="translate(179.337576, 262.003341)"><g><path d="M 55.890625 -74.125 C 56.171875 -74.125 56.359375 -74.3125 56.359375 -74.59375 C 56.359375 -74.859375 56.171875 -75.046875 55.890625 -75.046875 L 50.3125 -75.046875 C 50.03125 -75.046875 49.84375 -74.859375 49.84375 -74.59375 C 49.84375 -74.3125 50.03125 -74.125 50.3125 -74.125 C 50.96875 -74.125 51.609375 -73.5625 51.609375 -72.8125 L 51.609375 -50.78125 C 51.609375 -39.53125 35.890625 -28.921875 10.6875 -23.25 L 10.6875 -72.8125 C 10.6875 -73.5625 11.25 -74.125 12 -74.125 C 12.28125 -74.125 12.46875 -74.3125 12.46875 -74.59375 C 12.46875 -74.859375 12.28125 -75.046875 12 -75.046875 L 6.328125 -75.046875 C 6.140625 -75.046875 5.953125 -74.859375 5.953125 -74.59375 C 5.953125 -74.3125 6.140625 -74.125 6.328125 -74.125 C 7.0625 -74.125 7.71875 -73.5625 7.71875 -72.8125 L 7.71875 -1.765625 C 7.71875 -1.015625 7.0625 -0.375 6.328125 -0.375 C 6.140625 -0.375 5.953125 -0.1875 5.953125 0.09375 C 5.953125 0.28125 6.140625 0.46875 6.328125 0.46875 L 12 0.46875 C 12.28125 0.46875 12.46875 0.28125 12.46875 0.09375 C 12.46875 -0.1875 12.28125 -0.375 12 -0.375 C 11.25 -0.375 10.6875 -1.015625 10.6875 -1.765625 L 10.6875 -22.234375 C 32.921875 -27.25 47.890625 -36.078125 51.609375 -45.9375 L 51.609375 -1.765625 C 51.609375 -1.015625 50.96875 -0.375 50.3125 -0.375 C 50.03125 -0.375 49.84375 -0.1875 49.84375 0.09375 C 49.84375 0.28125 50.03125 0.46875 50.3125 0.46875 L 55.890625 0.46875 C 56.171875 0.46875 56.359375 0.28125 56.359375 0.09375 C 56.359375 -0.1875 56.171875 -0.375 55.890625 -0.375 C 55.15625 -0.375 54.59375 -1.015625 54.59375 -1.765625 L 54.59375 -72.8125 C 54.59375 -73.5625 55.15625 -74.125 55.890625 -74.125 Z M 55.890625 -74.125 "/></g></g></g><g fill="#fbf9f6" fill-opacity="1"><g transform="translate(129.619698, 233.28807)"><g><path d="M 39.75 -39.296875 C 39.453125 -39.375 39.21875 -39.375 38.921875 -39.375 C 38.46875 -39.453125 37.953125 -39.453125 37.28125 -39.453125 C 35.09375 -39.453125 33 -39.15625 31.046875 -38.46875 C 31.046875 -38.46875 30.96875 -38.46875 30.96875 -38.46875 C 26.40625 -36.90625 23.09375 -33.96875 21.75 -30.453125 C 14.25 -30.53125 8.171875 -37.125 8.171875 -45.296875 C 8.171875 -53.546875 14.328125 -60.21875 21.828125 -60.21875 C 21.90625 -60.21875 21.90625 -60.21875 21.90625 -60.21875 C 22.203125 -60.21875 22.5 -60.21875 22.796875 -60.21875 C 25.203125 -60.21875 27.53125 -59.921875 29.703125 -59.171875 C 38.25 -56.25 39.296875 -50.703125 38.703125 -46.578125 C 38.703125 -46.5 38.703125 -46.34375 38.78125 -46.28125 C 38.84375 -46.203125 38.921875 -46.203125 39.078125 -46.203125 L 41.09375 -46.203125 C 41.328125 -46.203125 41.46875 -46.34375 41.46875 -46.578125 C 41.46875 -52.421875 36.96875 -57.671875 29.921875 -59.921875 C 27.671875 -60.59375 25.28125 -60.96875 22.796875 -60.96875 C 22.5 -60.96875 22.203125 -60.96875 21.96875 -60.96875 C 21.90625 -60.96875 21.90625 -60.96875 21.90625 -60.96875 L 20.921875 -60.96875 C 12.453125 -60.96875 5.546875 -54 5.546875 -45.296875 C 5.546875 -37.875 10.71875 -31.578125 17.625 -30.078125 C 10.71875 -28.5 5.546875 -22.28125 5.546875 -14.78125 C 5.546875 -6.15625 12.453125 0.90625 20.921875 0.90625 L 21.90625 0.90625 C 21.96875 0.90625 22.046875 0.90625 22.203125 0.90625 C 22.28125 0.90625 22.34375 0.90625 22.5 0.90625 L 22.953125 0.90625 C 25.421875 0.90625 27.75 0.53125 29.921875 -0.21875 C 29.921875 -0.21875 30 -0.21875 30 -0.21875 C 36.96875 -2.46875 41.46875 -7.71875 41.46875 -13.578125 L 47.03125 -16.796875 C 51.15625 -19.203125 53.546875 -22.953125 53.546875 -26.921875 C 53.546875 -33.15625 47.625 -38.40625 39.75 -39.296875 Z M 29.703125 -0.90625 C 27.75 -0.296875 25.65625 0.078125 23.46875 0.15625 C 24.21875 -2.328125 26.03125 -4.578125 28.71875 -6.15625 L 38.84375 -12.078125 C 39 -8.171875 37.28125 -3.53125 29.703125 -0.90625 Z M 46.046875 -19.046875 L 27.75 -8.40625 C 24.15625 -6.296875 21.90625 -3.21875 21.375 0.15625 C 14.03125 -0.21875 8.171875 -6.828125 8.171875 -14.78125 C 8.171875 -22.875 14.09375 -29.40625 21.53125 -29.625 C 21.21875 -28.71875 21.078125 -27.828125 21.078125 -26.84375 C 21.078125 -26.625 21.296875 -26.46875 21.453125 -26.46875 L 23.25 -26.46875 C 23.328125 -26.46875 23.46875 -26.546875 23.46875 -26.625 C 23.546875 -26.703125 23.625 -26.78125 23.625 -26.921875 C 23.03125 -30.453125 23.921875 -35.171875 31.203125 -37.71875 C 31.203125 -37.796875 31.28125 -37.796875 31.28125 -37.796875 C 33.15625 -38.40625 35.171875 -38.703125 37.28125 -38.703125 C 37.875 -38.703125 38.40625 -38.703125 38.84375 -38.703125 C 39.15625 -38.625 39.375 -38.625 39.671875 -38.625 C 46.65625 -37.71875 51.671875 -33.21875 51.671875 -27.828125 C 51.671875 -24.375 49.65625 -21.15625 46.046875 -19.046875 Z M 46.046875 -19.046875 "/></g></g></g><g fill="#ffffff" fill-opacity="1"><g transform="translate(134.067996, 311.234686)"><g><path d="M 2.9375 -3.71875 L 2.046875 -1.5 C 1.910156 -1.15625 1.84375 -0.875 1.84375 -0.65625 C 1.84375 -0.351562 1.984375 -0.132812 2.265625 0 L 0.265625 0 C 0.359375 0 0.492188 -0.09375 0.671875 -0.28125 C 0.847656 -0.46875 1.050781 -0.832031 1.28125 -1.375 L 4.921875 -10.046875 L 8.546875 -1.34375 C 8.742188 -0.84375 8.9375 -0.5 9.125 -0.3125 C 9.320312 -0.125 9.472656 -0.0195312 9.578125 0 L 7.265625 0 C 7.503906 -0.113281 7.625 -0.285156 7.625 -0.515625 C 7.625 -0.710938 7.546875 -0.992188 7.390625 -1.359375 L 6.421875 -3.71875 Z M 6.1875 -4.296875 L 4.671875 -8.015625 L 3.1875 -4.296875 Z M 6.1875 -4.296875 "/></g></g></g><g fill="#ffffff" fill-opacity="1"><g transform="translate(146.117928, 311.234686)"><g><path d="M 10.171875 -9.59375 C 10.035156 -9.570312 9.90625 -9.46875 9.78125 -9.28125 C 9.65625 -9.101562 9.59375 -8.785156 9.59375 -8.328125 L 9.59375 0.390625 L 2.453125 -7.9375 L 2.453125 -1.25 C 2.453125 -0.8125 2.53125 -0.5 2.6875 -0.3125 C 2.851562 -0.132812 3.007812 -0.03125 3.15625 0 L 1.1875 0 C 1.3125 -0.03125 1.441406 -0.132812 1.578125 -0.3125 C 1.710938 -0.5 1.78125 -0.816406 1.78125 -1.265625 L 1.78125 -8.25 C 1.78125 -8.5625 1.671875 -8.847656 1.453125 -9.109375 C 1.242188 -9.367188 0.976562 -9.53125 0.65625 -9.59375 L 2.390625 -9.59375 L 8.9375 -1.96875 L 8.9375 -8.328125 C 8.9375 -9.046875 8.691406 -9.46875 8.203125 -9.59375 Z M 10.171875 -9.59375 "/></g></g></g><g fill="#ffffff" fill-opacity="1"><g transform="translate(159.72965, 311.234686)"><g><path d="M 7.421875 0 C 7.421875 0.03125 7.476562 0.0078125 7.59375 -0.0625 C 7.707031 -0.132812 7.804688 -0.265625 7.890625 -0.453125 C 7.984375 -0.640625 8.03125 -0.921875 8.03125 -1.296875 L 8.03125 -4.46875 L 2.796875 -4.46875 L 2.796875 -1.296875 C 2.796875 -0.921875 2.835938 -0.640625 2.921875 -0.453125 C 3.015625 -0.265625 3.117188 -0.132812 3.234375 -0.0625 C 3.347656 0 3.40625 0.0195312 3.40625 0 L 1.1875 0 C 1.1875 0.03125 1.238281 0.0078125 1.34375 -0.0625 C 1.457031 -0.132812 1.554688 -0.265625 1.640625 -0.453125 C 1.734375 -0.640625 1.78125 -0.921875 1.78125 -1.296875 L 1.78125 -8.296875 C 1.78125 -8.671875 1.734375 -8.953125 1.640625 -9.140625 C 1.554688 -9.335938 1.457031 -9.46875 1.34375 -9.53125 C 1.238281 -9.59375 1.1875 -9.613281 1.1875 -9.59375 L 3.40625 -9.59375 C 3.40625 -9.613281 3.347656 -9.59375 3.234375 -9.53125 C 3.117188 -9.46875 3.015625 -9.335938 2.921875 -9.140625 C 2.835938 -8.953125 2.796875 -8.671875 2.796875 -8.296875 L 2.796875 -5.078125 L 8.03125 -5.078125 L 8.03125 -8.296875 C 8.03125 -8.671875 7.984375 -8.953125 7.890625 -9.140625 C 7.804688 -9.335938 7.707031 -9.46875 7.59375 -9.53125 C 7.476562 -9.59375 7.421875 -9.613281 7.421875 -9.59375 L 9.640625 -9.59375 C 9.640625 -9.625 9.582031 -9.601562 9.46875 -9.53125 C 9.363281 -9.46875 9.265625 -9.335938 9.171875 -9.140625 C 9.085938 -8.953125 9.046875 -8.671875 9.046875 -8.296875 L 9.046875 -1.296875 C 9.046875 -0.921875 9.09375 -0.640625 9.1875 -0.453125 C 9.28125 -0.265625 9.378906 -0.132812 9.484375 -0.0625 C 9.597656 0 9.65625 0.0195312 9.65625 0 Z M 7.421875 0 "/></g></g></g><g fill="#ffffff" fill-opacity="1"><g transform="translate(172.783585, 311.234686)"><g/></g></g><g fill="#ffffff" fill-opacity="1"><g transform="translate(178.809445, 311.234686)"><g><path d="M 9.59375 -0.4375 C 9.351562 -0.03125 9.050781 0.171875 8.6875 0.171875 C 8.414062 0.171875 8.082031 0.0507812 7.6875 -0.1875 C 7.300781 -0.4375 6.820312 -0.796875 6.25 -1.265625 C 5.3125 -0.304688 4.390625 0.171875 3.484375 0.171875 C 2.628906 0.171875 1.960938 -0.0546875 1.484375 -0.515625 C 1.015625 -0.972656 0.78125 -1.566406 0.78125 -2.296875 C 0.78125 -2.890625 0.945312 -3.382812 1.28125 -3.78125 C 1.625 -4.175781 2.128906 -4.585938 2.796875 -5.015625 C 2.046875 -5.972656 1.671875 -6.8125 1.671875 -7.53125 C 1.671875 -8.019531 1.78125 -8.429688 2 -8.765625 C 2.21875 -9.097656 2.503906 -9.347656 2.859375 -9.515625 C 3.210938 -9.679688 3.585938 -9.765625 3.984375 -9.765625 C 4.359375 -9.765625 4.710938 -9.691406 5.046875 -9.546875 C 5.378906 -9.398438 5.644531 -9.1875 5.84375 -8.90625 C 6.039062 -8.625 6.140625 -8.289062 6.140625 -7.90625 C 6.140625 -7.375 5.945312 -6.898438 5.5625 -6.484375 C 5.1875 -6.066406 4.644531 -5.625 3.9375 -5.15625 C 4.789062 -4.09375 5.628906 -3.175781 6.453125 -2.40625 C 6.828125 -3 7.117188 -3.515625 7.328125 -3.953125 C 7.546875 -4.398438 7.65625 -4.800781 7.65625 -5.15625 C 7.65625 -5.5 7.546875 -5.78125 7.328125 -6 L 9.140625 -6 C 8.921875 -5.78125 8.601562 -5.203125 8.1875 -4.265625 C 7.90625 -3.609375 7.46875 -2.875 6.875 -2.0625 C 6.9375 -2.03125 7.019531 -1.96875 7.125 -1.875 C 7.59375 -1.5 8 -1.203125 8.34375 -0.984375 C 8.695312 -0.773438 9.03125 -0.671875 9.34375 -0.671875 C 9.4375 -0.671875 9.597656 -0.738281 9.828125 -0.875 C 9.765625 -0.71875 9.6875 -0.570312 9.59375 -0.4375 Z M 3.890625 -9.328125 C 3.421875 -9.328125 3.078125 -9.1875 2.859375 -8.90625 C 2.640625 -8.632812 2.53125 -8.304688 2.53125 -7.921875 C 2.53125 -7.578125 2.640625 -7.1875 2.859375 -6.75 C 3.085938 -6.320312 3.351562 -5.914062 3.65625 -5.53125 C 4.226562 -5.882812 4.640625 -6.234375 4.890625 -6.578125 C 5.140625 -6.921875 5.265625 -7.316406 5.265625 -7.765625 C 5.265625 -8.285156 5.128906 -8.675781 4.859375 -8.9375 C 4.585938 -9.195312 4.265625 -9.328125 3.890625 -9.328125 Z M 3.09375 -4.625 C 2.625 -4.332031 2.269531 -4.023438 2.03125 -3.703125 C 1.789062 -3.390625 1.671875 -3.023438 1.671875 -2.609375 C 1.671875 -2.242188 1.765625 -1.898438 1.953125 -1.578125 C 2.148438 -1.253906 2.410156 -0.992188 2.734375 -0.796875 C 3.054688 -0.597656 3.40625 -0.5 3.78125 -0.5 C 4.175781 -0.5 4.519531 -0.585938 4.8125 -0.765625 C 5.101562 -0.953125 5.445312 -1.238281 5.84375 -1.625 C 5.375 -2.0625 4.894531 -2.546875 4.40625 -3.078125 C 3.914062 -3.617188 3.476562 -4.132812 3.09375 -4.625 Z M 3.09375 -4.625 "/></g></g></g><g fill="#ffffff" fill-opacity="1"><g transform="translate(191.347435, 311.234686)"><g/></g></g><g fill="#ffffff" fill-opacity="1"><g transform="translate(197.373295, 311.234686)"><g><path d="M 7.421875 0 C 7.421875 0.03125 7.476562 0.0078125 7.59375 -0.0625 C 7.707031 -0.132812 7.804688 -0.265625 7.890625 -0.453125 C 7.984375 -0.640625 8.03125 -0.921875 8.03125 -1.296875 L 8.03125 -4.46875 L 2.796875 -4.46875 L 2.796875 -1.296875 C 2.796875 -0.921875 2.835938 -0.640625 2.921875 -0.453125 C 3.015625 -0.265625 3.117188 -0.132812 3.234375 -0.0625 C 3.347656 0 3.40625 0.0195312 3.40625 0 L 1.1875 0 C 1.1875 0.03125 1.238281 0.0078125 1.34375 -0.0625 C 1.457031 -0.132812 1.554688 -0.265625 1.640625 -0.453125 C 1.734375 -0.640625 1.78125 -0.921875 1.78125 -1.296875 L 1.78125 -8.296875 C 1.78125 -8.671875 1.734375 -8.953125 1.640625 -9.140625 C 1.554688 -9.335938 1.457031 -9.46875 1.34375 -9.53125 C 1.238281 -9.59375 1.1875 -9.613281 1.1875 -9.59375 L 3.40625 -9.59375 C 3.40625 -9.613281 3.347656 -9.59375 3.234375 -9.53125 C 3.117188 -9.46875 3.015625 -9.335938 2.921875 -9.140625 C 2.835938 -8.953125 2.796875 -8.671875 2.796875 -8.296875 L 2.796875 -5.078125 L 8.03125 -5.078125 L 8.03125 -8.296875 C 8.03125 -8.671875 7.984375 -8.953125 7.890625 -9.140625 C 7.804688 -9.335938 7.707031 -9.46875 7.59375 -9.53125 C 7.476562 -9.59375 7.421875 -9.613281 7.421875 -9.59375 L 9.640625 -9.59375 C 9.640625 -9.625 9.582031 -9.601562 9.46875 -9.53125 C 9.363281 -9.46875 9.265625 -9.335938 9.171875 -9.140625 C 9.085938 -8.953125 9.046875 -8.671875 9.046875 -8.296875 L 9.046875 -1.296875 C 9.046875 -0.921875 9.09375 -0.640625 9.1875 -0.453125 C 9.28125 -0.265625 9.378906 -0.132812 9.484375 -0.0625 C 9.597656 0 9.65625 0.0195312 9.65625 0 Z M 7.421875 0 "/></g></g></g><g fill="#ffffff" fill-opacity="1"><g transform="translate(210.427232, 311.234686)"><g><path d="M 2.9375 -3.71875 L 2.046875 -1.5 C 1.910156 -1.15625 1.84375 -0.875 1.84375 -0.65625 C 1.84375 -0.351562 1.984375 -0.132812 2.265625 0 L 0.265625 0 C 0.359375 0 0.492188 -0.09375 0.671875 -0.28125 C 0.847656 -0.46875 1.050781 -0.832031 1.28125 -1.375 L 4.921875 -10.046875 L 8.546875 -1.34375 C 8.742188 -0.84375 8.9375 -0.5 9.125 -0.3125 C 9.320312 -0.125 9.472656 -0.0195312 9.578125 0 L 7.265625 0 C 7.503906 -0.113281 7.625 -0.285156 7.625 -0.515625 C 7.625 -0.710938 7.546875 -0.992188 7.390625 -1.359375 L 6.421875 -3.71875 Z M 6.1875 -4.296875 L 4.671875 -8.015625 L 3.1875 -4.296875 Z M 6.1875 -4.296875 "/></g></g></g><g fill="#ffffff" fill-opacity="1"><g transform="translate(222.47716, 311.234686)"><g><path d="M 10.171875 -9.59375 C 10.035156 -9.570312 9.90625 -9.46875 9.78125 -9.28125 C 9.65625 -9.101562 9.59375 -8.785156 9.59375 -8.328125 L 9.59375 0.390625 L 2.453125 -7.9375 L 2.453125 -1.25 C 2.453125 -0.8125 2.53125 -0.5 2.6875 -0.3125 C 2.851562 -0.132812 3.007812 -0.03125 3.15625 0 L 1.1875 0 C 1.3125 -0.03125 1.441406 -0.132812 1.578125 -0.3125 C 1.710938 -0.5 1.78125 -0.816406 1.78125 -1.265625 L 1.78125 -8.25 C 1.78125 -8.5625 1.671875 -8.847656 1.453125 -9.109375 C 1.242188 -9.367188 0.976562 -9.53125 0.65625 -9.59375 L 2.390625 -9.59375 L 8.9375 -1.96875 L 8.9375 -8.328125 C 8.9375 -9.046875 8.691406 -9.46875 8.203125 -9.59375 Z M 10.171875 -9.59375 "/></g></g></g><g clip-path="url(#87f08a5f85)"><path fill="#ffffff" d="M 281.957031 201.097656 C 281.324219 199.90625 280.09375 199.03125 278.296875 198.492188 C 277.890625 198.371094 277.457031 198.277344 277.019531 198.199219 C 277.617188 197.902344 278.1875 197.585938 278.675781 197.242188 C 280.304688 196.105469 281.386719 194.15625 281.429688 192.277344 C 281.460938 190.859375 280.90625 189.632812 279.863281 188.832031 C 277.820312 187.253906 274.648438 187.882812 272.5 189.515625 C 272.554688 189.128906 272.601562 188.746094 272.628906 188.375 C 272.746094 186.683594 272.246094 185.203125 271.1875 184.09375 C 270.058594 182.90625 268.386719 182.222656 266.605469 182.296875 C 265.59375 182.320312 264.710938 182.738281 264.054688 183.507812 C 262.914062 184.847656 262.664062 186.96875 262.816406 188.671875 C 262.484375 188.324219 262.144531 187.996094 261.800781 187.710938 C 260.058594 186.265625 258.398438 186.179688 257.3125 186.351562 C 255.832031 186.589844 254.425781 187.523438 253.640625 188.785156 C 253.171875 189.542969 253.054688 190.460938 253.304688 191.4375 C 253.632812 192.710938 254.582031 194.035156 255.851562 195.070312 C 255.199219 195.144531 254.585938 195.273438 254.050781 195.496094 C 252.214844 196.265625 250.808594 197.777344 250.195312 199.644531 C 249.738281 201.035156 249.804688 202.425781 250.367188 203.371094 C 251.113281 204.609375 253.070312 205.046875 255.046875 205.046875 C 256.003906 205.046875 256.945312 204.9375 257.777344 204.777344 C 257.457031 205.1875 257.175781 205.597656 256.972656 205.992188 C 256.0625 207.773438 256.285156 210.316406 257.515625 212.179688 C 258.410156 213.535156 259.6875 214.292969 261.054688 214.292969 C 261.140625 214.292969 261.226562 214.289062 261.3125 214.285156 C 263.617188 214.121094 265.367188 211.847656 266.601562 209.382812 L 266.601562 231.78125 C 266.039062 229.78125 265.382812 227.769531 264.636719 226.046875 C 263.097656 222.492188 260.664062 220.082031 257.960938 219.4375 C 256.464844 219.082031 255.058594 219.335938 254.109375 220.128906 C 253.300781 220.800781 252.855469 221.960938 252.855469 223.394531 C 252.851562 225.675781 254.046875 229.34375 257.425781 232.175781 C 261.691406 235.75 265.769531 240.507812 266.601562 242.390625 L 266.601562 280.019531 L 112 280.019531 L 112 171.511719 C 112 170.886719 111.492188 170.378906 110.863281 170.378906 C 110.238281 170.378906 109.730469 170.886719 109.730469 171.511719 L 109.730469 281.152344 C 109.730469 281.78125 110.238281 282.289062 110.863281 282.289062 L 267.734375 282.289062 C 268.363281 282.289062 268.867188 281.78125 268.867188 281.152344 L 268.867188 258.03125 C 270.019531 256.953125 273.644531 253.488281 276.335938 250.109375 C 279.519531 246.117188 280.921875 243.09375 280.621094 240.871094 C 280.480469 239.855469 279.972656 239.003906 279.152344 238.40625 C 278.277344 237.769531 277.242188 237.582031 276.15625 237.855469 C 273.484375 238.535156 271.027344 241.910156 269.617188 244.847656 C 269.347656 245.410156 269.097656 246.03125 268.867188 246.679688 L 268.867188 230.292969 C 269.394531 229.101562 270.8125 227.90625 272.457031 226.53125 C 273.265625 225.851562 274.121094 225.136719 274.964844 224.34375 C 277.207031 222.242188 278.707031 219.203125 278.535156 217.113281 C 278.4375 215.941406 277.859375 215.324219 277.398438 215.015625 C 276.703125 214.554688 275.839844 214.425781 274.890625 214.640625 C 273.003906 215.074219 270.910156 216.847656 269.546875 219.164062 C 269.308594 219.570312 269.082031 220.058594 268.867188 220.589844 L 268.867188 212.007812 C 269.71875 213.488281 270.921875 214.371094 272.242188 214.371094 C 272.414062 214.371094 272.589844 214.355469 272.765625 214.324219 C 273.859375 214.136719 274.804688 213.53125 275.429688 212.621094 C 276.148438 211.578125 276.386719 210.207031 276.105469 208.753906 C 275.949219 207.964844 275.46875 206.964844 274.867188 205.941406 C 275.871094 206.335938 277.347656 206.773438 278.734375 206.773438 C 279.359375 206.773438 279.960938 206.683594 280.496094 206.460938 C 281.3125 206.121094 281.882812 205.5 282.144531 204.675781 C 282.566406 203.335938 282.503906 202.132812 281.957031 201.097656 Z M 258.882812 230.4375 C 256.28125 228.257812 255.117188 225.332031 255.121094 223.398438 C 255.121094 222.539062 255.347656 222.042969 255.558594 221.867188 C 255.8125 221.65625 256.203125 221.546875 256.660156 221.546875 C 256.902344 221.546875 257.167969 221.578125 257.433594 221.644531 C 259.40625 222.113281 261.324219 224.097656 262.554688 226.945312 C 263.84375 229.921875 264.882812 233.90625 265.585938 237.070312 C 263.617188 234.78125 261.097656 232.292969 258.882812 230.4375 Z M 271.660156 245.828125 C 273.128906 242.765625 275.160156 240.445312 276.710938 240.054688 C 276.851562 240.019531 276.984375 240 277.109375 240 C 277.367188 240 277.597656 240.078125 277.820312 240.242188 C 278.148438 240.476562 278.316406 240.765625 278.375 241.175781 C 278.492188 242.050781 278.15625 244.191406 274.5625 248.699219 C 272.925781 250.75 270.878906 252.886719 269.320312 254.4375 C 269.757812 251.828125 270.519531 248.207031 271.660156 245.828125 Z M 271.503906 220.3125 C 272.699219 218.273438 274.359375 217.089844 275.394531 216.851562 C 275.507812 216.828125 275.636719 216.808594 275.761719 216.808594 C 275.898438 216.808594 276.035156 216.832031 276.140625 216.902344 C 276.207031 216.945312 276.257812 217.097656 276.273438 217.300781 C 276.375 218.511719 275.308594 220.914062 273.414062 222.691406 C 272.605469 223.453125 271.78125 224.140625 271.003906 224.792969 C 270.539062 225.179688 270.085938 225.558594 269.660156 225.929688 C 270.140625 223.808594 270.777344 221.539062 271.503906 220.3125 Z M 278.480469 190.625 C 279.066406 191.078125 279.175781 191.746094 279.164062 192.226562 C 279.136719 193.386719 278.417969 194.65625 277.378906 195.386719 C 275.976562 196.367188 273.65625 197.183594 272.257812 197.621094 C 271.996094 196.804688 271.53125 196.085938 270.90625 195.527344 C 271.363281 194.613281 272.175781 193.113281 273.109375 192.003906 C 274.378906 190.5 277.105469 189.5625 278.480469 190.625 Z M 265.777344 184.980469 C 266.015625 184.699219 266.289062 184.570312 266.65625 184.5625 C 267.765625 184.578125 268.867188 184.941406 269.546875 185.65625 C 270.164062 186.304688 270.441406 187.164062 270.367188 188.21875 C 270.21875 190.375 269.347656 193.011719 268.828125 194.429688 C 268.472656 194.347656 268.113281 194.292969 267.734375 194.292969 C 267.460938 194.292969 267.199219 194.328125 266.941406 194.371094 C 266.285156 192.785156 265.292969 190.183594 265.109375 188.828125 C 264.929688 187.519531 265.101562 185.773438 265.777344 184.980469 Z M 255.566406 189.984375 C 255.902344 189.441406 256.65625 188.753906 257.675781 188.589844 C 258.578125 188.441406 259.480469 188.734375 260.351562 189.457031 C 262.167969 190.960938 263.949219 193.875 264.78125 195.347656 C 264.480469 195.585938 264.214844 195.855469 263.980469 196.15625 C 263.785156 196.097656 263.570312 196.039062 263.324219 195.96875 C 261.859375 195.511719 259.617188 194.75 258.253906 193.980469 C 256.90625 193.222656 255.777344 191.945312 255.5 190.875 C 255.40625 190.503906 255.429688 190.203125 255.566406 189.984375 Z M 252.3125 202.203125 C 252.132812 201.90625 252.070312 201.203125 252.351562 200.351562 C 252.542969 199.765625 253.179688 198.320312 254.925781 197.589844 C 256.792969 196.808594 260.601562 197.582031 262.882812 198.207031 C 262.941406 198.226562 262.992188 198.242188 263.046875 198.257812 C 263.003906 198.519531 262.964844 198.785156 262.964844 199.0625 C 262.964844 199.355469 263 199.640625 263.054688 199.921875 C 261.996094 200.5625 259.945312 201.753906 258.410156 202.289062 C 256.121094 203.089844 252.691406 202.824219 252.3125 202.203125 Z M 261.15625 212.023438 C 260.292969 212.082031 259.695312 211.363281 259.40625 210.929688 C 258.621094 209.738281 258.445312 208.09375 258.992188 207.023438 C 259.789062 205.46875 262.398438 203.3125 264.0625 202.066406 C 264.660156 202.796875 265.46875 203.339844 266.398438 203.617188 C 265.703125 206.097656 263.5625 211.851562 261.15625 212.023438 Z M 273.5625 211.335938 C 273.285156 211.738281 272.863281 212.007812 272.378906 212.09375 C 271.59375 212.242188 270.496094 210.917969 270.074219 208.757812 C 269.847656 207.578125 269.644531 206.214844 269.476562 205.078125 C 269.378906 204.445312 269.308594 203.953125 269.242188 203.5625 C 269.5625 203.453125 269.867188 203.316406 270.152344 203.148438 C 271.675781 205.085938 273.625 207.890625 273.878906 209.1875 C 274.046875 210.050781 273.9375 210.789062 273.5625 211.335938 Z M 279.984375 203.992188 C 279.933594 204.148438 279.851562 204.273438 279.617188 204.371094 C 278.617188 204.789062 276.28125 204.175781 275.046875 203.546875 C 274.222656 203.132812 272.84375 202.109375 271.886719 201.359375 C 272.09375 200.984375 272.261719 200.585938 272.363281 200.15625 C 273.621094 200.125 275.925781 200.152344 277.644531 200.664062 C 278.46875 200.910156 279.535156 201.367188 279.953125 202.15625 C 280.210938 202.644531 280.21875 203.242188 279.984375 203.992188 Z M 279.984375 203.992188 " fill-opacity="1" fill-rule="nonzero"/></g><g clip-path="url(#868bdb4da4)"><path fill="#ffffff" d="M 111.589844 160.046875 C 114.433594 158.914062 114.671875 155.722656 114.605469 153.417969 C 114.585938 152.796875 114.539062 152.089844 114.472656 151.351562 C 115.695312 153.539062 117.113281 155.558594 118.449219 156.210938 C 118.738281 156.351562 119.0625 156.414062 119.402344 156.414062 C 121.625 156.414062 124.683594 153.699219 125.480469 152.222656 C 126.601562 150.15625 125.261719 147.320312 122.070312 145 C 121.800781 144.800781 121.5 144.609375 121.191406 144.425781 C 121.453125 144.429688 121.71875 144.4375 121.976562 144.4375 C 123.917969 144.4375 125.632812 144.253906 126.4375 143.703125 C 128.007812 142.628906 128.445312 139.777344 128.1875 137.585938 C 127.9375 135.449219 127.054688 133.9375 125.773438 133.449219 C 124.851562 133.097656 123.53125 133.210938 122.167969 133.523438 C 122.558594 133.082031 122.851562 132.691406 122.976562 132.382812 C 123.875 130.21875 122.449219 126.40625 120.304688 125.230469 C 119.597656 124.839844 118.738281 124.78125 117.820312 125.050781 C 116.617188 125.402344 115.320312 126.339844 114.292969 127.527344 C 116.890625 117.070312 121.617188 107.484375 127.972656 99.21875 C 126.992188 101.398438 126.117188 103.703125 125.652344 105.785156 C 124.667969 110.164062 124.335938 115.746094 126.355469 118.269531 C 127.023438 119.109375 127.910156 119.550781 128.921875 119.550781 C 129.964844 119.550781 130.941406 119.089844 131.738281 118.214844 C 133.851562 115.914062 134.472656 111.082031 134.148438 107.316406 C 133.65625 101.632812 133.902344 93.867188 134.617188 91.640625 C 148.65625 77.589844 168.035156 68.917969 189.300781 68.917969 C 231.925781 68.917969 266.601562 103.597656 266.601562 146.21875 L 266.601562 171.445312 C 266.601562 172.070312 267.109375 172.578125 267.734375 172.578125 C 268.363281 172.578125 268.867188 172.070312 268.867188 171.445312 L 268.867188 146.21875 C 268.867188 102.34375 233.175781 66.652344 189.300781 66.652344 C 171.871094 66.652344 155.679688 72.3125 142.503906 81.914062 C 140.417969 81.730469 135.292969 81.457031 129.300781 81.375 C 124.546875 81.332031 121.039062 82.3125 119.371094 84.203125 C 118.539062 85.148438 118.191406 86.285156 118.359375 87.5 C 118.519531 88.628906 119.042969 89.496094 119.910156 90.070312 C 120.699219 90.59375 121.746094 90.859375 123.148438 90.859375 C 124.820312 90.859375 127.003906 90.480469 129.855469 89.726562 C 131.640625 89.253906 133.496094 88.589844 135.242188 87.882812 C 134.503906 88.566406 133.785156 89.269531 133.074219 89.980469 C 132.929688 90.070312 132.796875 90.179688 132.703125 90.332031 C 132.699219 90.335938 132.6875 90.359375 132.683594 90.363281 C 128.667969 94.429688 125.09375 98.925781 122.023438 103.78125 C 120.570312 104.160156 115.277344 105.578125 110.359375 107.3125 C 106.746094 108.582031 104.125 110.578125 103.167969 112.785156 C 102.722656 113.804688 102.671875 114.800781 103.023438 115.601562 C 103.316406 116.273438 103.933594 116.769531 104.761719 116.996094 C 105.128906 117.097656 105.53125 117.148438 105.96875 117.148438 C 108.070312 117.148438 110.902344 116.011719 113.699219 113.996094 C 115.257812 112.871094 116.851562 111.574219 118.292969 110.339844 C 115.601562 115.652344 113.484375 121.308594 112.03125 127.238281 C 110.582031 124.742188 107.003906 122.148438 104.664062 122.613281 C 103.542969 122.832031 102.601562 123.683594 102.078125 124.945312 C 101.753906 125.734375 101.324219 127.449219 102.050781 130.042969 C 99.742188 129.003906 97.09375 129.015625 95.742188 129.464844 C 94.792969 129.78125 93.472656 130.628906 92.863281 131.984375 C 92.4375 132.929688 92.433594 133.960938 92.859375 134.960938 C 93.441406 136.339844 95.796875 138.269531 98.851562 139.84375 C 98.632812 139.875 98.421875 139.910156 98.222656 139.953125 C 94.835938 140.671875 93.167969 142.558594 93.261719 145.558594 C 93.34375 148.214844 95.019531 151.882812 97.949219 151.882812 C 97.957031 151.882812 97.964844 151.882812 97.972656 151.882812 C 99.585938 151.871094 102.367188 150.613281 104.941406 148.84375 C 104.25 150.421875 103.683594 151.992188 103.589844 153.058594 C 103.414062 155.097656 105.285156 157.261719 107.09375 158.605469 C 107.796875 159.132812 109.394531 160.191406 110.78125 160.191406 C 111.0625 160.191406 111.335938 160.148438 111.589844 160.046875 Z M 129.273438 87.535156 C 127.667969 87.960938 122.78125 89.257812 121.164062 88.183594 C 120.949219 88.039062 120.691406 87.796875 120.605469 87.183594 C 120.527344 86.628906 120.679688 86.144531 121.070312 85.699219 C 122.21875 84.398438 125.117188 83.636719 128.863281 83.636719 C 128.996094 83.636719 129.132812 83.636719 129.265625 83.640625 C 132.792969 83.691406 136.074219 83.808594 138.566406 83.933594 C 136.003906 85.15625 132.46875 86.6875 129.273438 87.535156 Z M 130.070312 116.683594 C 129.699219 117.085938 129.324219 117.28125 128.921875 117.28125 C 128.710938 117.28125 128.425781 117.234375 128.125 116.855469 C 126.910156 115.339844 126.804688 110.992188 127.863281 106.28125 C 128.542969 103.246094 130.210938 99.597656 131.722656 96.6875 C 131.542969 100.292969 131.632812 104.550781 131.886719 107.511719 C 132.21875 111.320312 131.453125 115.175781 130.070312 116.683594 Z M 112.375 112.15625 C 108.21875 115.148438 105.417969 115.113281 105.101562 114.691406 C 105.03125 114.539062 105.03125 114.183594 105.246094 113.6875 C 105.507812 113.085938 106.703125 111 111.113281 109.449219 C 113.695312 108.539062 116.390625 107.714844 118.558594 107.089844 C 116.777344 108.6875 114.515625 110.613281 112.375 112.15625 Z M 123.488281 151.144531 C 122.78125 152.453125 120.140625 154.265625 119.441406 154.171875 C 117.933594 153.433594 115.371094 148.460938 113.8125 144.71875 C 114.066406 144.503906 114.296875 144.265625 114.496094 144 C 115.957031 144.480469 119 145.566406 120.738281 146.832031 C 123.023438 148.492188 123.929688 150.328125 123.488281 151.144531 Z M 124.964844 135.566406 C 125.332031 135.707031 125.78125 136.535156 125.9375 137.851562 C 126.171875 139.828125 125.640625 141.5 125.15625 141.832031 C 124.332031 142.398438 119.644531 142.210938 115.335938 141.683594 C 115.34375 141.59375 115.363281 141.507812 115.363281 141.417969 C 115.363281 140.777344 115.214844 140.171875 114.964844 139.621094 C 115.699219 139.070312 116.65625 138.34375 117.65625 137.550781 C 119.960938 136.460938 123.777344 135.105469 124.964844 135.566406 Z M 115.167969 130.1875 C 115.910156 128.828125 117.324219 127.554688 118.457031 127.226562 C 118.644531 127.171875 118.996094 127.097656 119.210938 127.214844 C 120.316406 127.820312 121.332031 130.433594 120.882812 131.515625 C 120.507812 132.34375 116.90625 135.339844 113.519531 137.871094 C 113.253906 137.683594 112.972656 137.519531 112.667969 137.394531 C 113.273438 135.246094 114.363281 131.65625 115.167969 130.1875 Z M 104.175781 125.808594 C 104.4375 125.175781 104.824219 124.890625 105.101562 124.835938 C 106.367188 124.558594 109.722656 127.023438 110.355469 128.988281 C 110.59375 129.734375 110.355469 133.660156 109.976562 137.199219 C 109.65625 137.277344 109.351562 137.398438 109.0625 137.542969 C 108.457031 136.652344 107.496094 135.273438 106.449219 133.953125 C 103.203125 129.15625 103.886719 126.507812 104.175781 125.808594 Z M 94.945312 134.078125 C 94.765625 133.65625 94.761719 133.285156 94.929688 132.917969 C 95.203125 132.304688 95.90625 131.800781 96.457031 131.617188 C 97.335938 131.320312 100.234375 131.226562 102.199219 132.722656 C 103.753906 133.90625 106.144531 137.253906 107.355469 139.070312 C 107.144531 139.394531 106.988281 139.753906 106.871094 140.132812 C 106.625 140.097656 106.335938 140.0625 106.027344 140.023438 C 100.695312 138.976562 95.523438 135.441406 94.945312 134.078125 Z M 97.960938 149.613281 C 97.957031 149.613281 97.953125 149.613281 97.953125 149.613281 C 96.621094 149.613281 95.578125 147.152344 95.527344 145.484375 C 95.476562 143.910156 95.996094 142.742188 98.695312 142.171875 C 100.601562 141.765625 103.667969 142.019531 105.65625 142.261719 C 106.035156 142.332031 106.414062 142.394531 106.792969 142.445312 C 106.90625 142.917969 107.097656 143.359375 107.351562 143.757812 C 104.730469 146.902344 99.566406 149.605469 97.960938 149.613281 Z M 105.847656 153.257812 C 105.992188 151.582031 107.964844 147.636719 109.195312 145.363281 C 109.75 145.617188 110.359375 145.769531 111.011719 145.769531 C 111.175781 145.769531 111.332031 145.742188 111.496094 145.722656 C 111.773438 147.597656 112.269531 151.191406 112.339844 153.488281 C 112.449219 157.265625 111.21875 157.753906 110.796875 157.925781 C 110.410156 157.992188 108.957031 157.371094 107.515625 156.007812 C 106.445312 154.996094 105.792969 153.917969 105.847656 153.257812 Z M 105.847656 153.257812 " fill-opacity="1" fill-rule="nonzero"/></g></svg>