<svg xmlns="http://www.w3.org/2000/svg" xmlns:xlink="http://www.w3.org/1999/xlink" width="500" zoomAndPan="magnify" viewBox="0 0 375 374.999991" height="500" preserveAspectRatio="xMidYMid meet" version="1.0"><defs><g/><clipPath id="18be3d25b4"><path d="M 109.347656 63.695312 L 265.347656 63.695312 L 265.347656 285.695312 L 109.347656 285.695312 Z M 109.347656 63.695312 " clip-rule="nonzero"/></clipPath></defs><g clip-path="url(#18be3d25b4)"><path stroke-linecap="butt" transform="matrix(0.492574, 0, 0, 0.493224, 109.395957, 63.694333)" fill="none" stroke-linejoin="miter" d="M 313.996532 447.607283 L 2.463422 447.607283 L 2.463422 154.09821 C 2.463422 151.619302 2.518934 149.140393 2.645818 146.661485 C 2.764773 144.182577 2.947169 141.703669 3.193008 139.2406 C 3.430916 136.769612 3.740197 134.306543 4.10499 131.851394 C 4.461852 129.396246 4.890087 126.949017 5.373835 124.517627 C 5.857582 122.086238 6.404771 119.662769 7.007472 117.255139 C 7.610173 114.847509 8.268387 112.455719 8.990042 110.079769 C 9.711698 107.703818 10.488865 105.351628 11.321544 103.015276 C 12.162154 100.678925 13.050345 98.366333 14.001979 96.069581 C 14.953612 93.780749 15.960758 91.507757 17.015485 89.266443 C 18.078143 87.02513 19.196312 84.807576 20.362063 82.613782 C 21.535745 80.427908 22.757008 78.273713 24.033783 76.143277 C 25.310558 74.012842 26.634915 71.914086 28.014783 69.854929 C 29.394652 67.787852 30.822102 65.760374 32.305065 63.764576 C 33.780097 61.776697 35.30271 59.820498 36.880836 57.903898 C 38.458962 55.979378 40.076739 54.102377 41.742098 52.264976 C 43.407456 50.427574 45.120397 48.629772 46.872989 46.871568 C 48.62558 45.121285 50.425754 43.410601 52.265579 41.739515 C 54.105404 40.07635 55.98488 38.452784 57.904008 36.884657 C 59.815205 35.30861 61.773984 33.780082 63.764484 32.299072 C 65.762915 30.825983 67.793067 29.392493 69.854939 28.014442 C 71.916812 26.636391 74.010406 25.313778 76.143651 24.030765 C 78.268966 22.755672 80.426002 21.536017 82.614759 20.363882 C 84.803517 19.191746 87.023995 18.082969 89.268264 17.021711 C 91.512533 15.960454 93.780593 14.954635 96.072444 14.004254 C 98.364295 13.053874 100.679937 12.158933 103.011439 11.32735 C 105.350871 10.487848 107.706165 9.711704 110.077318 8.990999 C 112.456402 8.270294 114.843416 7.605028 117.254221 7.003121 C 119.665026 6.401213 122.083762 5.854745 124.518358 5.371635 C 126.952954 4.888525 129.39548 4.468773 131.845936 4.104461 C 134.304323 3.740149 136.77064 3.431275 139.236957 3.19368 C 141.703274 2.948165 144.177521 2.766009 146.659699 2.639292 C 149.141876 2.520494 151.616124 2.457135 154.098301 2.457135 L 162.306141 2.457135 C 164.788318 2.457135 167.270496 2.520494 169.752673 2.639292 C 172.234851 2.758089 174.709098 2.940245 177.175415 3.18576 C 179.649663 3.431275 182.108049 3.732229 184.566436 4.096541 C 187.016892 4.460854 189.467349 4.880605 191.901945 5.363715 C 194.336541 5.846825 196.755276 6.393293 199.166081 6.995201 C 201.568956 7.597108 203.9639 8.254454 206.342984 8.975159 C 208.714138 9.695864 211.069431 10.472008 213.408863 11.311511 C 215.748296 12.143093 218.063938 13.038035 220.355789 13.988415 C 222.647639 14.938795 224.915699 15.944614 227.159969 17.005872 C 229.404238 18.06713 231.624716 19.175906 233.813473 20.348042 C 236.002231 21.520178 238.159267 22.739832 240.292512 24.014925 C 242.417827 25.290019 244.519351 26.620551 246.581224 27.998602 C 248.643096 29.376653 250.673248 30.802224 252.671679 32.283233 C 254.662179 33.764242 256.620958 35.28485 258.540086 36.860897 C 260.459213 38.436944 262.33869 40.06051 264.178514 41.723676 C 266.018339 43.394761 267.810583 45.105445 269.571105 46.855729 C 271.323697 48.613932 273.036637 50.411734 274.701996 52.249136 C 276.367354 54.086538 277.993062 55.963538 279.563257 57.880138 C 281.141383 59.804658 282.663997 61.760857 284.146959 63.748736 C 285.621991 65.744534 287.057372 67.772012 288.43724 69.839089 C 289.809179 71.898246 291.141466 73.997002 292.418241 76.127438 C 293.695016 78.257873 294.916279 80.412068 296.08996 82.605862 C 297.255711 84.791737 298.373881 87.00929 299.436538 89.250604 C 300.499196 91.499837 301.498411 93.764909 302.450045 96.061661 C 303.401678 98.350494 304.2978 100.663085 305.130479 103.007356 C 305.971089 105.343708 306.748256 107.695899 307.469912 110.071849 C 308.191567 112.447799 308.84978 114.839589 309.452482 117.247219 C 310.055183 119.654849 310.602372 122.078318 311.086119 124.509708 C 311.569866 126.941097 311.990171 129.388326 312.354964 131.843475 C 312.719757 134.298623 313.029038 136.761692 313.266946 139.23268 C 313.512785 141.703669 313.695181 144.174657 313.814135 146.661485 C 313.94102 149.140393 313.996532 151.619302 313.996532 154.09821 Z M 313.996532 447.607283 " stroke="#231f20" stroke-width="4.92" stroke-opacity="1" stroke-miterlimit="10"/></g><g fill="#000000" fill-opacity="1"><g transform="translate(149.987015, 187.021338)"><g><path d="M 55.859375 -74.078125 C 56.140625 -74.078125 56.328125 -74.265625 56.328125 -74.546875 C 56.328125 -74.828125 56.140625 -75.015625 55.859375 -75.015625 L 50.28125 -75.015625 C 50.015625 -75.015625 49.828125 -74.828125 49.828125 -74.546875 C 49.828125 -74.265625 50.015625 -74.078125 50.28125 -74.078125 C 50.9375 -74.078125 51.59375 -73.53125 51.59375 -72.78125 L 51.59375 -50.75 C 51.59375 -39.5 35.875 -28.90625 10.6875 -23.234375 L 10.6875 -72.78125 C 10.6875 -73.53125 11.25 -74.078125 11.984375 -74.078125 C 12.265625 -74.078125 12.453125 -74.265625 12.453125 -74.546875 C 12.453125 -74.828125 12.265625 -75.015625 11.984375 -75.015625 L 6.328125 -75.015625 C 6.140625 -75.015625 5.953125 -74.828125 5.953125 -74.546875 C 5.953125 -74.265625 6.140625 -74.078125 6.328125 -74.078125 C 7.0625 -74.078125 7.71875 -73.53125 7.71875 -72.78125 L 7.71875 -1.765625 C 7.71875 -1.015625 7.0625 -0.375 6.328125 -0.375 C 6.140625 -0.375 5.953125 -0.1875 5.953125 0.09375 C 5.953125 0.28125 6.140625 0.46875 6.328125 0.46875 L 11.984375 0.46875 C 12.265625 0.46875 12.453125 0.28125 12.453125 0.09375 C 12.453125 -0.1875 12.265625 -0.375 11.984375 -0.375 C 11.25 -0.375 10.6875 -1.015625 10.6875 -1.765625 L 10.6875 -22.21875 C 32.90625 -27.234375 47.875 -36.0625 51.59375 -45.921875 L 51.59375 -1.765625 C 51.59375 -1.015625 50.9375 -0.375 50.28125 -0.375 C 50.015625 -0.375 49.828125 -0.1875 49.828125 0.09375 C 49.828125 0.28125 50.015625 0.46875 50.28125 0.46875 L 55.859375 0.46875 C 56.140625 0.46875 56.328125 0.28125 56.328125 0.09375 C 56.328125 -0.1875 56.140625 -0.375 55.859375 -0.375 C 55.125 -0.375 54.5625 -1.015625 54.5625 -1.765625 L 54.5625 -72.78125 C 54.5625 -73.53125 55.125 -74.078125 55.859375 -74.078125 Z M 55.859375 -74.078125 "/></g></g></g><g fill="#000000" fill-opacity="1"><g transform="translate(180.13656, 253.16067)"><g><path d="M 6.328125 -0.375 C 6.140625 -0.375 5.953125 -0.1875 5.953125 0.09375 C 5.953125 0.28125 6.140625 0.46875 6.328125 0.46875 L 11.984375 0.46875 C 12.265625 0.46875 12.453125 0.28125 12.453125 0.09375 C 12.453125 -0.1875 12.265625 -0.375 11.984375 -0.375 C 11.25 -0.375 10.6875 -1.015625 10.6875 -1.765625 L 10.6875 -36.8125 L 21.46875 -36.8125 C 26.484375 -36.8125 31.234375 -34.015625 33.734375 -29.65625 L 47.40625 -5.953125 C 49.640625 -2.140625 53.640625 0.28125 58 0.46875 C 58 0.46875 58 0.46875 58.09375 0.46875 C 58.28125 0.46875 58.46875 0.28125 58.46875 0.09375 C 58.5625 -0.1875 58.375 -0.375 58.09375 -0.46875 C 55.5 -0.65625 53.078125 -2.140625 51.875 -4.375 L 38.203125 -28.078125 C 35.78125 -32.25 31.796875 -35.328125 27.328125 -36.8125 L 31.328125 -36.8125 C 41.828125 -36.8125 50.375 -45.359375 50.375 -55.859375 C 50.375 -66.46875 41.828125 -75.015625 31.328125 -75.015625 L 6.328125 -75.015625 C 6.140625 -75.015625 5.953125 -74.828125 5.953125 -74.546875 C 5.953125 -74.265625 6.140625 -74.078125 6.328125 -74.078125 C 7.0625 -74.078125 7.71875 -73.53125 7.71875 -72.78125 L 7.71875 -1.765625 C 7.71875 -1.015625 7.0625 -0.375 6.328125 -0.375 Z M 10.6875 -37.734375 L 10.6875 -74.078125 L 30.109375 -74.078125 C 39.5 -74.078125 47.125 -65.90625 47.125 -55.859375 C 47.125 -45.828125 39.5 -37.734375 30.109375 -37.734375 Z M 10.6875 -37.734375 "/></g></g></g><g fill="#000000" fill-opacity="1"><g transform="translate(135.280644, 225.63427)"><g><path d="M 39.75 -39.296875 C 39.453125 -39.375 39.21875 -39.375 38.921875 -39.375 C 38.46875 -39.453125 37.953125 -39.453125 37.28125 -39.453125 C 35.09375 -39.453125 33 -39.15625 31.046875 -38.46875 C 31.046875 -38.46875 30.96875 -38.46875 30.96875 -38.46875 C 26.40625 -36.90625 23.09375 -33.96875 21.75 -30.453125 C 14.25 -30.53125 8.171875 -37.125 8.171875 -45.296875 C 8.171875 -53.546875 14.328125 -60.21875 21.828125 -60.21875 C 21.90625 -60.21875 21.90625 -60.21875 21.90625 -60.21875 C 22.203125 -60.21875 22.5 -60.21875 22.796875 -60.21875 C 25.203125 -60.21875 27.53125 -59.921875 29.703125 -59.171875 C 38.25 -56.25 39.296875 -50.703125 38.703125 -46.578125 C 38.703125 -46.5 38.703125 -46.34375 38.78125 -46.28125 C 38.84375 -46.203125 38.921875 -46.203125 39.078125 -46.203125 L 41.09375 -46.203125 C 41.328125 -46.203125 41.46875 -46.34375 41.46875 -46.578125 C 41.46875 -52.421875 36.96875 -57.671875 29.921875 -59.921875 C 27.671875 -60.59375 25.28125 -60.96875 22.796875 -60.96875 C 22.5 -60.96875 22.203125 -60.96875 21.96875 -60.96875 C 21.90625 -60.96875 21.90625 -60.96875 21.90625 -60.96875 L 20.921875 -60.96875 C 12.453125 -60.96875 5.546875 -54 5.546875 -45.296875 C 5.546875 -37.875 10.71875 -31.578125 17.625 -30.078125 C 10.71875 -28.5 5.546875 -22.28125 5.546875 -14.78125 C 5.546875 -6.15625 12.453125 0.90625 20.921875 0.90625 L 21.90625 0.90625 C 21.96875 0.90625 22.046875 0.90625 22.203125 0.90625 C 22.28125 0.90625 22.34375 0.90625 22.5 0.90625 L 22.953125 0.90625 C 25.421875 0.90625 27.75 0.53125 29.921875 -0.21875 C 29.921875 -0.21875 30 -0.21875 30 -0.21875 C 36.96875 -2.46875 41.46875 -7.71875 41.46875 -13.578125 L 47.03125 -16.796875 C 51.15625 -19.203125 53.546875 -22.953125 53.546875 -26.921875 C 53.546875 -33.15625 47.625 -38.40625 39.75 -39.296875 Z M 29.703125 -0.90625 C 27.75 -0.296875 25.65625 0.078125 23.46875 0.15625 C 24.21875 -2.328125 26.03125 -4.578125 28.71875 -6.15625 L 38.84375 -12.078125 C 39 -8.171875 37.28125 -3.53125 29.703125 -0.90625 Z M 46.046875 -19.046875 L 27.75 -8.40625 C 24.15625 -6.296875 21.90625 -3.21875 21.375 0.15625 C 14.03125 -0.21875 8.171875 -6.828125 8.171875 -14.78125 C 8.171875 -22.875 14.09375 -29.40625 21.53125 -29.625 C 21.21875 -28.71875 21.078125 -27.828125 21.078125 -26.84375 C 21.078125 -26.625 21.296875 -26.46875 21.453125 -26.46875 L 23.25 -26.46875 C 23.328125 -26.46875 23.46875 -26.546875 23.46875 -26.625 C 23.546875 -26.703125 23.625 -26.78125 23.625 -26.921875 C 23.03125 -30.453125 23.921875 -35.171875 31.203125 -37.71875 C 31.203125 -37.796875 31.28125 -37.796875 31.28125 -37.796875 C 33.15625 -38.40625 35.171875 -38.703125 37.28125 -38.703125 C 37.875 -38.703125 38.40625 -38.703125 38.84375 -38.703125 C 39.15625 -38.625 39.375 -38.625 39.671875 -38.625 C 46.65625 -37.71875 51.671875 -33.21875 51.671875 -27.828125 C 51.671875 -24.375 49.65625 -21.15625 46.046875 -19.046875 Z M 46.046875 -19.046875 "/></g></g></g><g fill="#000000" fill-opacity="1"><g transform="translate(107.78111, 307.163943)"><g><path d="M 7.421875 0 C 7.421875 0.03125 7.476562 0.0078125 7.59375 -0.0625 C 7.707031 -0.132812 7.804688 -0.265625 7.890625 -0.453125 C 7.984375 -0.640625 8.03125 -0.921875 8.03125 -1.296875 L 8.03125 -4.46875 L 2.796875 -4.46875 L 2.796875 -1.296875 C 2.796875 -0.921875 2.835938 -0.640625 2.921875 -0.453125 C 3.015625 -0.265625 3.117188 -0.132812 3.234375 -0.0625 C 3.347656 0 3.40625 0.0195312 3.40625 0 L 1.1875 0 C 1.1875 0.03125 1.238281 0.0078125 1.34375 -0.0625 C 1.457031 -0.132812 1.554688 -0.265625 1.640625 -0.453125 C 1.734375 -0.640625 1.78125 -0.921875 1.78125 -1.296875 L 1.78125 -8.296875 C 1.78125 -8.671875 1.734375 -8.953125 1.640625 -9.140625 C 1.554688 -9.335938 1.457031 -9.46875 1.34375 -9.53125 C 1.238281 -9.59375 1.1875 -9.613281 1.1875 -9.59375 L 3.40625 -9.59375 C 3.40625 -9.613281 3.347656 -9.59375 3.234375 -9.53125 C 3.117188 -9.46875 3.015625 -9.335938 2.921875 -9.140625 C 2.835938 -8.953125 2.796875 -8.671875 2.796875 -8.296875 L 2.796875 -5.078125 L 8.03125 -5.078125 L 8.03125 -8.296875 C 8.03125 -8.671875 7.984375 -8.953125 7.890625 -9.140625 C 7.804688 -9.335938 7.707031 -9.46875 7.59375 -9.53125 C 7.476562 -9.59375 7.421875 -9.613281 7.421875 -9.59375 L 9.640625 -9.59375 C 9.640625 -9.625 9.582031 -9.601562 9.46875 -9.53125 C 9.363281 -9.46875 9.265625 -9.335938 9.171875 -9.140625 C 9.085938 -8.953125 9.046875 -8.671875 9.046875 -8.296875 L 9.046875 -1.296875 C 9.046875 -0.921875 9.09375 -0.640625 9.1875 -0.453125 C 9.28125 -0.265625 9.378906 -0.132812 9.484375 -0.0625 C 9.597656 0 9.65625 0.0195312 9.65625 0 Z M 7.421875 0 "/></g></g></g><g fill="#000000" fill-opacity="1"><g transform="translate(120.835046, 307.163943)"><g><path d="M 2.9375 -3.71875 L 2.046875 -1.5 C 1.910156 -1.15625 1.84375 -0.875 1.84375 -0.65625 C 1.84375 -0.351562 1.984375 -0.132812 2.265625 0 L 0.265625 0 C 0.359375 0 0.492188 -0.09375 0.671875 -0.28125 C 0.847656 -0.46875 1.050781 -0.832031 1.28125 -1.375 L 4.921875 -10.046875 L 8.546875 -1.34375 C 8.742188 -0.84375 8.9375 -0.5 9.125 -0.3125 C 9.320312 -0.125 9.472656 -0.0195312 9.578125 0 L 7.265625 0 C 7.503906 -0.113281 7.625 -0.285156 7.625 -0.515625 C 7.625 -0.710938 7.546875 -0.992188 7.390625 -1.359375 L 6.421875 -3.71875 Z M 6.1875 -4.296875 L 4.671875 -8.015625 L 3.1875 -4.296875 Z M 6.1875 -4.296875 "/></g></g></g><g fill="#000000" fill-opacity="1"><g transform="translate(132.884978, 307.163943)"><g><path d="M 3.984375 -4.828125 C 4.410156 -4.828125 4.78125 -4.925781 5.09375 -5.125 C 5.414062 -5.320312 5.65625 -5.582031 5.8125 -5.90625 C 5.976562 -6.226562 6.0625 -6.566406 6.0625 -6.921875 C 6.0625 -7.285156 5.984375 -7.625 5.828125 -7.9375 C 5.679688 -8.257812 5.445312 -8.523438 5.125 -8.734375 C 4.8125 -8.941406 4.429688 -9.046875 3.984375 -9.046875 L 2.796875 -9.046875 L 2.796875 -1.28125 C 2.796875 -0.90625 2.835938 -0.625 2.921875 -0.4375 C 3.015625 -0.25 3.117188 -0.125 3.234375 -0.0625 C 3.347656 0 3.40625 0.0195312 3.40625 0 L 1.1875 0 C 1.1875 0.0195312 1.238281 0 1.34375 -0.0625 C 1.457031 -0.132812 1.554688 -0.257812 1.640625 -0.4375 C 1.734375 -0.625 1.78125 -0.90625 1.78125 -1.28125 L 1.78125 -8.265625 C 1.78125 -8.640625 1.734375 -8.925781 1.640625 -9.125 C 1.554688 -9.332031 1.457031 -9.46875 1.34375 -9.53125 C 1.238281 -9.601562 1.1875 -9.625 1.1875 -9.59375 L 3.953125 -9.59375 C 4.671875 -9.59375 5.265625 -9.472656 5.734375 -9.234375 C 6.210938 -9.003906 6.554688 -8.703125 6.765625 -8.328125 C 6.972656 -7.953125 7.078125 -7.539062 7.078125 -7.09375 C 7.078125 -6.71875 6.988281 -6.347656 6.8125 -5.984375 C 6.632812 -5.628906 6.378906 -5.316406 6.046875 -5.046875 C 5.710938 -4.785156 5.328125 -4.601562 4.890625 -4.5 L 4.671875 -4.46875 L 7.125 -1.34375 C 7.457031 -0.976562 7.726562 -0.695312 7.9375 -0.5 C 8.15625 -0.300781 8.3125 -0.171875 8.40625 -0.109375 C 8.5 -0.046875 8.554688 -0.0078125 8.578125 0 L 6.953125 0 L 3.15625 -4.828125 Z M 3.984375 -4.828125 "/></g></g></g><g fill="#000000" fill-opacity="1"><g transform="translate(143.986674, 307.163943)"><g><path d="M 7.203125 -7 C 7.203125 -6.457031 7.070312 -5.972656 6.8125 -5.546875 C 6.5625 -5.128906 6.195312 -4.800781 5.71875 -4.5625 C 5.25 -4.320312 4.691406 -4.203125 4.046875 -4.203125 C 3.648438 -4.203125 3.234375 -4.242188 2.796875 -4.328125 L 2.796875 -1.28125 C 2.796875 -0.914062 2.835938 -0.640625 2.921875 -0.453125 C 3.015625 -0.265625 3.117188 -0.132812 3.234375 -0.0625 C 3.347656 0 3.40625 0.0195312 3.40625 0 L 1.1875 0 C 1.1875 0.0195312 1.238281 0 1.34375 -0.0625 C 1.457031 -0.132812 1.554688 -0.257812 1.640625 -0.4375 C 1.734375 -0.625 1.78125 -0.90625 1.78125 -1.28125 L 1.78125 -8.28125 C 1.78125 -8.644531 1.734375 -8.925781 1.640625 -9.125 C 1.554688 -9.320312 1.457031 -9.453125 1.34375 -9.515625 C 1.238281 -9.585938 1.1875 -9.613281 1.1875 -9.59375 L 3.921875 -9.59375 C 4.390625 -9.59375 4.773438 -9.5625 5.078125 -9.5 C 5.390625 -9.445312 5.664062 -9.359375 5.90625 -9.234375 C 6.320312 -9.023438 6.640625 -8.71875 6.859375 -8.3125 C 7.085938 -7.90625 7.203125 -7.46875 7.203125 -7 Z M 6.125 -6.828125 C 6.125 -7.484375 5.914062 -8.015625 5.5 -8.421875 C 5.09375 -8.835938 4.550781 -9.046875 3.875 -9.046875 L 2.796875 -9.046875 L 2.796875 -4.875 C 3.191406 -4.800781 3.609375 -4.765625 4.046875 -4.765625 C 4.691406 -4.765625 5.195312 -4.953125 5.5625 -5.328125 C 5.9375 -5.703125 6.125 -6.203125 6.125 -6.828125 Z M 6.125 -6.828125 "/></g></g></g><g fill="#000000" fill-opacity="1"><g transform="translate(154.084359, 307.163943)"><g><path d="M 1.1875 0 C 1.1875 0.03125 1.238281 0.0078125 1.34375 -0.0625 C 1.457031 -0.132812 1.554688 -0.273438 1.640625 -0.484375 C 1.734375 -0.691406 1.78125 -0.992188 1.78125 -1.390625 L 1.78125 -8.25 C 1.78125 -8.625 1.734375 -8.910156 1.640625 -9.109375 C 1.554688 -9.316406 1.457031 -9.457031 1.34375 -9.53125 C 1.238281 -9.601562 1.1875 -9.625 1.1875 -9.59375 L 6.234375 -9.59375 L 6.234375 -8.203125 C 6.066406 -8.765625 5.566406 -9.046875 4.734375 -9.046875 L 2.796875 -9.046875 L 2.796875 -5.078125 L 5.1875 -5.078125 C 5.375 -5.078125 5.53125 -5.109375 5.65625 -5.171875 C 5.789062 -5.234375 5.890625 -5.296875 5.953125 -5.359375 C 6.023438 -5.421875 6.0625 -5.460938 6.0625 -5.484375 L 6.0625 -4.125 C 6.0625 -4.144531 6.023438 -4.1875 5.953125 -4.25 C 5.890625 -4.320312 5.796875 -4.382812 5.671875 -4.4375 C 5.546875 -4.488281 5.390625 -4.515625 5.203125 -4.515625 L 2.796875 -4.515625 L 2.796875 -0.5625 L 4.96875 -0.5625 C 5.382812 -0.5625 5.742188 -0.644531 6.046875 -0.8125 C 6.347656 -0.988281 6.566406 -1.210938 6.703125 -1.484375 L 6.453125 0 Z M 1.1875 0 "/></g></g></g><g fill="#000000" fill-opacity="1"><g transform="translate(163.903156, 307.163943)"><g><path d="M 3.984375 -4.828125 C 4.410156 -4.828125 4.78125 -4.925781 5.09375 -5.125 C 5.414062 -5.320312 5.65625 -5.582031 5.8125 -5.90625 C 5.976562 -6.226562 6.0625 -6.566406 6.0625 -6.921875 C 6.0625 -7.285156 5.984375 -7.625 5.828125 -7.9375 C 5.679688 -8.257812 5.445312 -8.523438 5.125 -8.734375 C 4.8125 -8.941406 4.429688 -9.046875 3.984375 -9.046875 L 2.796875 -9.046875 L 2.796875 -1.28125 C 2.796875 -0.90625 2.835938 -0.625 2.921875 -0.4375 C 3.015625 -0.25 3.117188 -0.125 3.234375 -0.0625 C 3.347656 0 3.40625 0.0195312 3.40625 0 L 1.1875 0 C 1.1875 0.0195312 1.238281 0 1.34375 -0.0625 C 1.457031 -0.132812 1.554688 -0.257812 1.640625 -0.4375 C 1.734375 -0.625 1.78125 -0.90625 1.78125 -1.28125 L 1.78125 -8.265625 C 1.78125 -8.640625 1.734375 -8.925781 1.640625 -9.125 C 1.554688 -9.332031 1.457031 -9.46875 1.34375 -9.53125 C 1.238281 -9.601562 1.1875 -9.625 1.1875 -9.59375 L 3.953125 -9.59375 C 4.671875 -9.59375 5.265625 -9.472656 5.734375 -9.234375 C 6.210938 -9.003906 6.554688 -8.703125 6.765625 -8.328125 C 6.972656 -7.953125 7.078125 -7.539062 7.078125 -7.09375 C 7.078125 -6.71875 6.988281 -6.347656 6.8125 -5.984375 C 6.632812 -5.628906 6.378906 -5.316406 6.046875 -5.046875 C 5.710938 -4.785156 5.328125 -4.601562 4.890625 -4.5 L 4.671875 -4.46875 L 7.125 -1.34375 C 7.457031 -0.976562 7.726562 -0.695312 7.9375 -0.5 C 8.15625 -0.300781 8.3125 -0.171875 8.40625 -0.109375 C 8.5 -0.046875 8.554688 -0.0078125 8.578125 0 L 6.953125 0 L 3.15625 -4.828125 Z M 3.984375 -4.828125 "/></g></g></g><g fill="#000000" fill-opacity="1"><g transform="translate(175.004855, 307.163943)"><g/></g></g><g fill="#000000" fill-opacity="1"><g transform="translate(181.030715, 307.163943)"><g><path d="M 9.59375 -0.4375 C 9.351562 -0.03125 9.050781 0.171875 8.6875 0.171875 C 8.414062 0.171875 8.082031 0.0507812 7.6875 -0.1875 C 7.300781 -0.4375 6.820312 -0.796875 6.25 -1.265625 C 5.3125 -0.304688 4.390625 0.171875 3.484375 0.171875 C 2.628906 0.171875 1.960938 -0.0546875 1.484375 -0.515625 C 1.015625 -0.972656 0.78125 -1.566406 0.78125 -2.296875 C 0.78125 -2.890625 0.945312 -3.382812 1.28125 -3.78125 C 1.625 -4.175781 2.128906 -4.585938 2.796875 -5.015625 C 2.046875 -5.972656 1.671875 -6.8125 1.671875 -7.53125 C 1.671875 -8.019531 1.78125 -8.429688 2 -8.765625 C 2.21875 -9.097656 2.503906 -9.347656 2.859375 -9.515625 C 3.210938 -9.679688 3.585938 -9.765625 3.984375 -9.765625 C 4.359375 -9.765625 4.710938 -9.691406 5.046875 -9.546875 C 5.378906 -9.398438 5.644531 -9.1875 5.84375 -8.90625 C 6.039062 -8.625 6.140625 -8.289062 6.140625 -7.90625 C 6.140625 -7.375 5.945312 -6.898438 5.5625 -6.484375 C 5.1875 -6.066406 4.644531 -5.625 3.9375 -5.15625 C 4.789062 -4.09375 5.628906 -3.175781 6.453125 -2.40625 C 6.828125 -3 7.117188 -3.515625 7.328125 -3.953125 C 7.546875 -4.398438 7.65625 -4.800781 7.65625 -5.15625 C 7.65625 -5.5 7.546875 -5.78125 7.328125 -6 L 9.140625 -6 C 8.921875 -5.78125 8.601562 -5.203125 8.1875 -4.265625 C 7.90625 -3.609375 7.46875 -2.875 6.875 -2.0625 C 6.9375 -2.03125 7.019531 -1.96875 7.125 -1.875 C 7.59375 -1.5 8 -1.203125 8.34375 -0.984375 C 8.695312 -0.773438 9.03125 -0.671875 9.34375 -0.671875 C 9.4375 -0.671875 9.597656 -0.738281 9.828125 -0.875 C 9.765625 -0.71875 9.6875 -0.570312 9.59375 -0.4375 Z M 3.890625 -9.328125 C 3.421875 -9.328125 3.078125 -9.1875 2.859375 -8.90625 C 2.640625 -8.632812 2.53125 -8.304688 2.53125 -7.921875 C 2.53125 -7.578125 2.640625 -7.1875 2.859375 -6.75 C 3.085938 -6.320312 3.351562 -5.914062 3.65625 -5.53125 C 4.226562 -5.882812 4.640625 -6.234375 4.890625 -6.578125 C 5.140625 -6.921875 5.265625 -7.316406 5.265625 -7.765625 C 5.265625 -8.285156 5.128906 -8.675781 4.859375 -8.9375 C 4.585938 -9.195312 4.265625 -9.328125 3.890625 -9.328125 Z M 3.09375 -4.625 C 2.625 -4.332031 2.269531 -4.023438 2.03125 -3.703125 C 1.789062 -3.390625 1.671875 -3.023438 1.671875 -2.609375 C 1.671875 -2.242188 1.765625 -1.898438 1.953125 -1.578125 C 2.148438 -1.253906 2.410156 -0.992188 2.734375 -0.796875 C 3.054688 -0.597656 3.40625 -0.5 3.78125 -0.5 C 4.175781 -0.5 4.519531 -0.585938 4.8125 -0.765625 C 5.101562 -0.953125 5.445312 -1.238281 5.84375 -1.625 C 5.375 -2.0625 4.894531 -2.546875 4.40625 -3.078125 C 3.914062 -3.617188 3.476562 -4.132812 3.09375 -4.625 Z M 3.09375 -4.625 "/></g></g></g><g fill="#000000" fill-opacity="1"><g transform="translate(193.5687, 307.163943)"><g/></g></g><g fill="#000000" fill-opacity="1"><g transform="translate(199.594555, 307.163943)"><g><path d="M 3.984375 -4.828125 C 4.410156 -4.828125 4.78125 -4.925781 5.09375 -5.125 C 5.414062 -5.320312 5.65625 -5.582031 5.8125 -5.90625 C 5.976562 -6.226562 6.0625 -6.566406 6.0625 -6.921875 C 6.0625 -7.285156 5.984375 -7.625 5.828125 -7.9375 C 5.679688 -8.257812 5.445312 -8.523438 5.125 -8.734375 C 4.8125 -8.941406 4.429688 -9.046875 3.984375 -9.046875 L 2.796875 -9.046875 L 2.796875 -1.28125 C 2.796875 -0.90625 2.835938 -0.625 2.921875 -0.4375 C 3.015625 -0.25 3.117188 -0.125 3.234375 -0.0625 C 3.347656 0 3.40625 0.0195312 3.40625 0 L 1.1875 0 C 1.1875 0.0195312 1.238281 0 1.34375 -0.0625 C 1.457031 -0.132812 1.554688 -0.257812 1.640625 -0.4375 C 1.734375 -0.625 1.78125 -0.90625 1.78125 -1.28125 L 1.78125 -8.265625 C 1.78125 -8.640625 1.734375 -8.925781 1.640625 -9.125 C 1.554688 -9.332031 1.457031 -9.46875 1.34375 -9.53125 C 1.238281 -9.601562 1.1875 -9.625 1.1875 -9.59375 L 3.953125 -9.59375 C 4.671875 -9.59375 5.265625 -9.472656 5.734375 -9.234375 C 6.210938 -9.003906 6.554688 -8.703125 6.765625 -8.328125 C 6.972656 -7.953125 7.078125 -7.539062 7.078125 -7.09375 C 7.078125 -6.71875 6.988281 -6.347656 6.8125 -5.984375 C 6.632812 -5.628906 6.378906 -5.316406 6.046875 -5.046875 C 5.710938 -4.785156 5.328125 -4.601562 4.890625 -4.5 L 4.671875 -4.46875 L 7.125 -1.34375 C 7.457031 -0.976562 7.726562 -0.695312 7.9375 -0.5 C 8.15625 -0.300781 8.3125 -0.171875 8.40625 -0.109375 C 8.5 -0.046875 8.554688 -0.0078125 8.578125 0 L 6.953125 0 L 3.15625 -4.828125 Z M 3.984375 -4.828125 "/></g></g></g><g fill="#000000" fill-opacity="1"><g transform="translate(210.696248, 307.163943)"><g><path d="M 7.421875 0 C 7.421875 0.03125 7.476562 0.0078125 7.59375 -0.0625 C 7.707031 -0.132812 7.804688 -0.265625 7.890625 -0.453125 C 7.984375 -0.640625 8.03125 -0.921875 8.03125 -1.296875 L 8.03125 -4.46875 L 2.796875 -4.46875 L 2.796875 -1.296875 C 2.796875 -0.921875 2.835938 -0.640625 2.921875 -0.453125 C 3.015625 -0.265625 3.117188 -0.132812 3.234375 -0.0625 C 3.347656 0 3.40625 0.0195312 3.40625 0 L 1.1875 0 C 1.1875 0.03125 1.238281 0.0078125 1.34375 -0.0625 C 1.457031 -0.132812 1.554688 -0.265625 1.640625 -0.453125 C 1.734375 -0.640625 1.78125 -0.921875 1.78125 -1.296875 L 1.78125 -8.296875 C 1.78125 -8.671875 1.734375 -8.953125 1.640625 -9.140625 C 1.554688 -9.335938 1.457031 -9.46875 1.34375 -9.53125 C 1.238281 -9.59375 1.1875 -9.613281 1.1875 -9.59375 L 3.40625 -9.59375 C 3.40625 -9.613281 3.347656 -9.59375 3.234375 -9.53125 C 3.117188 -9.46875 3.015625 -9.335938 2.921875 -9.140625 C 2.835938 -8.953125 2.796875 -8.671875 2.796875 -8.296875 L 2.796875 -5.078125 L 8.03125 -5.078125 L 8.03125 -8.296875 C 8.03125 -8.671875 7.984375 -8.953125 7.890625 -9.140625 C 7.804688 -9.335938 7.707031 -9.46875 7.59375 -9.53125 C 7.476562 -9.59375 7.421875 -9.613281 7.421875 -9.59375 L 9.640625 -9.59375 C 9.640625 -9.625 9.582031 -9.601562 9.46875 -9.53125 C 9.363281 -9.46875 9.265625 -9.335938 9.171875 -9.140625 C 9.085938 -8.953125 9.046875 -8.671875 9.046875 -8.296875 L 9.046875 -1.296875 C 9.046875 -0.921875 9.09375 -0.640625 9.1875 -0.453125 C 9.28125 -0.265625 9.378906 -0.132812 9.484375 -0.0625 C 9.597656 0 9.65625 0.0195312 9.65625 0 Z M 7.421875 0 "/></g></g></g><g fill="#000000" fill-opacity="1"><g transform="translate(223.75018, 307.163943)"><g><path d="M 1.1875 0 C 1.1875 0.03125 1.238281 0.0078125 1.34375 -0.0625 C 1.457031 -0.132812 1.554688 -0.273438 1.640625 -0.484375 C 1.734375 -0.691406 1.78125 -0.992188 1.78125 -1.390625 L 1.78125 -8.25 C 1.78125 -8.625 1.734375 -8.910156 1.640625 -9.109375 C 1.554688 -9.316406 1.457031 -9.457031 1.34375 -9.53125 C 1.238281 -9.601562 1.1875 -9.625 1.1875 -9.59375 L 6.234375 -9.59375 L 6.234375 -8.203125 C 6.066406 -8.765625 5.566406 -9.046875 4.734375 -9.046875 L 2.796875 -9.046875 L 2.796875 -5.078125 L 5.1875 -5.078125 C 5.375 -5.078125 5.53125 -5.109375 5.65625 -5.171875 C 5.789062 -5.234375 5.890625 -5.296875 5.953125 -5.359375 C 6.023438 -5.421875 6.0625 -5.460938 6.0625 -5.484375 L 6.0625 -4.125 C 6.0625 -4.144531 6.023438 -4.1875 5.953125 -4.25 C 5.890625 -4.320312 5.796875 -4.382812 5.671875 -4.4375 C 5.546875 -4.488281 5.390625 -4.515625 5.203125 -4.515625 L 2.796875 -4.515625 L 2.796875 -0.5625 L 4.96875 -0.5625 C 5.382812 -0.5625 5.742188 -0.644531 6.046875 -0.8125 C 6.347656 -0.988281 6.566406 -1.210938 6.703125 -1.484375 L 6.453125 0 Z M 1.1875 0 "/></g></g></g><g fill="#000000" fill-opacity="1"><g transform="translate(233.568972, 307.163943)"><g><path d="M 5.84375 0.15625 C 4.957031 0.15625 4.140625 -0.03125 3.390625 -0.40625 C 2.640625 -0.78125 2.035156 -1.335938 1.578125 -2.078125 C 1.117188 -2.816406 0.890625 -3.722656 0.890625 -4.796875 C 0.890625 -5.742188 1.101562 -6.59375 1.53125 -7.34375 C 1.96875 -8.101562 2.578125 -8.695312 3.359375 -9.125 C 4.148438 -9.550781 5.054688 -9.765625 6.078125 -9.765625 C 6.734375 -9.765625 7.320312 -9.691406 7.84375 -9.546875 C 8.375 -9.398438 8.789062 -9.238281 9.09375 -9.0625 L 9.09375 -7.5 C 8.8125 -8.007812 8.382812 -8.414062 7.8125 -8.71875 C 7.238281 -9.03125 6.65625 -9.1875 6.0625 -9.1875 C 5.226562 -9.1875 4.503906 -9.007812 3.890625 -8.65625 C 3.285156 -8.3125 2.820312 -7.816406 2.5 -7.171875 C 2.175781 -6.523438 2.015625 -5.769531 2.015625 -4.90625 C 2.015625 -3.96875 2.203125 -3.164062 2.578125 -2.5 C 2.953125 -1.832031 3.453125 -1.328125 4.078125 -0.984375 C 4.703125 -0.648438 5.378906 -0.484375 6.109375 -0.484375 C 6.441406 -0.484375 6.785156 -0.519531 7.140625 -0.59375 C 7.503906 -0.675781 7.84375 -0.796875 8.15625 -0.953125 L 8.15625 -3.25 C 8.15625 -3.539062 8.109375 -3.765625 8.015625 -3.921875 C 7.921875 -4.085938 7.816406 -4.203125 7.703125 -4.265625 C 7.585938 -4.335938 7.53125 -4.367188 7.53125 -4.359375 L 9.765625 -4.359375 C 9.765625 -4.367188 9.707031 -4.347656 9.59375 -4.296875 C 9.488281 -4.242188 9.390625 -4.140625 9.296875 -3.984375 C 9.203125 -3.828125 9.15625 -3.609375 9.15625 -3.328125 L 9.15625 -0.796875 C 8.65625 -0.484375 8.117188 -0.242188 7.546875 -0.078125 C 6.984375 0.078125 6.414062 0.15625 5.84375 0.15625 Z M 5.84375 0.15625 "/></g></g></g><g fill="#000000" fill-opacity="1"><g transform="translate(246.511355, 307.163943)"><g><path d="M 2.9375 -3.71875 L 2.046875 -1.5 C 1.910156 -1.15625 1.84375 -0.875 1.84375 -0.65625 C 1.84375 -0.351562 1.984375 -0.132812 2.265625 0 L 0.265625 0 C 0.359375 0 0.492188 -0.09375 0.671875 -0.28125 C 0.847656 -0.46875 1.050781 -0.832031 1.28125 -1.375 L 4.921875 -10.046875 L 8.546875 -1.34375 C 8.742188 -0.84375 8.9375 -0.5 9.125 -0.3125 C 9.320312 -0.125 9.472656 -0.0195312 9.578125 0 L 7.265625 0 C 7.503906 -0.113281 7.625 -0.285156 7.625 -0.515625 C 7.625 -0.710938 7.546875 -0.992188 7.390625 -1.359375 L 6.421875 -3.71875 Z M 6.1875 -4.296875 L 4.671875 -8.015625 L 3.1875 -4.296875 Z M 6.1875 -4.296875 "/></g></g></g><g fill="#000000" fill-opacity="1"><g transform="translate(258.561283, 307.163943)"><g><path d="M 3.984375 -4.828125 C 4.410156 -4.828125 4.78125 -4.925781 5.09375 -5.125 C 5.414062 -5.320312 5.65625 -5.582031 5.8125 -5.90625 C 5.976562 -6.226562 6.0625 -6.566406 6.0625 -6.921875 C 6.0625 -7.285156 5.984375 -7.625 5.828125 -7.9375 C 5.679688 -8.257812 5.445312 -8.523438 5.125 -8.734375 C 4.8125 -8.941406 4.429688 -9.046875 3.984375 -9.046875 L 2.796875 -9.046875 L 2.796875 -1.28125 C 2.796875 -0.90625 2.835938 -0.625 2.921875 -0.4375 C 3.015625 -0.25 3.117188 -0.125 3.234375 -0.0625 C 3.347656 0 3.40625 0.0195312 3.40625 0 L 1.1875 0 C 1.1875 0.0195312 1.238281 0 1.34375 -0.0625 C 1.457031 -0.132812 1.554688 -0.257812 1.640625 -0.4375 C 1.734375 -0.625 1.78125 -0.90625 1.78125 -1.28125 L 1.78125 -8.265625 C 1.78125 -8.640625 1.734375 -8.925781 1.640625 -9.125 C 1.554688 -9.332031 1.457031 -9.46875 1.34375 -9.53125 C 1.238281 -9.601562 1.1875 -9.625 1.1875 -9.59375 L 3.953125 -9.59375 C 4.671875 -9.59375 5.265625 -9.472656 5.734375 -9.234375 C 6.210938 -9.003906 6.554688 -8.703125 6.765625 -8.328125 C 6.972656 -7.953125 7.078125 -7.539062 7.078125 -7.09375 C 7.078125 -6.71875 6.988281 -6.347656 6.8125 -5.984375 C 6.632812 -5.628906 6.378906 -5.316406 6.046875 -5.046875 C 5.710938 -4.785156 5.328125 -4.601562 4.890625 -4.5 L 4.671875 -4.46875 L 7.125 -1.34375 C 7.457031 -0.976562 7.726562 -0.695312 7.9375 -0.5 C 8.15625 -0.300781 8.3125 -0.171875 8.40625 -0.109375 C 8.5 -0.046875 8.554688 -0.0078125 8.578125 0 L 6.953125 0 L 3.15625 -4.828125 Z M 3.984375 -4.828125 "/></g></g></g></svg>