<svg xmlns="http://www.w3.org/2000/svg" xmlns:xlink="http://www.w3.org/1999/xlink" width="500" zoomAndPan="magnify" viewBox="0 0 375 374.999991" height="500" preserveAspectRatio="xMidYMid meet" version="1.0"><defs><g/><clipPath id="fb5aea2571"><path d="M 139.6875 112.5 L 235.6875 112.5 L 235.6875 262.5 L 139.6875 262.5 Z M 139.6875 112.5 " clip-rule="nonzero"/></clipPath><clipPath id="5874228abc"><path d="M 151.6875 124.5 L 247.6875 124.5 L 247.6875 274.5 L 151.6875 274.5 Z M 151.6875 124.5 " clip-rule="nonzero"/></clipPath><clipPath id="e3b1e8f86b"><path d="M 126.34375 112.5 L 248.59375 112.5 L 248.59375 262.5 L 126.34375 262.5 Z M 126.34375 112.5 " clip-rule="nonzero"/></clipPath><clipPath id="4c903e07e1"><path d="M 98 78.347656 L 269.585938 78.347656 L 269.585938 289.097656 L 98 289.097656 Z M 98 78.347656 " clip-rule="nonzero"/></clipPath></defs><rect x="-37.5" width="450" fill="#ffffff" y="-37.499999" height="449.999989" fill-opacity="1"/><rect x="-37.5" width="450" fill="#000000" y="-37.499999" height="449.999989" fill-opacity="1"/><g clip-path="url(#fb5aea2571)"><path fill="#000000" d="M 139.671875 160.546875 L 139.671875 261.601562 C 139.671875 261.984375 139.984375 262.292969 140.367188 262.292969 L 234.972656 262.292969 C 235.355469 262.292969 235.667969 261.984375 235.667969 261.601562 L 235.667969 160.546875 C 235.667969 134.160156 214.160156 112.738281 187.671875 112.738281 C 161.179688 112.738281 139.671875 134.160156 139.671875 160.546875 Z M 141.0625 160.546875 C 141.0625 134.925781 161.949219 114.125 187.671875 114.125 C 213.394531 114.125 234.28125 134.925781 234.28125 160.546875 L 234.28125 260.910156 C 234.28125 260.910156 149.617188 260.910156 141.0625 260.910156 L 141.0625 160.546875 " fill-opacity="1" fill-rule="evenodd"/></g><g clip-path="url(#5874228abc)"><path fill="#000000" d="M 151.671875 172.546875 L 151.671875 273.601562 C 151.671875 273.984375 151.984375 274.292969 152.367188 274.292969 L 246.972656 274.292969 C 247.355469 274.292969 247.667969 273.984375 247.667969 273.601562 L 247.667969 172.546875 C 247.667969 146.160156 226.160156 124.738281 199.671875 124.738281 C 173.179688 124.738281 151.671875 146.160156 151.671875 172.546875 Z M 153.0625 172.546875 C 153.0625 146.925781 173.949219 126.125 199.671875 126.125 C 225.394531 126.125 246.28125 146.925781 246.28125 172.546875 L 246.28125 272.910156 C 246.28125 272.910156 161.617188 272.910156 153.0625 272.910156 L 153.0625 172.546875 " fill-opacity="1" fill-rule="evenodd"/></g><g clip-path="url(#e3b1e8f86b)"><path fill="#000000" d="M 248.613281 167.742188 C 248.613281 167.679688 248.589844 167.625 248.539062 167.585938 C 248.492188 167.542969 248.4375 167.527344 248.375 167.535156 C 248.328125 167.527344 248.28125 167.535156 248.238281 167.558594 C 247.746094 167.851562 247.292969 168.195312 246.875 168.589844 C 246.101562 169.25 245.464844 170.023438 244.960938 170.90625 C 244.429688 171.867188 243.980469 172.859375 243.613281 173.894531 C 243.328125 174.652344 243.097656 175.609375 242.578125 176.28125 C 242.648438 175.625 242.71875 174.917969 242.785156 174.265625 C 242.828125 173.804688 242.851562 173.359375 242.859375 172.945312 C 242.917969 172.136719 242.890625 171.328125 242.785156 170.523438 C 242.785156 170.519531 242.78125 170.507812 242.78125 170.5 L 242.777344 170.5 L 242.785156 170.492188 C 243.394531 169.4375 243.996094 168.378906 244.585938 167.316406 C 245.183594 166.320312 245.71875 165.292969 246.183594 164.230469 C 246.917969 162.375 246.941406 160.433594 246.617188 158.484375 C 246.589844 158.394531 246.53125 158.335938 246.4375 158.3125 C 246.34375 158.289062 246.265625 158.3125 246.195312 158.378906 C 245.085938 159.75 244.039062 161.066406 243.433594 162.75 C 243.242188 163.289062 243.078125 163.839844 242.945312 164.394531 C 242.796875 165 242.691406 165.613281 242.621094 166.230469 C 242.578125 166.617188 242.550781 167.003906 242.523438 167.394531 C 242.523438 165.074219 242.375 162.765625 242.082031 160.464844 C 242.242188 160.367188 242.402344 160.269531 242.558594 160.167969 C 242.730469 160.058594 242.902344 159.949219 243.066406 159.832031 C 243.503906 159.535156 243.917969 159.214844 244.316406 158.867188 C 245.765625 157.601562 246.960938 156.085938 248.148438 154.578125 C 248.21875 154.496094 248.234375 154.40625 248.191406 154.308594 C 248.152344 154.210938 248.078125 154.15625 247.96875 154.152344 C 246.152344 154.132812 244.535156 154.957031 243.167969 156.078125 C 242.996094 156.222656 242.824219 156.371094 242.65625 156.523438 C 242.570312 156.597656 242.484375 156.675781 242.402344 156.757812 C 242.148438 157.003906 241.886719 157.257812 241.625 157.523438 C 241.371094 156.136719 241.0625 154.769531 240.703125 153.421875 C 241.019531 152.96875 241.25 152.480469 241.015625 151.976562 C 241.582031 151.230469 242.203125 150.519531 242.835938 149.824219 L 243.351562 149.265625 C 243.644531 148.949219 243.941406 148.632812 244.234375 148.320312 C 245.140625 147.355469 246.097656 146.390625 246.761719 145.234375 C 247.34375 144.230469 247.816406 142.808594 247.238281 141.695312 C 247.09375 141.40625 246.875 141.191406 246.585938 141.050781 C 246.300781 140.90625 245.996094 140.859375 245.679688 140.917969 C 245.09375 141.042969 244.625 141.347656 244.269531 141.832031 C 244.089844 141.402344 243.859375 141.003906 243.582031 140.628906 C 243.4375 140.4375 243.277344 140.261719 243.097656 140.105469 C 242.710938 139.757812 242.261719 139.558594 241.746094 139.503906 C 240.472656 139.371094 239.539062 140.363281 238.972656 141.414062 C 238.476562 140.710938 237.792969 140.035156 236.859375 140.265625 C 236.605469 140.332031 236.390625 140.464844 236.21875 140.664062 C 236.042969 140.859375 235.941406 141.089844 235.902344 141.351562 C 234.734375 139.191406 233.425781 137.125 231.976562 135.144531 C 230.53125 133.164062 228.957031 131.285156 227.257812 129.515625 C 225.558594 127.746094 223.75 126.101562 221.828125 124.574219 C 219.90625 123.046875 217.894531 121.65625 215.785156 120.398438 C 213.679688 119.144531 211.496094 118.035156 209.242188 117.074219 C 206.984375 116.109375 204.675781 115.304688 202.308594 114.652344 C 199.945312 114 197.546875 113.507812 195.117188 113.175781 C 192.6875 112.847656 190.246094 112.683594 187.792969 112.679688 C 157.609375 112.679688 133.054688 137.246094 133.054688 167.441406 L 133.054688 220.421875 C 132.917969 220.308594 132.773438 220.207031 132.625 220.109375 C 132.394531 219.957031 132.144531 219.867188 131.871094 219.832031 C 130.996094 219.746094 130.328125 220.472656 130.0625 221.238281 L 129.898438 221.714844 C 129.71875 222.328125 129.644531 222.953125 129.675781 223.589844 C 129.183594 222.992188 128.59375 222.503906 127.910156 222.132812 C 127.5 221.9375 127.015625 221.894531 126.726562 222.316406 C 126.359375 222.855469 126.464844 223.742188 126.621094 224.335938 C 127.03125 225.917969 128.277344 227.066406 129.574219 227.964844 C 130.433594 228.558594 131.347656 229.082031 132.171875 229.734375 C 132.484375 229.980469 132.777344 230.25 133.054688 230.53125 L 133.054688 238.023438 C 132.589844 237.460938 132.089844 236.925781 131.585938 236.398438 C 130.734375 235.511719 129.882812 234.613281 128.792969 234.015625 C 128.710938 233.972656 128.628906 233.976562 128.546875 234.027344 C 128.46875 234.078125 128.429688 234.152344 128.429688 234.246094 C 128.304688 236.195312 129.292969 237.984375 130.507812 239.433594 C 131.222656 240.277344 131.992188 241.070312 132.820312 241.804688 C 132.898438 241.875 132.976562 241.945312 133.054688 242.019531 L 133.054688 250.523438 C 132.988281 250.699219 132.921875 250.867188 132.875 251.03125 C 132.414062 252.546875 132.1875 254.09375 132.1875 255.679688 C 132.195312 256.457031 132.261719 257.234375 132.398438 258 C 132.40625 258.050781 132.410156 258.097656 132.421875 258.144531 C 132.4375 258.230469 132.457031 258.316406 132.476562 258.398438 C 132.476562 258.410156 132.480469 258.421875 132.484375 258.429688 C 132.589844 258.953125 132.792969 259.875 133.054688 260.757812 L 133.054688 262.320312 L 242.527344 262.320312 L 242.527344 177.058594 C 244.054688 175.980469 245.652344 174.921875 246.714844 173.347656 C 247.808594 171.679688 248.4375 169.851562 248.605469 167.863281 C 248.617188 167.835938 248.621094 167.804688 248.613281 167.773438 L 248.613281 167.769531 C 248.617188 167.761719 248.617188 167.75 248.613281 167.742188 Z M 243.078125 166.664062 C 243.191406 165.445312 243.445312 164.253906 243.84375 163.097656 C 244.359375 161.582031 245.238281 160.371094 246.214844 159.15625 C 246.5 160.9375 246.296875 162.660156 245.605469 164.328125 C 245.167969 165.320312 244.597656 166.265625 244.070312 167.210938 C 243.691406 167.90625 243.296875 168.589844 242.902344 169.277344 C 242.972656 168.40625 243.007812 167.535156 243.078125 166.664062 Z M 233.492188 166.285156 C 234.011719 166.683594 234.519531 167.101562 235.011719 167.535156 C 235.015625 167.539062 235.015625 167.539062 235.019531 167.539062 L 234.953125 167.648438 C 234.722656 167.578125 234.492188 167.503906 234.261719 167.421875 C 234.144531 167.378906 234.023438 167.335938 233.90625 167.285156 C 233.847656 167.265625 233.789062 167.242188 233.726562 167.21875 C 233.71875 167.21875 233.71875 167.21875 233.714844 167.214844 C 233.703125 167.210938 233.691406 167.207031 233.679688 167.199219 C 233.648438 167.1875 233.621094 167.175781 233.589844 167.164062 C 233.445312 167.085938 233.335938 167.121094 233.253906 167.261719 C 233.175781 167.402344 233.207031 167.515625 233.34375 167.601562 C 233.804688 167.789062 234.269531 167.957031 234.742188 168.105469 C 234.738281 168.105469 234.738281 168.105469 234.738281 168.105469 C 234.695312 168.21875 234.664062 168.335938 234.644531 168.453125 C 234.5 168.46875 234.363281 168.484375 234.222656 168.496094 C 233.519531 168.597656 232.816406 168.660156 232.109375 168.683594 C 231.53125 168.691406 230.597656 168.703125 230.339844 168.050781 C 230.0625 167.363281 231.0625 167.140625 231.53125 167.074219 C 231.65625 167.070312 231.734375 167.007812 231.765625 166.882812 C 231.796875 166.761719 231.757812 166.667969 231.652344 166.605469 C 231.476562 166.507812 231.351562 166.363281 231.285156 166.175781 C 231.214844 165.988281 231.21875 165.800781 231.292969 165.613281 C 231.53125 165.113281 232.214844 165.304688 232.625 165.414062 C 232.703125 165.433594 232.777344 165.417969 232.839844 165.367188 C 232.902344 165.316406 232.933594 165.25 232.933594 165.167969 C 232.914062 165 232.847656 164.742188 232.824219 164.480469 C 232.804688 164.3125 232.816406 164.144531 232.863281 163.980469 C 232.90625 163.832031 233 163.730469 233.140625 163.675781 C 233.488281 163.550781 233.734375 163.78125 233.910156 164.074219 C 234.003906 164.234375 234.082031 164.40625 234.140625 164.582031 C 234.160156 164.621094 234.171875 164.65625 234.1875 164.691406 C 234.375 165.207031 234.628906 165.691406 234.949219 166.136719 C 235.128906 166.390625 235.328125 166.644531 235.492188 166.917969 C 235.417969 166.976562 235.351562 167.039062 235.289062 167.113281 L 235.289062 167.117188 C 234.820312 166.707031 234.335938 166.308594 233.839844 165.921875 C 233.71875 165.816406 233.601562 165.816406 233.484375 165.929688 C 233.371094 166.050781 233.375 166.167969 233.492188 166.285156 Z M 232.371094 163.90625 C 232.066406 163.859375 231.765625 163.792969 231.464844 163.710938 C 230.996094 163.582031 230.539062 163.421875 230.085938 163.234375 C 231.773438 162.566406 233.519531 162.328125 235.324219 162.519531 C 236.328125 162.609375 237.292969 162.851562 238.21875 163.25 C 238.605469 163.4375 238.976562 163.652344 239.332031 163.898438 C 238.972656 163.851562 238.609375 163.84375 238.246094 163.871094 C 237.105469 163.9375 235.960938 164.078125 234.820312 164.09375 C 234.710938 164.09375 234.601562 164.09375 234.488281 164.089844 C 234.421875 163.933594 234.335938 163.789062 234.234375 163.652344 C 233.890625 163.210938 233.226562 162.964844 232.734375 163.34375 C 232.546875 163.488281 232.425781 163.675781 232.371094 163.90625 Z M 235.15625 168.40625 C 235.214844 168.246094 235.285156 168.09375 235.367188 167.945312 C 235.457031 167.730469 235.574219 167.539062 235.726562 167.363281 C 235.785156 167.304688 235.855469 167.265625 235.933594 167.25 C 236.070312 167.242188 236.1875 167.292969 236.277344 167.394531 C 236.339844 167.457031 236.402344 167.519531 236.460938 167.589844 C 236.675781 167.832031 236.898438 168.0625 237.121094 168.300781 C 237.410156 168.605469 237.695312 168.902344 237.980469 169.207031 L 238.011719 169.238281 C 237.675781 169.199219 237.335938 169.15625 237 169.117188 C 236.671875 169.082031 236.34375 169.042969 236.011719 169 C 235.859375 168.980469 235.707031 168.960938 235.554688 168.941406 C 235.488281 168.929688 235.382812 168.925781 235.296875 168.902344 C 235.25 168.890625 235.203125 168.871094 235.167969 168.835938 C 235.074219 168.742188 235.097656 168.574219 235.15625 168.40625 Z M 237.25 167.710938 C 236.910156 167.351562 236.519531 166.757812 235.976562 166.75 C 235.742188 166.351562 235.445312 165.980469 235.195312 165.605469 C 234.980469 165.292969 234.804688 164.953125 234.675781 164.589844 C 235.59375 164.589844 236.507812 164.507812 237.417969 164.433594 C 238.4375 164.347656 239.636719 164.175781 240.480469 164.875 C 241.128906 166.269531 241.644531 167.710938 242.03125 169.199219 L 242.03125 170.511719 C 241.679688 170.277344 241.308594 170.089844 240.90625 169.957031 C 240.507812 169.816406 240.101562 169.707031 239.695312 169.59375 C 239.492188 169.535156 239.285156 169.476562 239.085938 169.40625 L 239.015625 169.386719 C 239 169.378906 238.984375 169.371094 238.964844 169.367188 C 238.953125 169.363281 238.945312 169.359375 238.929688 169.355469 C 238.632812 169.179688 238.378906 168.953125 238.167969 168.675781 C 237.863281 168.351562 237.554688 168.03125 237.25 167.710938 Z M 242.027344 167.335938 C 242.019531 167.308594 242.011719 167.28125 242.003906 167.253906 C 241.699219 166.386719 241.355469 165.535156 240.964844 164.699219 L 240.964844 164.691406 C 240.960938 164.691406 240.960938 164.6875 240.960938 164.683594 C 240.957031 164.664062 240.945312 164.640625 240.9375 164.617188 C 240.929688 164.609375 240.925781 164.597656 240.917969 164.59375 C 240.542969 163.761719 240.152344 162.929688 239.808594 162.089844 L 239.808594 162.085938 C 240.363281 161.578125 240.96875 161.132812 241.617188 160.757812 C 241.886719 162.941406 242.023438 165.132812 242.027344 167.335938 Z M 241.734375 158.136719 C 242.035156 157.820312 242.34375 157.519531 242.640625 157.226562 L 242.65625 157.210938 C 242.816406 157.058594 242.980469 156.902344 243.152344 156.753906 C 244.375 155.671875 245.8125 154.816406 247.441406 154.675781 C 246.402344 156.066406 245.242188 157.347656 243.960938 158.519531 C 243.679688 158.761719 243.390625 158.988281 243.085938 159.195312 C 242.921875 159.316406 242.75 159.425781 242.578125 159.539062 C 242.390625 159.660156 242.199219 159.78125 242.007812 159.902344 C 241.851562 159.996094 241.699219 160.097656 241.542969 160.191406 C 240.921875 160.566406 240.332031 160.984375 239.773438 161.449219 C 240.027344 160.363281 240.539062 159.417969 241.308594 158.609375 C 241.445312 158.449219 241.589844 158.292969 241.734375 158.136719 Z M 241.203125 157.972656 C 240.355469 158.820312 239.746094 159.8125 239.375 160.949219 C 239.242188 160.558594 239.117188 160.15625 239.011719 159.75 C 238.75 158.789062 238.652344 157.8125 238.726562 156.820312 L 238.726562 156.8125 C 239.082031 155.816406 239.582031 154.902344 240.222656 154.0625 C 240.253906 154.019531 240.292969 153.972656 240.328125 153.925781 C 240.667969 155.257812 240.960938 156.605469 241.203125 157.972656 Z M 240.363281 153.082031 C 240.300781 153.167969 240.234375 153.253906 240.167969 153.339844 C 240.058594 153.488281 239.941406 153.628906 239.828125 153.773438 C 239.753906 153.863281 239.691406 153.953125 239.625 154.039062 C 239.40625 154.351562 239.203125 154.667969 239.011719 155 L 239.011719 155.003906 C 238.960938 155.089844 238.910156 155.175781 238.871094 155.265625 C 238.808594 155.371094 238.753906 155.480469 238.699219 155.589844 C 238.695312 155.40625 238.691406 155.226562 238.6875 155.039062 L 238.6875 155.015625 C 238.6875 154.996094 238.683594 154.976562 238.683594 154.953125 C 238.683594 154.9375 238.683594 154.921875 238.683594 154.90625 C 238.675781 154.585938 238.664062 154.261719 238.65625 153.9375 C 238.640625 153.320312 238.625 152.703125 238.628906 152.085938 C 238.589844 151.796875 238.660156 151.539062 238.835938 151.308594 C 238.957031 151.210938 239.09375 151.183594 239.246094 151.21875 C 239.277344 151.222656 239.304688 151.230469 239.332031 151.234375 C 239.421875 151.257812 239.507812 151.292969 239.589844 151.332031 C 239.832031 151.453125 240.050781 151.609375 240.25 151.792969 C 240.304688 151.84375 240.359375 151.898438 240.40625 151.945312 C 240.410156 151.953125 240.414062 151.953125 240.417969 151.957031 C 240.585938 152.125 240.644531 152.328125 240.597656 152.558594 C 240.585938 152.632812 240.5625 152.703125 240.53125 152.773438 C 240.484375 152.882812 240.429688 152.984375 240.363281 153.082031 Z M 237.160156 140.730469 C 237.953125 140.691406 238.433594 141.460938 238.796875 142.042969 C 238.847656 142.125 238.917969 142.164062 239.015625 142.164062 C 239.109375 142.164062 239.179688 142.125 239.230469 142.042969 C 239.65625 141.085938 240.441406 139.925781 241.632812 139.996094 C 242.230469 140.046875 242.714844 140.308594 243.082031 140.785156 C 243.269531 141.007812 243.429688 141.246094 243.5625 141.503906 C 243.71875 141.792969 243.851562 142.089844 243.96875 142.398438 C 244 142.503906 244.070312 142.5625 244.179688 142.574219 C 244.285156 142.585938 244.367188 142.546875 244.425781 142.457031 C 244.804688 141.921875 245.367188 141.300781 246.089844 141.410156 C 246.789062 141.515625 247.007812 142.265625 246.992188 142.875 C 246.976562 144.082031 246.296875 145.1875 245.566406 146.097656 C 244.882812 146.953125 244.128906 147.753906 243.375 148.554688 C 243.203125 148.734375 243.03125 148.914062 242.859375 149.101562 C 242.144531 149.859375 241.4375 150.632812 240.796875 151.460938 C 240.773438 151.492188 240.746094 151.527344 240.71875 151.558594 C 240.667969 151.503906 240.609375 151.449219 240.546875 151.390625 L 240.546875 151.386719 C 241.503906 150.058594 242.292969 148.632812 242.914062 147.117188 C 243.113281 146.628906 243.292969 146.128906 243.453125 145.628906 C 243.519531 145.417969 243.585938 145.207031 243.644531 144.996094 C 243.667969 144.933594 243.660156 144.871094 243.625 144.8125 C 243.59375 144.753906 243.542969 144.71875 243.476562 144.707031 C 243.410156 144.683594 243.347656 144.6875 243.285156 144.71875 C 243.222656 144.753906 243.179688 144.804688 243.164062 144.871094 C 243.097656 145.09375 243.027344 145.320312 242.953125 145.542969 C 242.304688 147.539062 241.371094 149.386719 240.148438 151.085938 C 240.101562 151.054688 240.054688 151.027344 240.007812 150.996094 C 239.972656 150.894531 239.941406 150.792969 239.90625 150.691406 C 239.910156 150.671875 239.914062 150.652344 239.914062 150.636719 C 239.976562 150.339844 240.023438 150.046875 240.066406 149.753906 C 240.320312 147.953125 240.242188 146.167969 239.828125 144.398438 C 239.753906 144.085938 239.273438 144.21875 239.34375 144.535156 C 239.585938 145.570312 239.707031 146.621094 239.710938 147.683594 C 239.710938 148.203125 239.6875 148.726562 239.632812 149.246094 C 239.617188 149.390625 239.589844 149.53125 239.570312 149.675781 C 239.554688 149.804688 239.539062 149.9375 239.515625 150.070312 C 239.5 150.179688 239.476562 150.289062 239.457031 150.398438 C 239.453125 150.421875 239.410156 150.65625 239.410156 150.734375 C 239.40625 150.734375 239.402344 150.738281 239.398438 150.738281 C 239.394531 150.742188 239.390625 150.742188 239.386719 150.746094 C 239.359375 150.738281 239.328125 150.730469 239.296875 150.730469 C 239.296875 150.65625 239.289062 150.582031 239.28125 150.511719 C 239.273438 150.441406 239.261719 150.367188 239.253906 150.296875 C 239.125 148.921875 238.800781 147.59375 238.273438 146.316406 C 237.695312 145.039062 236.65625 143.925781 236.390625 142.519531 C 236.371094 142.40625 236.355469 142.292969 236.347656 142.179688 C 236.296875 141.546875 236.4375 140.761719 237.160156 140.730469 Z M 132.328125 229.222656 C 130.9375 228.167969 129.285156 227.414062 128.132812 226.078125 C 127.628906 225.515625 127.277344 224.871094 127.082031 224.140625 C 126.992188 223.769531 126.796875 222.363281 127.464844 222.5 C 127.980469 222.601562 128.453125 223.09375 128.816406 223.4375 C 129.171875 223.777344 129.5 224.136719 129.828125 224.5 C 129.910156 224.574219 130 224.585938 130.101562 224.539062 C 130.199219 224.496094 130.25 224.417969 130.246094 224.308594 C 130.121094 223.582031 130.140625 222.859375 130.300781 222.136719 C 130.4375 221.574219 130.644531 220.898438 131.125 220.523438 C 131.578125 220.167969 132.101562 220.332031 132.527344 220.644531 C 132.714844 220.785156 132.890625 220.9375 133.058594 221.097656 C 133.234375 221.269531 133.398438 221.449219 133.554688 221.636719 C 133.78125 221.902344 133.988281 222.183594 134.179688 222.476562 C 134.238281 222.570312 134.324219 222.605469 134.433594 222.585938 C 134.542969 222.566406 134.609375 222.503906 134.636719 222.398438 C 134.875 221.269531 135.148438 220.1875 135.804688 219.210938 C 136.050781 218.84375 136.398438 218.4375 136.789062 218.570312 C 136.796875 218.574219 136.800781 218.578125 136.808594 218.578125 C 136.8125 218.582031 136.820312 218.582031 136.824219 218.589844 L 136.847656 218.59375 C 136.925781 218.632812 136.996094 218.683594 137.054688 218.75 C 137.574219 219.324219 137.898438 219.996094 138.019531 220.761719 C 138.308594 222.253906 138.015625 223.820312 137.730469 225.292969 C 137.355469 227.1875 136.976562 229.085938 136.65625 230.996094 C 136.609375 231.273438 136.5625 231.546875 136.519531 231.820312 L 136.503906 231.820312 L 135.601562 224.566406 C 135.5625 224.25 135.0625 224.269531 135.101562 224.585938 C 135.40625 227.023438 135.710938 229.464844 136.011719 231.902344 L 136.007812 231.902344 C 135.964844 231.910156 135.925781 231.921875 135.882812 231.9375 C 135.359375 230.441406 134.585938 229.097656 133.554688 227.898438 C 133.390625 227.691406 133.222656 227.488281 133.054688 227.285156 C 132.828125 227.015625 132.601562 226.75 132.375 226.484375 C 132.164062 226.238281 131.824219 226.609375 132.035156 226.847656 C 132.375 227.25 132.722656 227.652344 133.054688 228.0625 C 133.226562 228.273438 133.390625 228.484375 133.554688 228.699219 C 134.367188 229.71875 134.984375 230.84375 135.40625 232.078125 C 135.261719 232.128906 135.121094 232.195312 134.988281 232.269531 C 134.585938 231.566406 134.109375 230.921875 133.554688 230.328125 C 133.394531 230.160156 133.226562 229.992188 133.054688 229.832031 C 132.824219 229.621094 132.582031 229.414062 132.328125 229.222656 Z M 136.96875 232.351562 C 137.027344 232.371094 137.078125 232.398438 137.121094 232.441406 C 137.25 232.570312 137.28125 232.8125 137.210938 233.199219 C 137.03125 234.113281 136.800781 235.011719 136.527344 235.902344 C 136.507812 235.96875 136.492188 236.035156 136.472656 236.105469 C 136.425781 236.265625 136.378906 236.425781 136.335938 236.589844 C 136.277344 236.785156 136.222656 236.988281 136.164062 237.183594 C 136.117188 236.863281 136.046875 236.546875 135.960938 236.234375 C 135.871094 235.914062 135.761719 235.605469 135.636719 235.300781 L 135.605469 235.230469 C 135.523438 235.050781 135.4375 234.871094 135.351562 234.695312 C 135.210938 234.417969 135.085938 234.136719 134.972656 233.847656 C 134.886719 233.617188 134.855469 233.378906 134.882812 233.136719 C 134.898438 233.039062 134.941406 232.949219 135.007812 232.875 C 135.015625 232.867188 135.027344 232.855469 135.039062 232.847656 C 135.097656 232.796875 135.160156 232.75 135.230469 232.714844 C 135.601562 232.515625 136 232.390625 136.417969 232.339844 C 136.429688 232.339844 136.4375 232.335938 136.445312 232.335938 C 136.621094 232.296875 136.796875 232.300781 136.96875 232.351562 Z M 133.554688 231.082031 C 133.726562 231.285156 133.894531 231.496094 134.050781 231.714844 C 134.25 231.996094 134.429688 232.285156 134.597656 232.585938 C 134.332031 232.914062 134.296875 233.425781 134.503906 234.011719 C 134.621094 234.320312 134.753906 234.621094 134.902344 234.914062 C 134.984375 235.085938 135.070312 235.257812 135.144531 235.429688 C 135.664062 236.621094 135.859375 237.863281 135.730469 239.15625 C 135.6875 239.425781 135.660156 239.695312 135.644531 239.964844 L 135.457031 241.164062 C 135.40625 241.496094 135.355469 241.828125 135.296875 242.164062 C 134.996094 241.039062 134.511719 240.003906 133.839844 239.050781 C 133.75 238.917969 133.652344 238.789062 133.554688 238.660156 Z M 131.367188 239.664062 C 130.105469 238.285156 128.96875 236.585938 128.921875 234.671875 C 129.738281 235.242188 130.476562 235.90625 131.136719 236.652344 C 131.820312 237.339844 132.457031 238.0625 133.054688 238.824219 C 133.144531 238.941406 133.238281 239.0625 133.328125 239.183594 C 133.402344 239.292969 133.476562 239.40625 133.554688 239.519531 C 134.285156 240.640625 134.964844 242.070312 134.953125 243.433594 C 134.601562 242.863281 134.179688 242.351562 133.679688 241.90625 L 133.554688 241.792969 C 133.386719 241.636719 133.21875 241.484375 133.054688 241.328125 C 132.476562 240.792969 131.90625 240.25 131.367188 239.664062 Z M 134.851562 244.382812 C 134.855469 244.398438 134.859375 244.414062 134.867188 244.429688 C 134.511719 246.105469 134.066406 247.761719 133.554688 249.394531 L 133.554688 242.488281 C 134.132812 243.019531 134.566406 243.648438 134.851562 244.382812 Z M 132.6875 255.675781 C 132.683594 254.539062 132.808594 253.417969 133.054688 252.308594 L 133.054688 258.746094 C 132.96875 258.375 132.894531 258.019531 132.863281 257.769531 L 132.867188 257.769531 C 132.753906 257.078125 132.691406 256.378906 132.6875 255.675781 Z M 242.03125 261.820312 L 133.554688 261.820312 L 133.554688 251.003906 C 133.667969 250.679688 133.773438 250.355469 133.878906 250.027344 L 133.878906 250.050781 L 134.21875 249.339844 C 134.75 248.289062 136.082031 247.996094 137.03125 247.445312 C 138.351562 246.664062 139.441406 245.640625 140.304688 244.371094 C 141.167969 243.101562 141.71875 241.710938 141.957031 240.195312 C 141.980469 240.070312 141.933594 239.980469 141.824219 239.921875 C 141.714844 239.867188 141.617188 239.878906 141.527344 239.96875 C 139.367188 242.453125 136.566406 244.417969 134.726562 247.160156 C 135.140625 245.621094 135.480469 244.066406 135.75 242.484375 C 135.804688 242.464844 135.847656 242.425781 135.875 242.375 C 136.945312 240.324219 139.027344 239.019531 140.453125 237.242188 C 141.832031 235.535156 142.789062 233.480469 142.796875 231.253906 C 142.792969 231.144531 142.734375 231.070312 142.632812 231.035156 C 142.53125 230.996094 142.441406 231.015625 142.367188 231.09375 C 139.554688 233.636719 137.46875 236.679688 136.105469 240.222656 L 136.140625 240.015625 C 136.152344 239.769531 136.179688 239.523438 136.21875 239.28125 C 136.21875 239.273438 136.21875 239.265625 136.21875 239.257812 C 136.21875 239.25 136.21875 239.246094 136.222656 239.238281 C 136.417969 238.15625 136.679688 237.089844 137.007812 236.039062 C 137.285156 235.132812 137.519531 234.214844 137.703125 233.285156 C 137.832031 232.847656 137.753906 232.449219 137.476562 232.089844 C 137.355469 231.96875 137.210938 231.894531 137.046875 231.855469 C 137.089844 231.59375 137.136719 231.332031 137.183594 231.050781 C 137.183594 231.046875 137.191406 231.042969 137.191406 231.035156 C 137.191406 231.035156 137.640625 228.519531 137.636719 228.523438 C 137.640625 228.515625 137.640625 228.511719 137.644531 228.503906 C 137.882812 227.234375 138.125 225.964844 138.351562 224.691406 C 138.714844 222.632812 138.929688 220.34375 137.585938 218.574219 C 137.386719 218.332031 137.140625 218.167969 136.835938 218.085938 C 136.628906 218.042969 136.425781 218.054688 136.226562 218.128906 C 136.027344 218.199219 135.863281 218.324219 135.734375 218.492188 C 134.902344 219.375 134.535156 220.566406 134.269531 221.734375 C 134.050781 221.433594 133.8125 221.148438 133.554688 220.882812 L 133.554688 167.441406 C 133.554688 137.523438 157.882812 113.179688 187.792969 113.179688 C 190.257812 113.179688 192.710938 113.351562 195.152344 113.6875 C 197.597656 114.023438 200.003906 114.523438 202.378906 115.1875 C 204.753906 115.855469 207.074219 116.675781 209.335938 117.660156 C 211.597656 118.640625 213.785156 119.769531 215.894531 121.046875 C 218 122.328125 220.015625 123.742188 221.929688 125.296875 C 223.84375 126.851562 225.648438 128.527344 227.335938 130.324219 C 229.023438 132.125 230.578125 134.03125 232.007812 136.039062 C 233.433594 138.050781 234.71875 140.152344 235.863281 142.335938 C 235.878906 142.488281 235.902344 142.636719 235.9375 142.785156 C 236.214844 143.984375 237.007812 144.976562 237.582031 146.042969 C 238.238281 147.273438 238.527344 148.710938 238.71875 150.082031 C 238.753906 150.308594 238.777344 150.53125 238.796875 150.757812 C 238.625 150.8125 238.484375 150.910156 238.375 151.050781 C 238.09375 151.390625 238.125 151.871094 238.132812 152.285156 C 238.132812 152.746094 238.140625 153.203125 238.148438 153.660156 C 238.167969 154.707031 238.214844 155.761719 238.203125 156.8125 C 238.199219 156.84375 238.203125 156.878906 238.210938 156.910156 L 238.214844 156.914062 C 238.195312 157.179688 238.191406 157.449219 238.207031 157.71875 C 237.421875 156.015625 236.425781 154.449219 235.214844 153.019531 C 234.015625 151.589844 232.648438 150.339844 231.121094 149.269531 C 230.9375 149.140625 230.699219 149.363281 230.753906 149.554688 C 231.351562 151.738281 232.355469 153.71875 233.757812 155.496094 C 235.09375 157.101562 236.65625 158.445312 238.449219 159.515625 L 238.453125 159.519531 C 238.722656 160.636719 239.089844 161.722656 239.5625 162.769531 C 239.699219 163.09375 239.835938 163.417969 239.984375 163.738281 C 239.976562 163.730469 239.96875 163.726562 239.957031 163.71875 C 239.539062 163.417969 239.101562 163.148438 238.644531 162.90625 C 237.671875 162.441406 236.648438 162.160156 235.574219 162.054688 C 233.421875 161.78125 231.359375 162.09375 229.386719 162.996094 C 229.335938 162.996094 229.296875 163.015625 229.261719 163.054688 C 229.207031 163.085938 229.175781 163.132812 229.167969 163.195312 C 229.15625 163.257812 229.171875 163.3125 229.210938 163.363281 C 229.238281 163.429688 229.289062 163.472656 229.355469 163.492188 C 229.964844 163.710938 230.570312 163.964844 231.183594 164.152344 C 231.5625 164.261719 231.949219 164.351562 232.339844 164.414062 C 232.351562 164.5625 232.367188 164.707031 232.394531 164.847656 C 231.785156 164.738281 231.109375 164.78125 230.828125 165.421875 C 230.648438 165.871094 230.703125 166.289062 231 166.671875 C 230.402344 166.828125 229.808594 167.144531 229.800781 167.828125 C 229.785156 168.789062 230.800781 169.109375 231.578125 169.167969 C 232.554688 169.1875 233.523438 169.121094 234.488281 168.964844 C 234.546875 168.957031 234.605469 168.953125 234.667969 168.949219 C 234.78125 169.207031 234.972656 169.355469 235.25 169.394531 C 235.597656 169.457031 235.949219 169.492188 236.289062 169.53125 C 237.117188 169.636719 237.957031 169.722656 238.78125 169.835938 L 238.785156 169.839844 L 238.789062 169.839844 C 238.964844 169.902344 239.148438 169.957031 239.320312 170.007812 C 239.714844 170.125 240.117188 170.222656 240.511719 170.347656 C 241.078125 170.5 241.582031 170.765625 242.03125 171.136719 L 242.03125 179.347656 C 241.550781 177.851562 241.019531 176.363281 240.035156 175.125 C 238.773438 173.578125 237.21875 172.429688 235.375 171.671875 C 235.351562 171.652344 235.324219 171.640625 235.292969 171.636719 L 235.289062 171.636719 C 235.28125 171.632812 235.273438 171.628906 235.265625 171.628906 C 235.203125 171.609375 235.148438 171.617188 235.09375 171.652344 C 235.039062 171.683594 235.007812 171.730469 234.996094 171.792969 C 234.976562 171.839844 234.96875 171.882812 234.976562 171.933594 C 235.109375 172.488281 235.300781 173.027344 235.546875 173.542969 C 235.945312 174.476562 236.488281 175.320312 237.179688 176.066406 C 237.933594 176.863281 238.746094 177.589844 239.625 178.25 C 240.367188 178.832031 241.585938 179.511719 241.902344 180.554688 L 242.027344 180.59375 Z M 134.746094 248.078125 C 136.378906 245.273438 139.078125 243.3125 141.289062 240.972656 C 140.851562 242.714844 140 244.222656 138.734375 245.492188 C 138.003906 246.234375 137.175781 246.835938 136.25 247.300781 C 135.730469 247.53125 135.230469 247.789062 134.746094 248.078125 Z M 136.488281 240.621094 C 137.746094 237.257812 139.671875 234.339844 142.269531 231.863281 C 142.09375 233.9375 141.050781 235.828125 139.6875 237.378906 C 138.695312 238.511719 137.472656 239.472656 136.488281 240.621094 Z M 238.078125 158.6875 C 236.605469 157.730469 235.308594 156.578125 234.183594 155.230469 C 232.957031 153.699219 232.050781 151.996094 231.457031 150.128906 C 234.449219 152.371094 236.65625 155.226562 238.078125 158.6875 Z M 241.402344 179.03125 C 241.132812 178.789062 240.839844 178.566406 240.554688 178.34375 C 239.632812 177.660156 238.757812 176.921875 237.929688 176.128906 C 237.125 175.339844 236.488281 174.433594 236.027344 173.40625 C 235.882812 173.070312 235.707031 172.6875 235.585938 172.3125 C 237.195312 173.042969 238.558594 174.09375 239.667969 175.46875 C 240.460938 176.550781 241.039062 177.738281 241.402344 179.03125 Z M 246.277344 173.101562 C 245.484375 174.183594 244.527344 175.09375 243.402344 175.828125 C 243.550781 175.496094 243.675781 175.148438 243.800781 174.8125 C 244.175781 173.726562 244.617188 172.671875 245.125 171.640625 C 245.632812 170.636719 246.308594 169.757812 247.148438 169.007812 C 247.425781 168.765625 247.738281 168.484375 248.058594 168.257812 C 247.847656 170.011719 247.253906 171.628906 246.277344 173.101562 Z M 246.277344 173.101562 " fill-opacity="1" fill-rule="nonzero"/></g><g clip-path="url(#4c903e07e1)"><path fill="#ffffff" d="M 269.894531 156.046875 C 269.894531 155.960938 269.859375 155.886719 269.792969 155.828125 C 269.726562 155.769531 269.648438 155.746094 269.558594 155.757812 C 269.492188 155.75 269.429688 155.757812 269.367188 155.789062 C 268.675781 156.203125 268.035156 156.683594 267.449219 157.238281 C 266.363281 158.167969 265.464844 159.253906 264.757812 160.5 C 264.007812 161.847656 263.375 163.25 262.859375 164.703125 C 262.457031 165.769531 262.136719 167.113281 261.402344 168.058594 C 261.5 167.136719 261.601562 166.144531 261.691406 165.222656 C 261.753906 164.574219 261.785156 163.949219 261.800781 163.367188 C 261.878906 162.230469 261.84375 161.09375 261.691406 159.960938 C 261.691406 159.953125 261.6875 159.9375 261.6875 159.929688 L 261.683594 159.925781 L 261.691406 159.914062 C 262.550781 158.433594 263.398438 156.945312 264.230469 155.449219 C 265.070312 154.050781 265.820312 152.601562 266.476562 151.105469 C 267.507812 148.496094 267.542969 145.769531 267.085938 143.027344 C 267.066406 142.96875 267.035156 142.917969 266.992188 142.875 C 266.945312 142.832031 266.894531 142.800781 266.832031 142.785156 C 266.773438 142.769531 266.710938 142.769531 266.652344 142.785156 C 266.589844 142.804688 266.539062 142.832031 266.496094 142.878906 C 264.929688 144.808594 263.460938 146.660156 262.609375 149.027344 C 262.335938 149.785156 262.109375 150.558594 261.917969 151.339844 C 261.710938 152.191406 261.558594 153.050781 261.464844 153.921875 C 261.40625 154.46875 261.363281 155.011719 261.328125 155.558594 C 261.328125 152.296875 261.117188 149.050781 260.707031 145.816406 C 260.929688 145.675781 261.15625 145.539062 261.375 145.394531 C 261.617188 145.242188 261.855469 145.085938 262.089844 144.921875 C 262.703125 144.503906 263.289062 144.050781 263.851562 143.566406 C 265.890625 141.785156 267.570312 139.652344 269.238281 137.53125 C 269.339844 137.417969 269.363281 137.292969 269.304688 137.152344 C 269.246094 137.011719 269.140625 136.941406 268.988281 136.933594 C 266.433594 136.902344 264.15625 138.066406 262.230469 139.644531 C 261.988281 139.84375 261.75 140.050781 261.511719 140.269531 C 261.394531 140.375 261.273438 140.484375 261.15625 140.597656 C 260.796875 140.941406 260.429688 141.300781 260.058594 141.675781 C 259.703125 139.726562 259.269531 137.800781 258.765625 135.90625 C 259.210938 135.269531 259.535156 134.582031 259.207031 133.875 C 260.003906 132.824219 260.871094 131.820312 261.765625 130.84375 L 262.488281 130.0625 C 262.902344 129.613281 263.320312 129.171875 263.734375 128.730469 C 265.011719 127.371094 266.355469 126.015625 267.292969 124.390625 C 268.105469 122.976562 268.773438 120.980469 267.960938 119.410156 C 267.753906 119.007812 267.449219 118.707031 267.042969 118.503906 C 266.640625 118.300781 266.214844 118.238281 265.769531 118.316406 C 264.945312 118.496094 264.285156 118.925781 263.785156 119.605469 C 263.527344 119.003906 263.203125 118.4375 262.8125 117.910156 C 262.613281 117.640625 262.386719 117.394531 262.132812 117.175781 C 261.589844 116.6875 260.957031 116.40625 260.234375 116.328125 C 258.441406 116.144531 257.125 117.539062 256.328125 119.015625 C 255.628906 118.027344 254.667969 117.078125 253.355469 117.398438 C 253 117.496094 252.699219 117.683594 252.453125 117.960938 C 252.207031 118.238281 252.058594 118.558594 252.011719 118.925781 C 250.363281 115.894531 248.523438 112.984375 246.484375 110.195312 C 244.449219 107.410156 242.234375 104.773438 239.84375 102.285156 C 237.453125 99.792969 234.90625 97.476562 232.203125 95.328125 C 229.5 93.183594 226.664062 91.226562 223.699219 89.460938 C 220.734375 87.695312 217.664062 86.132812 214.488281 84.78125 C 211.316406 83.425781 208.0625 82.289062 204.738281 81.371094 C 201.410156 80.457031 198.035156 79.765625 194.617188 79.300781 C 191.195312 78.835938 187.757812 78.605469 184.308594 78.601562 C 141.835938 78.601562 107.28125 113.15625 107.28125 155.625 L 107.28125 230.144531 C 107.089844 229.988281 106.886719 229.839844 106.675781 229.703125 C 106.351562 229.492188 106 229.363281 105.617188 229.3125 C 104.386719 229.191406 103.445312 230.210938 103.070312 231.292969 L 102.839844 231.960938 C 102.585938 232.824219 102.480469 233.703125 102.523438 234.601562 C 101.832031 233.757812 101.003906 233.074219 100.042969 232.550781 C 99.460938 232.277344 98.785156 232.214844 98.375 232.804688 C 97.855469 233.566406 98.003906 234.816406 98.226562 235.652344 C 98.804688 237.875 100.558594 239.492188 102.382812 240.753906 C 103.59375 241.589844 104.878906 242.324219 106.039062 243.242188 C 106.476562 243.589844 106.890625 243.964844 107.28125 244.367188 L 107.28125 254.902344 C 106.625 254.109375 105.925781 253.355469 105.214844 252.617188 C 104.015625 251.367188 102.816406 250.105469 101.285156 249.261719 C 101.230469 249.234375 101.171875 249.222656 101.109375 249.226562 C 101.046875 249.230469 100.988281 249.246094 100.9375 249.28125 C 100.886719 249.3125 100.84375 249.359375 100.816406 249.414062 C 100.785156 249.464844 100.769531 249.523438 100.773438 249.585938 C 100.597656 252.328125 101.988281 254.84375 103.695312 256.886719 C 104.699219 258.074219 105.785156 259.183594 106.949219 260.21875 C 107.058594 260.320312 107.171875 260.417969 107.28125 260.519531 L 107.28125 272.484375 C 107.183594 272.726562 107.09375 272.964844 107.023438 273.195312 C 106.378906 275.328125 106.058594 277.507812 106.0625 279.734375 C 106.070312 280.832031 106.167969 281.921875 106.355469 283 C 106.363281 283.070312 106.375 283.136719 106.386719 283.203125 C 106.410156 283.324219 106.441406 283.441406 106.46875 283.558594 C 106.46875 283.574219 106.472656 283.589844 106.476562 283.605469 C 106.628906 284.339844 106.914062 285.632812 107.28125 286.878906 L 107.28125 289.074219 L 261.332031 289.074219 L 261.332031 169.152344 C 263.480469 167.636719 265.730469 166.148438 267.222656 163.933594 C 268.761719 161.585938 269.648438 159.015625 269.882812 156.21875 C 269.902344 156.175781 269.90625 156.136719 269.898438 156.09375 L 269.898438 156.085938 C 269.898438 156.074219 269.898438 156.0625 269.894531 156.046875 Z M 262.109375 154.53125 C 262.265625 152.816406 262.625 151.144531 263.183594 149.515625 C 263.90625 147.382812 265.148438 145.679688 266.519531 143.96875 C 266.921875 146.476562 266.632812 148.898438 265.664062 151.242188 C 265.046875 152.640625 264.242188 153.96875 263.503906 155.304688 C 262.96875 156.277344 262.410156 157.242188 261.855469 158.207031 C 261.957031 156.984375 262.003906 155.757812 262.109375 154.53125 Z M 248.617188 153.996094 C 249.347656 154.558594 250.058594 155.144531 250.753906 155.753906 C 250.757812 155.757812 250.757812 155.757812 250.761719 155.757812 L 250.761719 155.765625 L 250.675781 155.917969 C 250.351562 155.820312 250.023438 155.710938 249.699219 155.59375 C 249.53125 155.539062 249.367188 155.472656 249.199219 155.40625 C 249.117188 155.378906 249.03125 155.347656 248.949219 155.3125 C 248.933594 155.308594 248.933594 155.308594 248.929688 155.304688 C 248.914062 155.300781 248.894531 155.292969 248.878906 155.285156 C 248.835938 155.269531 248.796875 155.25 248.753906 155.234375 C 248.667969 155.191406 248.582031 155.179688 248.492188 155.207031 C 248.398438 155.234375 248.328125 155.289062 248.28125 155.375 C 248.238281 155.457031 248.226562 155.542969 248.25 155.636719 C 248.273438 155.730469 248.328125 155.800781 248.410156 155.847656 C 249.054688 156.113281 249.707031 156.351562 250.375 156.554688 C 250.371094 156.554688 250.371094 156.554688 250.371094 156.5625 C 250.308594 156.71875 250.261719 156.882812 250.238281 157.050781 C 250.035156 157.066406 249.84375 157.089844 249.644531 157.109375 C 248.65625 157.25 247.664062 157.339844 246.667969 157.371094 C 245.859375 157.382812 244.546875 157.402344 244.179688 156.484375 C 243.789062 155.511719 245.199219 155.199219 245.859375 155.109375 C 246.035156 155.101562 246.144531 155.011719 246.1875 154.839844 C 246.230469 154.671875 246.175781 154.539062 246.027344 154.449219 C 245.777344 154.3125 245.605469 154.109375 245.511719 153.84375 C 245.414062 153.578125 245.417969 153.316406 245.519531 153.050781 C 245.855469 152.347656 246.820312 152.617188 247.394531 152.773438 C 247.507812 152.800781 247.609375 152.78125 247.699219 152.710938 C 247.789062 152.636719 247.832031 152.542969 247.832031 152.429688 C 247.804688 152.191406 247.710938 151.828125 247.675781 151.460938 C 247.648438 151.222656 247.667969 150.984375 247.730469 150.753906 C 247.792969 150.550781 247.921875 150.40625 248.121094 150.328125 C 248.609375 150.152344 248.957031 150.476562 249.203125 150.886719 C 249.335938 151.113281 249.445312 151.355469 249.53125 151.605469 C 249.558594 151.660156 249.570312 151.707031 249.59375 151.753906 C 249.855469 152.484375 250.214844 153.160156 250.667969 153.789062 C 250.921875 154.148438 251.199219 154.503906 251.433594 154.886719 C 251.328125 154.96875 251.230469 155.0625 251.148438 155.164062 L 251.148438 155.167969 C 250.484375 154.589844 249.804688 154.03125 249.105469 153.488281 C 249.03125 153.425781 248.949219 153.394531 248.855469 153.394531 C 248.757812 153.398438 248.675781 153.433594 248.605469 153.5 C 248.539062 153.570312 248.507812 153.652344 248.511719 153.75 C 248.511719 153.847656 248.550781 153.929688 248.617188 153.996094 Z M 247.042969 150.652344 C 246.609375 150.585938 246.183594 150.492188 245.765625 150.378906 C 245.105469 150.195312 244.457031 149.96875 243.824219 149.707031 C 246.199219 148.765625 248.65625 148.433594 251.195312 148.703125 C 252.609375 148.828125 253.964844 149.167969 255.265625 149.730469 C 255.8125 149.996094 256.335938 150.296875 256.835938 150.640625 C 256.328125 150.574219 255.816406 150.5625 255.304688 150.601562 C 253.699219 150.695312 252.09375 150.894531 250.488281 150.914062 C 250.332031 150.914062 250.175781 150.914062 250.019531 150.910156 C 249.921875 150.691406 249.804688 150.488281 249.660156 150.296875 C 249.175781 149.675781 248.242188 149.332031 247.554688 149.859375 C 247.285156 150.0625 247.117188 150.328125 247.042969 150.652344 Z M 250.960938 156.984375 C 251.039062 156.757812 251.136719 156.542969 251.253906 156.335938 C 251.378906 156.035156 251.550781 155.761719 251.761719 155.515625 C 251.84375 155.433594 251.941406 155.378906 252.054688 155.355469 C 252.246094 155.347656 252.40625 155.414062 252.535156 155.558594 C 252.625 155.644531 252.714844 155.738281 252.792969 155.832031 C 253.09375 156.171875 253.410156 156.5 253.722656 156.832031 C 254.128906 157.261719 254.53125 157.679688 254.933594 158.109375 L 254.976562 158.152344 C 254.503906 158.097656 254.023438 158.039062 253.550781 157.984375 C 253.089844 157.929688 252.628906 157.875 252.160156 157.816406 C 251.945312 157.785156 251.734375 157.761719 251.519531 157.734375 C 251.421875 157.714844 251.277344 157.710938 251.15625 157.679688 C 251.085938 157.664062 251.027344 157.632812 250.972656 157.585938 C 250.84375 157.453125 250.875 157.21875 250.960938 156.984375 Z M 253.90625 156.003906 C 253.425781 155.5 252.878906 154.664062 252.113281 154.652344 C 251.78125 154.089844 251.363281 153.570312 251.015625 153.046875 C 250.707031 152.601562 250.464844 152.125 250.285156 151.617188 C 251.574219 151.613281 252.859375 151.496094 254.140625 151.394531 C 255.578125 151.273438 257.261719 151.03125 258.453125 152.011719 C 259.363281 153.976562 260.089844 156.003906 260.628906 158.101562 L 260.628906 159.945312 C 260.140625 159.613281 259.613281 159.351562 259.050781 159.164062 C 258.492188 158.964844 257.917969 158.8125 257.347656 158.652344 C 257.058594 158.570312 256.769531 158.488281 256.488281 158.390625 L 256.390625 158.359375 C 256.367188 158.347656 256.34375 158.339844 256.320312 158.335938 C 256.300781 158.328125 256.289062 158.324219 256.269531 158.320312 C 255.847656 158.074219 255.492188 157.753906 255.199219 157.363281 C 254.765625 156.90625 254.332031 156.453125 253.90625 156.003906 Z M 260.628906 155.476562 C 260.617188 155.4375 260.605469 155.398438 260.59375 155.363281 C 260.167969 154.140625 259.679688 152.941406 259.132812 151.769531 L 259.132812 151.757812 C 259.128906 151.753906 259.128906 151.75 259.128906 151.746094 C 259.121094 151.714844 259.105469 151.683594 259.09375 151.652344 C 259.085938 151.640625 259.078125 151.625 259.066406 151.617188 C 258.539062 150.445312 257.988281 149.277344 257.507812 148.09375 L 257.507812 148.089844 C 258.289062 147.375 259.136719 146.753906 260.050781 146.222656 C 260.429688 149.292969 260.621094 152.378906 260.628906 155.476562 Z M 260.214844 142.539062 C 260.636719 142.09375 261.074219 141.667969 261.492188 141.261719 L 261.515625 141.238281 C 261.742188 141.019531 261.972656 140.800781 262.210938 140.589844 C 263.929688 139.074219 265.953125 137.867188 268.246094 137.671875 C 266.785156 139.625 265.152344 141.429688 263.347656 143.078125 C 262.953125 143.414062 262.542969 143.734375 262.117188 144.027344 C 261.882812 144.195312 261.644531 144.351562 261.402344 144.511719 C 261.136719 144.683594 260.867188 144.851562 260.597656 145.019531 C 260.378906 145.15625 260.164062 145.292969 259.945312 145.429688 C 259.074219 145.957031 258.242188 146.542969 257.457031 147.195312 C 257.8125 145.667969 258.53125 144.339844 259.613281 143.203125 C 259.808594 142.976562 260.011719 142.753906 260.214844 142.539062 Z M 259.464844 142.308594 C 258.277344 143.5 257.417969 144.894531 256.898438 146.496094 C 256.707031 145.941406 256.535156 145.375 256.386719 144.804688 C 256.015625 143.457031 255.878906 142.082031 255.980469 140.683594 L 255.980469 140.675781 C 256.480469 139.277344 257.183594 137.988281 258.085938 136.804688 C 258.132812 136.742188 258.183594 136.679688 258.234375 136.617188 C 258.714844 138.488281 259.128906 140.386719 259.464844 142.308594 Z M 258.285156 135.425781 C 258.199219 135.550781 258.105469 135.671875 258.011719 135.792969 C 257.855469 135.996094 257.695312 136.199219 257.53125 136.402344 C 257.429688 136.527344 257.339844 136.65625 257.246094 136.777344 C 256.9375 137.214844 256.652344 137.660156 256.386719 138.125 L 256.386719 138.128906 C 256.3125 138.25 256.242188 138.371094 256.183594 138.5 C 256.097656 138.648438 256.019531 138.800781 255.945312 138.953125 C 255.9375 138.695312 255.933594 138.441406 255.929688 138.179688 L 255.929688 138.148438 C 255.925781 138.117188 255.921875 138.089844 255.921875 138.0625 C 255.921875 138.039062 255.921875 138.019531 255.917969 137.996094 C 255.910156 137.542969 255.890625 137.085938 255.882812 136.632812 C 255.863281 135.761719 255.839844 134.894531 255.84375 134.027344 C 255.789062 133.621094 255.886719 133.257812 256.136719 132.933594 C 256.308594 132.796875 256.5 132.757812 256.714844 132.808594 C 256.757812 132.816406 256.796875 132.824219 256.835938 132.832031 C 256.960938 132.863281 257.082031 132.910156 257.199219 132.96875 C 257.539062 133.136719 257.847656 133.355469 258.125 133.613281 C 258.203125 133.6875 258.28125 133.761719 258.34375 133.832031 C 258.351562 133.835938 258.355469 133.84375 258.363281 133.847656 C 258.597656 134.082031 258.679688 134.363281 258.617188 134.691406 C 258.597656 134.796875 258.566406 134.898438 258.523438 134.996094 C 258.457031 135.148438 258.378906 135.289062 258.285156 135.425781 Z M 253.78125 118.054688 C 254.890625 118 255.570312 119.085938 256.082031 119.902344 C 256.117188 119.953125 256.160156 119.996094 256.214844 120.027344 C 256.265625 120.054688 256.324219 120.070312 256.386719 120.070312 C 256.449219 120.070312 256.507812 120.054688 256.5625 120.027344 C 256.617188 119.996094 256.660156 119.953125 256.691406 119.902344 C 257.289062 118.554688 258.398438 116.921875 260.070312 117.023438 C 260.914062 117.09375 261.59375 117.464844 262.113281 118.128906 C 262.371094 118.445312 262.597656 118.78125 262.789062 119.140625 C 263.007812 119.550781 263.195312 119.96875 263.359375 120.402344 C 263.40625 120.546875 263.503906 120.628906 263.65625 120.648438 C 263.804688 120.667969 263.921875 120.609375 264.003906 120.480469 C 264.53125 119.730469 265.328125 118.859375 266.347656 119.011719 C 267.324219 119.160156 267.632812 120.214844 267.617188 121.070312 C 267.59375 122.769531 266.632812 124.324219 265.605469 125.601562 C 264.644531 126.808594 263.585938 127.9375 262.523438 129.058594 C 262.28125 129.3125 262.039062 129.566406 261.796875 129.828125 C 260.789062 130.898438 259.796875 131.984375 258.894531 133.144531 C 258.859375 133.191406 258.824219 133.238281 258.789062 133.285156 C 258.714844 133.210938 258.632812 133.132812 258.542969 133.050781 L 258.542969 133.046875 C 259.890625 131.171875 261 129.171875 261.875 127.035156 C 262.15625 126.351562 262.40625 125.648438 262.632812 124.945312 C 262.730469 124.648438 262.820312 124.355469 262.90625 124.054688 C 262.933594 123.964844 262.925781 123.878906 262.878906 123.796875 C 262.832031 123.714844 262.761719 123.667969 262.667969 123.648438 C 262.574219 123.613281 262.484375 123.621094 262.394531 123.667969 C 262.308594 123.710938 262.25 123.785156 262.226562 123.878906 C 262.132812 124.195312 262.035156 124.511719 261.933594 124.828125 C 261.019531 127.628906 259.703125 130.226562 257.984375 132.621094 C 257.917969 132.578125 257.851562 132.535156 257.785156 132.496094 C 257.738281 132.351562 257.691406 132.207031 257.644531 132.0625 C 257.648438 132.039062 257.652344 132.011719 257.65625 131.988281 C 257.742188 131.570312 257.808594 131.160156 257.867188 130.746094 C 258.226562 128.214844 258.113281 125.703125 257.53125 123.214844 C 257.425781 122.777344 256.75 122.964844 256.851562 123.40625 C 257.191406 124.863281 257.363281 126.339844 257.367188 127.832031 C 257.371094 128.566406 257.332031 129.300781 257.253906 130.03125 C 257.234375 130.234375 257.199219 130.433594 257.171875 130.636719 C 257.144531 130.820312 257.125 131.007812 257.09375 131.1875 C 257.070312 131.34375 257.039062 131.5 257.011719 131.65625 C 257.003906 131.6875 256.945312 132.015625 256.941406 132.125 C 256.9375 132.125 256.933594 132.128906 256.929688 132.132812 C 256.921875 132.136719 256.917969 132.140625 256.914062 132.140625 C 256.871094 132.128906 256.832031 132.121094 256.789062 132.117188 C 256.789062 132.015625 256.773438 131.914062 256.761719 131.8125 C 256.75 131.714844 256.738281 131.609375 256.726562 131.507812 C 256.542969 129.574219 256.085938 127.707031 255.347656 125.910156 C 254.527344 124.113281 253.066406 122.546875 252.695312 120.570312 C 252.664062 120.414062 252.644531 120.253906 252.632812 120.09375 C 252.566406 119.203125 252.757812 118.097656 253.78125 118.054688 Z M 106.253906 242.523438 C 104.300781 241.039062 101.976562 239.980469 100.355469 238.101562 C 99.644531 237.308594 99.152344 236.398438 98.875 235.371094 C 98.75 234.855469 98.472656 232.875 99.414062 233.066406 C 100.136719 233.207031 100.808594 233.898438 101.316406 234.386719 C 101.816406 234.863281 102.277344 235.371094 102.738281 235.878906 C 102.855469 235.980469 102.980469 236 103.121094 235.9375 C 103.261719 235.871094 103.332031 235.761719 103.328125 235.609375 C 103.152344 234.585938 103.175781 233.570312 103.40625 232.558594 C 103.59375 231.765625 103.890625 230.8125 104.5625 230.289062 C 105.199219 229.789062 105.941406 230.015625 106.539062 230.457031 C 106.800781 230.652344 107.050781 230.867188 107.285156 231.09375 C 107.53125 231.332031 107.765625 231.585938 107.988281 231.851562 C 108.304688 232.226562 108.59375 232.621094 108.863281 233.035156 C 108.949219 233.164062 109.066406 233.214844 109.21875 233.191406 C 109.375 233.164062 109.46875 233.074219 109.503906 232.921875 C 109.839844 231.335938 110.222656 229.8125 111.148438 228.441406 C 111.496094 227.925781 111.984375 227.351562 112.539062 227.539062 C 112.542969 227.546875 112.550781 227.550781 112.5625 227.550781 C 112.566406 227.554688 112.578125 227.558594 112.585938 227.566406 L 112.613281 227.574219 C 112.726562 227.628906 112.824219 227.703125 112.910156 227.792969 C 113.644531 228.601562 114.09375 229.542969 114.269531 230.621094 C 114.675781 232.722656 114.261719 234.921875 113.859375 236.992188 C 113.332031 239.664062 112.800781 242.332031 112.347656 245.019531 C 112.285156 245.40625 112.21875 245.789062 112.15625 246.175781 L 112.132812 246.175781 L 110.863281 235.976562 C 110.808594 235.53125 110.105469 235.554688 110.160156 236 C 110.589844 239.429688 111.015625 242.863281 111.441406 246.292969 L 111.4375 246.292969 C 111.378906 246.304688 111.320312 246.320312 111.261719 246.339844 C 110.527344 244.238281 109.433594 242.34375 107.984375 240.65625 C 107.75 240.367188 107.519531 240.082031 107.28125 239.800781 C 106.960938 239.421875 106.640625 239.042969 106.320312 238.667969 C 106.027344 238.328125 105.550781 238.84375 105.84375 239.183594 C 106.324219 239.746094 106.808594 240.3125 107.28125 240.890625 C 107.519531 241.1875 107.753906 241.484375 107.984375 241.785156 C 109.128906 243.21875 109.996094 244.804688 110.589844 246.539062 C 110.386719 246.613281 110.1875 246.703125 110 246.808594 C 109.4375 245.820312 108.761719 244.910156 107.984375 244.078125 C 107.757812 243.839844 107.523438 243.605469 107.28125 243.382812 C 106.953125 243.082031 106.613281 242.792969 106.253906 242.523438 Z M 112.789062 246.921875 C 112.871094 246.949219 112.941406 246.992188 113.003906 247.050781 C 113.183594 247.234375 113.226562 247.574219 113.132812 248.117188 C 112.875 249.398438 112.554688 250.667969 112.167969 251.917969 C 112.140625 252.011719 112.117188 252.105469 112.089844 252.203125 C 112.023438 252.429688 111.957031 252.65625 111.894531 252.886719 C 111.8125 253.160156 111.738281 253.441406 111.660156 253.71875 C 111.585938 253.269531 111.492188 252.824219 111.367188 252.382812 C 111.242188 251.9375 111.089844 251.5 110.910156 251.070312 L 110.867188 250.972656 C 110.753906 250.71875 110.632812 250.46875 110.511719 250.222656 C 110.316406 249.832031 110.136719 249.433594 109.980469 249.027344 C 109.859375 248.703125 109.816406 248.371094 109.855469 248.027344 C 109.875 247.886719 109.933594 247.765625 110.027344 247.660156 C 110.039062 247.644531 110.054688 247.632812 110.074219 247.621094 C 110.15625 247.546875 110.246094 247.484375 110.339844 247.433594 C 110.867188 247.152344 111.425781 246.976562 112.015625 246.902344 C 112.027344 246.902344 112.039062 246.898438 112.050781 246.898438 C 112.300781 246.84375 112.546875 246.851562 112.789062 246.921875 Z M 107.984375 245.136719 C 108.226562 245.421875 108.460938 245.71875 108.679688 246.027344 C 108.960938 246.421875 109.21875 246.832031 109.453125 247.253906 C 109.078125 247.710938 109.03125 248.433594 109.320312 249.261719 C 109.484375 249.695312 109.671875 250.117188 109.882812 250.527344 C 109.996094 250.769531 110.117188 251.011719 110.222656 251.253906 C 110.949219 252.929688 111.222656 254.675781 111.046875 256.492188 C 110.984375 256.871094 110.945312 257.25 110.925781 257.632812 L 110.660156 259.316406 C 110.59375 259.785156 110.519531 260.253906 110.4375 260.726562 C 110.011719 259.144531 109.328125 257.683594 108.386719 256.34375 C 108.261719 256.15625 108.121094 255.980469 107.984375 255.796875 Z M 104.90625 257.207031 C 103.128906 255.269531 101.53125 252.882812 101.460938 250.183594 C 102.609375 250.992188 103.652344 251.921875 104.582031 252.972656 C 105.542969 253.9375 106.441406 254.957031 107.28125 256.027344 C 107.410156 256.195312 107.539062 256.359375 107.664062 256.53125 C 107.769531 256.6875 107.875 256.84375 107.984375 257.007812 C 109.011719 258.582031 109.964844 260.59375 109.949219 262.511719 C 109.457031 261.707031 108.859375 260.992188 108.15625 260.363281 L 107.980469 260.199219 C 107.746094 259.984375 107.511719 259.765625 107.277344 259.550781 C 106.46875 258.792969 105.664062 258.03125 104.90625 257.207031 Z M 109.804688 263.84375 C 109.8125 263.867188 109.820312 263.886719 109.828125 263.910156 C 109.328125 266.269531 108.707031 268.597656 107.984375 270.894531 L 107.984375 261.183594 C 108.800781 261.925781 109.40625 262.8125 109.808594 263.84375 Z M 106.761719 279.726562 C 106.757812 278.128906 106.933594 276.550781 107.28125 274.992188 L 107.28125 284.046875 C 107.160156 283.527344 107.054688 283.027344 107.011719 282.675781 L 107.015625 282.675781 C 106.855469 281.699219 106.773438 280.714844 106.761719 279.726562 Z M 260.628906 288.371094 L 107.984375 288.371094 L 107.984375 273.160156 C 108.140625 272.703125 108.289062 272.242188 108.441406 271.785156 L 108.441406 271.816406 L 108.921875 270.816406 C 109.664062 269.339844 111.542969 268.929688 112.875 268.152344 C 113.792969 267.613281 114.640625 266.976562 115.417969 266.246094 C 116.195312 265.515625 116.882812 264.710938 117.484375 263.828125 C 118.082031 262.949219 118.578125 262.011719 118.96875 261.019531 C 119.359375 260.027344 119.640625 259.007812 119.804688 257.953125 C 119.839844 257.78125 119.777344 257.65625 119.621094 257.574219 C 119.46875 257.492188 119.328125 257.511719 119.203125 257.636719 C 116.164062 261.128906 112.222656 263.894531 109.636719 267.75 C 110.214844 265.589844 110.691406 263.398438 111.074219 261.175781 C 111.152344 261.148438 111.210938 261.09375 111.25 261.019531 C 112.753906 258.132812 115.683594 256.300781 117.695312 253.804688 C 119.628906 251.402344 120.980469 248.507812 120.992188 245.378906 C 120.980469 245.226562 120.902344 245.125 120.761719 245.070312 C 120.617188 245.015625 120.488281 245.042969 120.382812 245.15625 C 116.425781 248.734375 113.488281 253.011719 111.574219 257.992188 L 111.621094 257.703125 C 111.640625 257.355469 111.675781 257.011719 111.734375 256.667969 C 111.730469 256.660156 111.730469 256.648438 111.734375 256.640625 C 111.734375 256.628906 111.734375 256.621094 111.738281 256.613281 C 112.015625 255.089844 112.382812 253.585938 112.839844 252.109375 C 113.234375 250.835938 113.5625 249.542969 113.824219 248.234375 C 114 247.621094 113.894531 247.058594 113.5 246.554688 C 113.332031 246.386719 113.128906 246.277344 112.898438 246.226562 C 112.957031 245.859375 113.023438 245.488281 113.089844 245.097656 C 113.09375 245.085938 113.097656 245.082031 113.101562 245.074219 C 113.101562 245.074219 113.734375 241.535156 113.730469 241.539062 C 113.730469 241.53125 113.734375 241.519531 113.738281 241.511719 C 114.074219 239.726562 114.414062 237.941406 114.734375 236.144531 C 115.246094 233.25 115.550781 230.035156 113.65625 227.542969 C 113.378906 227.203125 113.027344 226.972656 112.601562 226.859375 C 112.308594 226.796875 112.023438 226.8125 111.742188 226.917969 C 111.460938 227.019531 111.230469 227.191406 111.050781 227.429688 C 109.878906 228.667969 109.359375 230.347656 108.988281 231.988281 C 108.683594 231.566406 108.347656 231.164062 107.984375 230.789062 L 107.984375 155.625 C 107.984375 113.542969 142.222656 79.304688 184.304688 79.304688 C 187.777344 79.304688 191.230469 79.542969 194.667969 80.019531 C 198.105469 80.492188 201.496094 81.195312 204.835938 82.128906 C 208.175781 83.066406 211.441406 84.222656 214.625 85.601562 C 217.808594 86.984375 220.882812 88.574219 223.851562 90.371094 C 226.816406 92.171875 229.648438 94.164062 232.34375 96.347656 C 235.042969 98.53125 237.578125 100.890625 239.953125 103.421875 C 242.324219 105.949219 244.519531 108.628906 246.527344 111.460938 C 248.535156 114.289062 250.34375 117.242188 251.953125 120.316406 C 251.972656 120.527344 252.007812 120.738281 252.054688 120.945312 C 252.445312 122.628906 253.566406 124.027344 254.371094 125.527344 C 255.296875 127.257812 255.703125 129.277344 255.972656 131.210938 C 256.019531 131.523438 256.054688 131.839844 256.078125 132.160156 C 255.839844 132.234375 255.640625 132.371094 255.488281 132.570312 C 255.089844 133.050781 255.136719 133.726562 255.144531 134.308594 C 255.144531 134.953125 255.15625 135.601562 255.167969 136.242188 C 255.199219 137.714844 255.261719 139.195312 255.246094 140.675781 C 255.242188 140.722656 255.246094 140.765625 255.257812 140.8125 L 255.261719 140.816406 C 255.234375 141.195312 255.230469 141.570312 255.25 141.949219 C 254.148438 139.554688 252.746094 137.351562 251.042969 135.339844 C 249.351562 133.332031 247.429688 131.570312 245.277344 130.066406 C 245.019531 129.886719 244.6875 130.195312 244.765625 130.46875 C 245.605469 133.539062 247.015625 136.324219 248.992188 138.820312 C 250.871094 141.082031 253.070312 142.96875 255.59375 144.480469 L 255.597656 144.484375 C 255.972656 146.054688 256.496094 147.582031 257.15625 149.054688 C 257.351562 149.511719 257.542969 149.964844 257.753906 150.414062 C 257.742188 150.40625 257.730469 150.398438 257.714844 150.390625 C 257.125 149.964844 256.511719 149.585938 255.867188 149.246094 C 254.5 148.59375 253.058594 148.195312 251.550781 148.046875 C 248.519531 147.664062 245.617188 148.105469 242.839844 149.375 C 242.769531 149.375 242.710938 149.402344 242.664062 149.453125 C 242.589844 149.5 242.542969 149.566406 242.527344 149.652344 C 242.515625 149.742188 242.535156 149.820312 242.59375 149.886719 C 242.632812 149.980469 242.699219 150.042969 242.796875 150.070312 C 243.652344 150.378906 244.503906 150.734375 245.367188 150.996094 C 245.902344 151.152344 246.445312 151.277344 246.996094 151.367188 C 247.007812 151.574219 247.035156 151.777344 247.070312 151.980469 C 246.21875 151.824219 245.265625 151.886719 244.871094 152.785156 C 244.75 153.082031 244.710938 153.382812 244.753906 153.699219 C 244.796875 154.011719 244.914062 154.292969 245.109375 154.542969 C 244.269531 154.761719 243.433594 155.207031 243.421875 156.167969 C 243.402344 157.519531 244.832031 157.96875 245.925781 158.050781 C 247.296875 158.082031 248.660156 157.988281 250.015625 157.769531 C 250.101562 157.757812 250.1875 157.75 250.269531 157.746094 C 250.429688 158.109375 250.703125 158.316406 251.09375 158.371094 C 251.578125 158.460938 252.070312 158.507812 252.554688 158.566406 C 253.71875 158.710938 254.898438 158.835938 256.058594 158.992188 L 256.0625 158.996094 L 256.070312 158.996094 C 256.320312 159.089844 256.574219 159.160156 256.816406 159.230469 C 257.375 159.398438 257.9375 159.539062 258.496094 159.710938 C 259.289062 159.925781 260 160.296875 260.632812 160.824219 L 260.632812 172.371094 C 259.957031 170.269531 259.210938 168.175781 257.824219 166.429688 C 256.046875 164.257812 253.863281 162.640625 251.269531 161.574219 C 251.234375 161.546875 251.195312 161.53125 251.152344 161.523438 L 251.148438 161.523438 C 251.136719 161.519531 251.121094 161.515625 251.109375 161.515625 C 251.023438 161.488281 250.945312 161.5 250.871094 161.546875 C 250.792969 161.59375 250.75 161.660156 250.734375 161.746094 C 250.703125 161.808594 250.695312 161.875 250.707031 161.941406 C 250.890625 162.726562 251.160156 163.480469 251.511719 164.207031 C 252.070312 165.523438 252.835938 166.703125 253.808594 167.753906 C 254.867188 168.875 256.011719 169.898438 257.246094 170.828125 C 258.289062 171.648438 260.007812 172.601562 260.453125 174.070312 L 260.628906 174.125 Z M 109.660156 269.042969 C 111.960938 265.097656 115.753906 262.339844 118.867188 259.050781 C 118.25 261.496094 117.054688 263.617188 115.273438 265.410156 C 114.246094 266.449219 113.082031 267.296875 111.773438 267.949219 C 111.046875 268.273438 110.34375 268.636719 109.660156 269.042969 Z M 112.113281 258.554688 C 113.878906 253.824219 116.589844 249.71875 120.25 246.238281 C 120 249.15625 118.535156 251.808594 116.617188 253.996094 C 115.21875 255.589844 113.5 256.9375 112.113281 258.550781 Z M 255.070312 143.3125 C 253 141.96875 251.171875 140.34375 249.589844 138.449219 C 247.867188 136.292969 246.585938 133.902344 245.75 131.273438 C 247.816406 132.824219 249.640625 134.617188 251.222656 136.664062 C 252.804688 138.707031 254.089844 140.921875 255.070312 143.3125 Z M 259.75 171.929688 C 259.367188 171.585938 258.953125 171.273438 258.554688 170.960938 C 257.257812 170 256.027344 168.960938 254.863281 167.84375 C 253.730469 166.738281 252.835938 165.460938 252.183594 164.015625 C 251.980469 163.539062 251.734375 163.003906 251.566406 162.476562 C 253.828125 163.503906 255.746094 164.984375 257.308594 166.914062 C 258.425781 168.4375 259.238281 170.109375 259.75 171.929688 Z M 266.609375 163.585938 C 265.492188 165.109375 264.144531 166.386719 262.5625 167.421875 C 262.773438 166.953125 262.949219 166.46875 263.125 165.988281 C 263.652344 164.464844 264.273438 162.980469 264.988281 161.535156 C 265.703125 160.117188 266.652344 158.882812 267.832031 157.824219 C 268.226562 157.488281 268.660156 157.09375 269.117188 156.773438 C 268.816406 159.242188 267.980469 161.511719 266.609375 163.585938 Z M 266.609375 163.585938 " fill-opacity="1" fill-rule="nonzero"/></g><g fill="#fbf9f6" fill-opacity="1"><g transform="translate(145.920113, 197.749499)"><g><path d="M 1.546875 0.515625 L 5.453125 0.515625 C 5.765625 0.515625 5.96875 0.3125 5.96875 0.109375 C 5.96875 -0.203125 5.765625 -0.40625 5.453125 -0.40625 C 5.15625 -0.40625 4.84375 -0.625 4.734375 -0.828125 C 4.53125 -1.03125 4.53125 -1.34375 4.640625 -1.75 L 17.3125 -43.78125 C 30.703125 -39.671875 41.421875 -29.359375 46.0625 -16.078125 C 46.0625 -15.96875 46.0625 -15.96875 46.0625 -15.96875 L 50.375 -1.75 C 50.484375 -1.34375 50.484375 -1.03125 50.28125 -0.828125 C 50.078125 -0.625 49.859375 -0.40625 49.453125 -0.40625 C 49.25 -0.40625 48.9375 -0.203125 48.9375 0.109375 C 48.9375 0.3125 49.25 0.515625 49.453125 0.515625 L 55.84375 0.515625 C 56.15625 0.515625 56.359375 0.3125 56.359375 0.109375 C 56.359375 -0.203125 56.15625 -0.40625 55.84375 -0.40625 C 55.015625 -0.40625 53.984375 -1.234375 53.78125 -2.0625 L 29.15625 -83.453125 C 29.15625 -83.453125 29.15625 -83.5625 29.15625 -83.5625 C 29.15625 -83.5625 29.0625 -83.65625 29.0625 -83.65625 C 29.0625 -83.65625 29.0625 -83.65625 28.953125 -83.65625 C 28.953125 -83.765625 28.953125 -83.765625 28.953125 -83.765625 C 28.84375 -83.765625 28.84375 -83.765625 28.84375 -83.765625 C 28.75 -83.765625 28.75 -83.765625 28.75 -83.765625 C 28.640625 -83.765625 28.640625 -83.765625 28.640625 -83.765625 C 28.640625 -83.765625 28.546875 -83.765625 28.546875 -83.765625 C 28.546875 -83.765625 28.4375 -83.765625 28.4375 -83.65625 C 28.4375 -83.65625 28.328125 -83.65625 28.328125 -83.65625 C 28.328125 -83.65625 28.328125 -83.5625 28.328125 -83.5625 C 28.328125 -83.5625 28.234375 -83.453125 28.234375 -83.453125 L 28.234375 -83.359375 L 27 -79.4375 C 27 -79.4375 27 -79.328125 27 -79.328125 L 16.484375 -44.609375 L 3.609375 -2.0625 C 3.40625 -1.234375 2.46875 -0.40625 1.546875 -0.40625 C 1.34375 -0.40625 1.140625 -0.203125 1.140625 0.109375 C 1.140625 0.3125 1.34375 0.515625 1.546875 0.515625 Z M 17.625 -44.8125 L 27.515625 -77.484375 L 43.78125 -23.59375 C 38.21875 -33.6875 28.84375 -41.3125 17.625 -44.8125 Z M 17.625 -44.8125 "/></g></g></g><g fill="#fbf9f6" fill-opacity="1"><g transform="translate(179.337576, 271.057717)"><g><path d="M 61.921875 -82.109375 C 62.234375 -82.109375 62.4375 -82.328125 62.4375 -82.625 C 62.4375 -82.9375 62.234375 -83.140625 61.921875 -83.140625 L 55.734375 -83.140625 C 55.4375 -83.140625 55.21875 -82.9375 55.21875 -82.625 C 55.21875 -82.328125 55.4375 -82.109375 55.734375 -82.109375 C 56.46875 -82.109375 57.1875 -81.5 57.1875 -80.671875 L 57.1875 -56.25 C 57.1875 -43.78125 39.765625 -32.046875 11.84375 -25.75 L 11.84375 -80.671875 C 11.84375 -81.5 12.46875 -82.109375 13.296875 -82.109375 C 13.59375 -82.109375 13.8125 -82.328125 13.8125 -82.625 C 13.8125 -82.9375 13.59375 -83.140625 13.296875 -83.140625 L 7 -83.140625 C 6.796875 -83.140625 6.59375 -82.9375 6.59375 -82.625 C 6.59375 -82.328125 6.796875 -82.109375 7 -82.109375 C 7.828125 -82.109375 8.546875 -81.5 8.546875 -80.671875 L 8.546875 -1.953125 C 8.546875 -1.140625 7.828125 -0.40625 7 -0.40625 C 6.796875 -0.40625 6.59375 -0.203125 6.59375 0.109375 C 6.59375 0.3125 6.796875 0.515625 7 0.515625 L 13.296875 0.515625 C 13.59375 0.515625 13.8125 0.3125 13.8125 0.109375 C 13.8125 -0.203125 13.59375 -0.40625 13.296875 -0.40625 C 12.46875 -0.40625 11.84375 -1.140625 11.84375 -1.953125 L 11.84375 -24.625 C 36.46875 -30.1875 53.0625 -39.96875 57.1875 -50.890625 L 57.1875 -1.953125 C 57.1875 -1.140625 56.46875 -0.40625 55.734375 -0.40625 C 55.4375 -0.40625 55.21875 -0.203125 55.21875 0.109375 C 55.21875 0.3125 55.4375 0.515625 55.734375 0.515625 L 61.921875 0.515625 C 62.234375 0.515625 62.4375 0.3125 62.4375 0.109375 C 62.4375 -0.203125 62.234375 -0.40625 61.921875 -0.40625 C 61.09375 -0.40625 60.484375 -1.140625 60.484375 -1.953125 L 60.484375 -80.671875 C 60.484375 -81.5 61.09375 -82.109375 61.921875 -82.109375 Z M 61.921875 -82.109375 "/></g></g></g><g fill="#fbf9f6" fill-opacity="1"><g transform="translate(129.619698, 240.547719)"><g><path d="M 44.0625 -43.5625 C 43.71875 -43.640625 43.46875 -43.640625 43.140625 -43.640625 C 42.640625 -43.71875 42.0625 -43.71875 41.3125 -43.71875 C 38.90625 -43.71875 36.578125 -43.390625 34.40625 -42.640625 C 34.40625 -42.640625 34.328125 -42.640625 34.328125 -42.640625 C 29.265625 -40.890625 25.609375 -37.65625 24.109375 -33.75 C 15.796875 -33.828125 9.0625 -41.140625 9.0625 -50.203125 C 9.0625 -59.34375 15.875 -66.75 24.1875 -66.75 C 24.265625 -66.75 24.265625 -66.75 24.265625 -66.75 C 24.609375 -66.75 24.9375 -66.75 25.265625 -66.75 C 27.9375 -66.75 30.5 -66.421875 32.921875 -65.578125 C 42.390625 -62.34375 43.5625 -56.1875 42.890625 -51.625 C 42.890625 -51.53125 42.890625 -51.375 42.96875 -51.28125 C 43.0625 -51.203125 43.140625 -51.203125 43.3125 -51.203125 L 45.546875 -51.203125 C 45.796875 -51.203125 45.96875 -51.375 45.96875 -51.625 C 45.96875 -58.109375 40.984375 -63.921875 33.171875 -66.421875 C 30.671875 -67.171875 28.015625 -67.578125 25.265625 -67.578125 C 24.9375 -67.578125 24.609375 -67.578125 24.359375 -67.578125 C 24.265625 -67.578125 24.265625 -67.578125 24.265625 -67.578125 L 23.1875 -67.578125 C 13.796875 -67.578125 6.15625 -59.84375 6.15625 -50.203125 C 6.15625 -41.984375 11.890625 -35 19.53125 -33.328125 C 11.890625 -31.59375 6.15625 -24.6875 6.15625 -16.375 C 6.15625 -6.8125 13.796875 1 23.1875 1 L 24.265625 1 C 24.359375 1 24.4375 1 24.609375 1 C 24.6875 1 24.765625 1 24.9375 1 L 25.4375 1 C 28.171875 1 30.75 0.578125 33.171875 -0.25 C 33.171875 -0.25 33.25 -0.25 33.25 -0.25 C 40.984375 -2.75 45.96875 -8.5625 45.96875 -15.046875 L 52.125 -18.625 C 56.6875 -21.28125 59.34375 -25.4375 59.34375 -29.84375 C 59.34375 -36.734375 52.78125 -42.5625 44.0625 -43.5625 Z M 32.921875 -1 C 30.75 -0.328125 28.421875 0.078125 26.015625 0.171875 C 26.84375 -2.578125 28.84375 -5.078125 31.84375 -6.8125 L 43.0625 -13.390625 C 43.21875 -9.0625 41.3125 -3.90625 32.921875 -1 Z M 51.03125 -21.109375 L 30.75 -9.3125 C 26.765625 -6.984375 24.265625 -3.578125 23.6875 0.171875 C 15.546875 -0.25 9.0625 -7.5625 9.0625 -16.375 C 9.0625 -25.359375 15.625 -32.578125 23.859375 -32.828125 C 23.53125 -31.84375 23.359375 -30.84375 23.359375 -29.765625 C 23.359375 -29.515625 23.609375 -29.34375 23.78125 -29.34375 L 25.765625 -29.34375 C 25.859375 -29.34375 26.015625 -29.421875 26.015625 -29.515625 C 26.09375 -29.59375 26.1875 -29.671875 26.1875 -29.84375 C 25.515625 -33.75 26.515625 -38.984375 34.578125 -41.8125 C 34.578125 -41.890625 34.65625 -41.890625 34.65625 -41.890625 C 36.734375 -42.5625 38.984375 -42.890625 41.3125 -42.890625 C 41.984375 -42.890625 42.5625 -42.890625 43.0625 -42.890625 C 43.390625 -42.8125 43.640625 -42.8125 43.96875 -42.8125 C 51.703125 -41.8125 57.265625 -36.828125 57.265625 -30.84375 C 57.265625 -27.015625 55.03125 -23.4375 51.03125 -21.109375 Z M 51.03125 -21.109375 "/></g></g></g><g fill="#ffffff" fill-opacity="1"><g transform="translate(134.067996, 311.234686)"><g><path d="M 2.9375 -3.71875 L 2.046875 -1.5 C 1.910156 -1.15625 1.84375 -0.875 1.84375 -0.65625 C 1.84375 -0.351562 1.984375 -0.132812 2.265625 0 L 0.265625 0 C 0.359375 0 0.492188 -0.09375 0.671875 -0.28125 C 0.847656 -0.46875 1.050781 -0.832031 1.28125 -1.375 L 4.921875 -10.046875 L 8.546875 -1.34375 C 8.742188 -0.84375 8.9375 -0.5 9.125 -0.3125 C 9.320312 -0.125 9.472656 -0.0195312 9.578125 0 L 7.265625 0 C 7.503906 -0.113281 7.625 -0.285156 7.625 -0.515625 C 7.625 -0.710938 7.546875 -0.992188 7.390625 -1.359375 L 6.421875 -3.71875 Z M 6.1875 -4.296875 L 4.671875 -8.015625 L 3.1875 -4.296875 Z M 6.1875 -4.296875 "/></g></g></g><g fill="#ffffff" fill-opacity="1"><g transform="translate(146.117928, 311.234686)"><g><path d="M 10.171875 -9.59375 C 10.035156 -9.570312 9.90625 -9.46875 9.78125 -9.28125 C 9.65625 -9.101562 9.59375 -8.785156 9.59375 -8.328125 L 9.59375 0.390625 L 2.453125 -7.9375 L 2.453125 -1.25 C 2.453125 -0.8125 2.53125 -0.5 2.6875 -0.3125 C 2.851562 -0.132812 3.007812 -0.03125 3.15625 0 L 1.1875 0 C 1.3125 -0.03125 1.441406 -0.132812 1.578125 -0.3125 C 1.710938 -0.5 1.78125 -0.816406 1.78125 -1.265625 L 1.78125 -8.25 C 1.78125 -8.5625 1.671875 -8.847656 1.453125 -9.109375 C 1.242188 -9.367188 0.976562 -9.53125 0.65625 -9.59375 L 2.390625 -9.59375 L 8.9375 -1.96875 L 8.9375 -8.328125 C 8.9375 -9.046875 8.691406 -9.46875 8.203125 -9.59375 Z M 10.171875 -9.59375 "/></g></g></g><g fill="#ffffff" fill-opacity="1"><g transform="translate(159.72965, 311.234686)"><g><path d="M 7.421875 0 C 7.421875 0.03125 7.476562 0.0078125 7.59375 -0.0625 C 7.707031 -0.132812 7.804688 -0.265625 7.890625 -0.453125 C 7.984375 -0.640625 8.03125 -0.921875 8.03125 -1.296875 L 8.03125 -4.46875 L 2.796875 -4.46875 L 2.796875 -1.296875 C 2.796875 -0.921875 2.835938 -0.640625 2.921875 -0.453125 C 3.015625 -0.265625 3.117188 -0.132812 3.234375 -0.0625 C 3.347656 0 3.40625 0.0195312 3.40625 0 L 1.1875 0 C 1.1875 0.03125 1.238281 0.0078125 1.34375 -0.0625 C 1.457031 -0.132812 1.554688 -0.265625 1.640625 -0.453125 C 1.734375 -0.640625 1.78125 -0.921875 1.78125 -1.296875 L 1.78125 -8.296875 C 1.78125 -8.671875 1.734375 -8.953125 1.640625 -9.140625 C 1.554688 -9.335938 1.457031 -9.46875 1.34375 -9.53125 C 1.238281 -9.59375 1.1875 -9.613281 1.1875 -9.59375 L 3.40625 -9.59375 C 3.40625 -9.613281 3.347656 -9.59375 3.234375 -9.53125 C 3.117188 -9.46875 3.015625 -9.335938 2.921875 -9.140625 C 2.835938 -8.953125 2.796875 -8.671875 2.796875 -8.296875 L 2.796875 -5.078125 L 8.03125 -5.078125 L 8.03125 -8.296875 C 8.03125 -8.671875 7.984375 -8.953125 7.890625 -9.140625 C 7.804688 -9.335938 7.707031 -9.46875 7.59375 -9.53125 C 7.476562 -9.59375 7.421875 -9.613281 7.421875 -9.59375 L 9.640625 -9.59375 C 9.640625 -9.625 9.582031 -9.601562 9.46875 -9.53125 C 9.363281 -9.46875 9.265625 -9.335938 9.171875 -9.140625 C 9.085938 -8.953125 9.046875 -8.671875 9.046875 -8.296875 L 9.046875 -1.296875 C 9.046875 -0.921875 9.09375 -0.640625 9.1875 -0.453125 C 9.28125 -0.265625 9.378906 -0.132812 9.484375 -0.0625 C 9.597656 0 9.65625 0.0195312 9.65625 0 Z M 7.421875 0 "/></g></g></g><g fill="#ffffff" fill-opacity="1"><g transform="translate(172.783585, 311.234686)"><g/></g></g><g fill="#ffffff" fill-opacity="1"><g transform="translate(178.809445, 311.234686)"><g><path d="M 9.59375 -0.4375 C 9.351562 -0.03125 9.050781 0.171875 8.6875 0.171875 C 8.414062 0.171875 8.082031 0.0507812 7.6875 -0.1875 C 7.300781 -0.4375 6.820312 -0.796875 6.25 -1.265625 C 5.3125 -0.304688 4.390625 0.171875 3.484375 0.171875 C 2.628906 0.171875 1.960938 -0.0546875 1.484375 -0.515625 C 1.015625 -0.972656 0.78125 -1.566406 0.78125 -2.296875 C 0.78125 -2.890625 0.945312 -3.382812 1.28125 -3.78125 C 1.625 -4.175781 2.128906 -4.585938 2.796875 -5.015625 C 2.046875 -5.972656 1.671875 -6.8125 1.671875 -7.53125 C 1.671875 -8.019531 1.78125 -8.429688 2 -8.765625 C 2.21875 -9.097656 2.503906 -9.347656 2.859375 -9.515625 C 3.210938 -9.679688 3.585938 -9.765625 3.984375 -9.765625 C 4.359375 -9.765625 4.710938 -9.691406 5.046875 -9.546875 C 5.378906 -9.398438 5.644531 -9.1875 5.84375 -8.90625 C 6.039062 -8.625 6.140625 -8.289062 6.140625 -7.90625 C 6.140625 -7.375 5.945312 -6.898438 5.5625 -6.484375 C 5.1875 -6.066406 4.644531 -5.625 3.9375 -5.15625 C 4.789062 -4.09375 5.628906 -3.175781 6.453125 -2.40625 C 6.828125 -3 7.117188 -3.515625 7.328125 -3.953125 C 7.546875 -4.398438 7.65625 -4.800781 7.65625 -5.15625 C 7.65625 -5.5 7.546875 -5.78125 7.328125 -6 L 9.140625 -6 C 8.921875 -5.78125 8.601562 -5.203125 8.1875 -4.265625 C 7.90625 -3.609375 7.46875 -2.875 6.875 -2.0625 C 6.9375 -2.03125 7.019531 -1.96875 7.125 -1.875 C 7.59375 -1.5 8 -1.203125 8.34375 -0.984375 C 8.695312 -0.773438 9.03125 -0.671875 9.34375 -0.671875 C 9.4375 -0.671875 9.597656 -0.738281 9.828125 -0.875 C 9.765625 -0.71875 9.6875 -0.570312 9.59375 -0.4375 Z M 3.890625 -9.328125 C 3.421875 -9.328125 3.078125 -9.1875 2.859375 -8.90625 C 2.640625 -8.632812 2.53125 -8.304688 2.53125 -7.921875 C 2.53125 -7.578125 2.640625 -7.1875 2.859375 -6.75 C 3.085938 -6.320312 3.351562 -5.914062 3.65625 -5.53125 C 4.226562 -5.882812 4.640625 -6.234375 4.890625 -6.578125 C 5.140625 -6.921875 5.265625 -7.316406 5.265625 -7.765625 C 5.265625 -8.285156 5.128906 -8.675781 4.859375 -8.9375 C 4.585938 -9.195312 4.265625 -9.328125 3.890625 -9.328125 Z M 3.09375 -4.625 C 2.625 -4.332031 2.269531 -4.023438 2.03125 -3.703125 C 1.789062 -3.390625 1.671875 -3.023438 1.671875 -2.609375 C 1.671875 -2.242188 1.765625 -1.898438 1.953125 -1.578125 C 2.148438 -1.253906 2.410156 -0.992188 2.734375 -0.796875 C 3.054688 -0.597656 3.40625 -0.5 3.78125 -0.5 C 4.175781 -0.5 4.519531 -0.585938 4.8125 -0.765625 C 5.101562 -0.953125 5.445312 -1.238281 5.84375 -1.625 C 5.375 -2.0625 4.894531 -2.546875 4.40625 -3.078125 C 3.914062 -3.617188 3.476562 -4.132812 3.09375 -4.625 Z M 3.09375 -4.625 "/></g></g></g><g fill="#ffffff" fill-opacity="1"><g transform="translate(191.347435, 311.234686)"><g/></g></g><g fill="#ffffff" fill-opacity="1"><g transform="translate(197.373295, 311.234686)"><g><path d="M 7.421875 0 C 7.421875 0.03125 7.476562 0.0078125 7.59375 -0.0625 C 7.707031 -0.132812 7.804688 -0.265625 7.890625 -0.453125 C 7.984375 -0.640625 8.03125 -0.921875 8.03125 -1.296875 L 8.03125 -4.46875 L 2.796875 -4.46875 L 2.796875 -1.296875 C 2.796875 -0.921875 2.835938 -0.640625 2.921875 -0.453125 C 3.015625 -0.265625 3.117188 -0.132812 3.234375 -0.0625 C 3.347656 0 3.40625 0.0195312 3.40625 0 L 1.1875 0 C 1.1875 0.03125 1.238281 0.0078125 1.34375 -0.0625 C 1.457031 -0.132812 1.554688 -0.265625 1.640625 -0.453125 C 1.734375 -0.640625 1.78125 -0.921875 1.78125 -1.296875 L 1.78125 -8.296875 C 1.78125 -8.671875 1.734375 -8.953125 1.640625 -9.140625 C 1.554688 -9.335938 1.457031 -9.46875 1.34375 -9.53125 C 1.238281 -9.59375 1.1875 -9.613281 1.1875 -9.59375 L 3.40625 -9.59375 C 3.40625 -9.613281 3.347656 -9.59375 3.234375 -9.53125 C 3.117188 -9.46875 3.015625 -9.335938 2.921875 -9.140625 C 2.835938 -8.953125 2.796875 -8.671875 2.796875 -8.296875 L 2.796875 -5.078125 L 8.03125 -5.078125 L 8.03125 -8.296875 C 8.03125 -8.671875 7.984375 -8.953125 7.890625 -9.140625 C 7.804688 -9.335938 7.707031 -9.46875 7.59375 -9.53125 C 7.476562 -9.59375 7.421875 -9.613281 7.421875 -9.59375 L 9.640625 -9.59375 C 9.640625 -9.625 9.582031 -9.601562 9.46875 -9.53125 C 9.363281 -9.46875 9.265625 -9.335938 9.171875 -9.140625 C 9.085938 -8.953125 9.046875 -8.671875 9.046875 -8.296875 L 9.046875 -1.296875 C 9.046875 -0.921875 9.09375 -0.640625 9.1875 -0.453125 C 9.28125 -0.265625 9.378906 -0.132812 9.484375 -0.0625 C 9.597656 0 9.65625 0.0195312 9.65625 0 Z M 7.421875 0 "/></g></g></g><g fill="#ffffff" fill-opacity="1"><g transform="translate(210.427232, 311.234686)"><g><path d="M 2.9375 -3.71875 L 2.046875 -1.5 C 1.910156 -1.15625 1.84375 -0.875 1.84375 -0.65625 C 1.84375 -0.351562 1.984375 -0.132812 2.265625 0 L 0.265625 0 C 0.359375 0 0.492188 -0.09375 0.671875 -0.28125 C 0.847656 -0.46875 1.050781 -0.832031 1.28125 -1.375 L 4.921875 -10.046875 L 8.546875 -1.34375 C 8.742188 -0.84375 8.9375 -0.5 9.125 -0.3125 C 9.320312 -0.125 9.472656 -0.0195312 9.578125 0 L 7.265625 0 C 7.503906 -0.113281 7.625 -0.285156 7.625 -0.515625 C 7.625 -0.710938 7.546875 -0.992188 7.390625 -1.359375 L 6.421875 -3.71875 Z M 6.1875 -4.296875 L 4.671875 -8.015625 L 3.1875 -4.296875 Z M 6.1875 -4.296875 "/></g></g></g><g fill="#ffffff" fill-opacity="1"><g transform="translate(222.47716, 311.234686)"><g><path d="M 10.171875 -9.59375 C 10.035156 -9.570312 9.90625 -9.46875 9.78125 -9.28125 C 9.65625 -9.101562 9.59375 -8.785156 9.59375 -8.328125 L 9.59375 0.390625 L 2.453125 -7.9375 L 2.453125 -1.25 C 2.453125 -0.8125 2.53125 -0.5 2.6875 -0.3125 C 2.851562 -0.132812 3.007812 -0.03125 3.15625 0 L 1.1875 0 C 1.3125 -0.03125 1.441406 -0.132812 1.578125 -0.3125 C 1.710938 -0.5 1.78125 -0.816406 1.78125 -1.265625 L 1.78125 -8.25 C 1.78125 -8.5625 1.671875 -8.847656 1.453125 -9.109375 C 1.242188 -9.367188 0.976562 -9.53125 0.65625 -9.59375 L 2.390625 -9.59375 L 8.9375 -1.96875 L 8.9375 -8.328125 C 8.9375 -9.046875 8.691406 -9.46875 8.203125 -9.59375 Z M 10.171875 -9.59375 "/></g></g></g></svg>