<svg xmlns="http://www.w3.org/2000/svg" xmlns:xlink="http://www.w3.org/1999/xlink" width="500" zoomAndPan="magnify" viewBox="0 0 375 374.999991" height="500" preserveAspectRatio="xMidYMid meet" version="1.0"><defs><g/><clipPath id="6a5a0c34f9"><path d="M 98 78.347656 L 269.585938 78.347656 L 269.585938 289.097656 L 98 289.097656 Z M 98 78.347656 " clip-rule="nonzero"/></clipPath></defs><rect x="-37.5" width="450" fill="#ffffff" y="-37.499999" height="449.999989" fill-opacity="1"/><rect x="-37.5" width="450" fill="#ffffff" y="-37.499999" height="449.999989" fill-opacity="1"/><g fill="#bc8c96" fill-opacity="1"><g transform="translate(149.987015, 187.021338)"><g><path d="M 1.390625 0.46875 L 4.921875 0.46875 C 5.203125 0.46875 5.390625 0.28125 5.390625 0.09375 C 5.390625 -0.1875 5.203125 -0.375 4.921875 -0.375 C 4.640625 -0.375 4.375 -0.5625 4.28125 -0.75 C 4.09375 -0.921875 4.09375 -1.203125 4.1875 -1.578125 L 15.609375 -39.5 C 27.703125 -35.78125 37.375 -26.484375 41.546875 -14.5 C 41.546875 -14.40625 41.546875 -14.40625 41.546875 -14.40625 L 45.453125 -1.578125 C 45.546875 -1.203125 45.546875 -0.921875 45.359375 -0.75 C 45.171875 -0.5625 44.984375 -0.375 44.625 -0.375 C 44.4375 -0.375 44.15625 -0.1875 44.15625 0.09375 C 44.15625 0.28125 44.4375 0.46875 44.625 0.46875 L 50.375 0.46875 C 50.65625 0.46875 50.84375 0.28125 50.84375 0.09375 C 50.84375 -0.1875 50.65625 -0.375 50.375 -0.375 C 49.640625 -0.375 48.703125 -1.109375 48.515625 -1.859375 L 26.3125 -75.296875 C 26.3125 -75.296875 26.3125 -75.390625 26.3125 -75.390625 C 26.3125 -75.390625 26.21875 -75.484375 26.21875 -75.484375 C 26.21875 -75.484375 26.21875 -75.484375 26.125 -75.484375 C 26.125 -75.578125 26.125 -75.578125 26.125 -75.578125 C 26.03125 -75.578125 26.03125 -75.578125 26.03125 -75.578125 C 25.9375 -75.578125 25.9375 -75.578125 25.9375 -75.578125 C 25.84375 -75.578125 25.84375 -75.578125 25.84375 -75.578125 C 25.84375 -75.578125 25.75 -75.578125 25.75 -75.578125 C 25.75 -75.578125 25.65625 -75.578125 25.65625 -75.484375 C 25.65625 -75.484375 25.5625 -75.484375 25.5625 -75.484375 C 25.5625 -75.484375 25.5625 -75.390625 25.5625 -75.390625 C 25.5625 -75.390625 25.46875 -75.296875 25.46875 -75.296875 L 25.46875 -75.203125 L 24.359375 -71.671875 C 24.359375 -71.671875 24.359375 -71.578125 24.359375 -71.578125 L 14.875 -40.25 L 3.25 -1.859375 C 3.0625 -1.109375 2.234375 -0.375 1.390625 -0.375 C 1.203125 -0.375 1.015625 -0.1875 1.015625 0.09375 C 1.015625 0.28125 1.203125 0.46875 1.390625 0.46875 Z M 15.890625 -40.4375 L 24.8125 -69.90625 L 39.5 -21.28125 C 34.484375 -30.390625 26.03125 -37.28125 15.890625 -40.4375 Z M 15.890625 -40.4375 "/></g></g></g><g fill="#bc8c96" fill-opacity="1"><g transform="translate(180.13656, 253.160613)"><g><path d="M 55.859375 -74.078125 C 56.140625 -74.078125 56.328125 -74.265625 56.328125 -74.546875 C 56.328125 -74.828125 56.140625 -75.015625 55.859375 -75.015625 L 50.28125 -75.015625 C 50.015625 -75.015625 49.828125 -74.828125 49.828125 -74.546875 C 49.828125 -74.265625 50.015625 -74.078125 50.28125 -74.078125 C 50.9375 -74.078125 51.59375 -73.53125 51.59375 -72.78125 L 51.59375 -50.75 C 51.59375 -39.5 35.875 -28.90625 10.6875 -23.234375 L 10.6875 -72.78125 C 10.6875 -73.53125 11.25 -74.078125 11.984375 -74.078125 C 12.265625 -74.078125 12.453125 -74.265625 12.453125 -74.546875 C 12.453125 -74.828125 12.265625 -75.015625 11.984375 -75.015625 L 6.328125 -75.015625 C 6.140625 -75.015625 5.953125 -74.828125 5.953125 -74.546875 C 5.953125 -74.265625 6.140625 -74.078125 6.328125 -74.078125 C 7.0625 -74.078125 7.71875 -73.53125 7.71875 -72.78125 L 7.71875 -1.765625 C 7.71875 -1.015625 7.0625 -0.375 6.328125 -0.375 C 6.140625 -0.375 5.953125 -0.1875 5.953125 0.09375 C 5.953125 0.28125 6.140625 0.46875 6.328125 0.46875 L 11.984375 0.46875 C 12.265625 0.46875 12.453125 0.28125 12.453125 0.09375 C 12.453125 -0.1875 12.265625 -0.375 11.984375 -0.375 C 11.25 -0.375 10.6875 -1.015625 10.6875 -1.765625 L 10.6875 -22.21875 C 32.90625 -27.234375 47.875 -36.0625 51.59375 -45.921875 L 51.59375 -1.765625 C 51.59375 -1.015625 50.9375 -0.375 50.28125 -0.375 C 50.015625 -0.375 49.828125 -0.1875 49.828125 0.09375 C 49.828125 0.28125 50.015625 0.46875 50.28125 0.46875 L 55.859375 0.46875 C 56.140625 0.46875 56.328125 0.28125 56.328125 0.09375 C 56.328125 -0.1875 56.140625 -0.375 55.859375 -0.375 C 55.125 -0.375 54.5625 -1.015625 54.5625 -1.765625 L 54.5625 -72.78125 C 54.5625 -73.53125 55.125 -74.078125 55.859375 -74.078125 Z M 55.859375 -74.078125 "/></g></g></g><g fill="#806073" fill-opacity="1"><g transform="translate(135.280644, 225.63427)"><g><path d="M 39.75 -39.296875 C 39.453125 -39.375 39.21875 -39.375 38.921875 -39.375 C 38.46875 -39.453125 37.953125 -39.453125 37.28125 -39.453125 C 35.09375 -39.453125 33 -39.15625 31.046875 -38.46875 C 31.046875 -38.46875 30.96875 -38.46875 30.96875 -38.46875 C 26.40625 -36.90625 23.09375 -33.96875 21.75 -30.453125 C 14.25 -30.53125 8.171875 -37.125 8.171875 -45.296875 C 8.171875 -53.546875 14.328125 -60.21875 21.828125 -60.21875 C 21.90625 -60.21875 21.90625 -60.21875 21.90625 -60.21875 C 22.203125 -60.21875 22.5 -60.21875 22.796875 -60.21875 C 25.203125 -60.21875 27.53125 -59.921875 29.703125 -59.171875 C 38.25 -56.25 39.296875 -50.703125 38.703125 -46.578125 C 38.703125 -46.5 38.703125 -46.34375 38.78125 -46.28125 C 38.84375 -46.203125 38.921875 -46.203125 39.078125 -46.203125 L 41.09375 -46.203125 C 41.328125 -46.203125 41.46875 -46.34375 41.46875 -46.578125 C 41.46875 -52.421875 36.96875 -57.671875 29.921875 -59.921875 C 27.671875 -60.59375 25.28125 -60.96875 22.796875 -60.96875 C 22.5 -60.96875 22.203125 -60.96875 21.96875 -60.96875 C 21.90625 -60.96875 21.90625 -60.96875 21.90625 -60.96875 L 20.921875 -60.96875 C 12.453125 -60.96875 5.546875 -54 5.546875 -45.296875 C 5.546875 -37.875 10.71875 -31.578125 17.625 -30.078125 C 10.71875 -28.5 5.546875 -22.28125 5.546875 -14.78125 C 5.546875 -6.15625 12.453125 0.90625 20.921875 0.90625 L 21.90625 0.90625 C 21.96875 0.90625 22.046875 0.90625 22.203125 0.90625 C 22.28125 0.90625 22.34375 0.90625 22.5 0.90625 L 22.953125 0.90625 C 25.421875 0.90625 27.75 0.53125 29.921875 -0.21875 C 29.921875 -0.21875 30 -0.21875 30 -0.21875 C 36.96875 -2.46875 41.46875 -7.71875 41.46875 -13.578125 L 47.03125 -16.796875 C 51.15625 -19.203125 53.546875 -22.953125 53.546875 -26.921875 C 53.546875 -33.15625 47.625 -38.40625 39.75 -39.296875 Z M 29.703125 -0.90625 C 27.75 -0.296875 25.65625 0.078125 23.46875 0.15625 C 24.21875 -2.328125 26.03125 -4.578125 28.71875 -6.15625 L 38.84375 -12.078125 C 39 -8.171875 37.28125 -3.53125 29.703125 -0.90625 Z M 46.046875 -19.046875 L 27.75 -8.40625 C 24.15625 -6.296875 21.90625 -3.21875 21.375 0.15625 C 14.03125 -0.21875 8.171875 -6.828125 8.171875 -14.78125 C 8.171875 -22.875 14.09375 -29.40625 21.53125 -29.625 C 21.21875 -28.71875 21.078125 -27.828125 21.078125 -26.84375 C 21.078125 -26.625 21.296875 -26.46875 21.453125 -26.46875 L 23.25 -26.46875 C 23.328125 -26.46875 23.46875 -26.546875 23.46875 -26.625 C 23.546875 -26.703125 23.625 -26.78125 23.625 -26.921875 C 23.03125 -30.453125 23.921875 -35.171875 31.203125 -37.71875 C 31.203125 -37.796875 31.28125 -37.796875 31.28125 -37.796875 C 33.15625 -38.40625 35.171875 -38.703125 37.28125 -38.703125 C 37.875 -38.703125 38.40625 -38.703125 38.84375 -38.703125 C 39.15625 -38.625 39.375 -38.625 39.671875 -38.625 C 46.65625 -37.71875 51.671875 -33.21875 51.671875 -27.828125 C 51.671875 -24.375 49.65625 -21.15625 46.046875 -19.046875 Z M 46.046875 -19.046875 "/></g></g></g><g fill="#806073" fill-opacity="1"><g transform="translate(137.711059, 307.163828)"><g><path d="M 2.9375 -3.71875 L 2.046875 -1.5 C 1.910156 -1.15625 1.84375 -0.875 1.84375 -0.65625 C 1.84375 -0.351562 1.984375 -0.132812 2.265625 0 L 0.265625 0 C 0.359375 0 0.492188 -0.09375 0.671875 -0.28125 C 0.847656 -0.46875 1.050781 -0.832031 1.28125 -1.375 L 4.921875 -10.046875 L 8.546875 -1.34375 C 8.742188 -0.84375 8.9375 -0.5 9.125 -0.3125 C 9.320312 -0.125 9.472656 -0.0195312 9.578125 0 L 7.265625 0 C 7.503906 -0.113281 7.625 -0.285156 7.625 -0.515625 C 7.625 -0.710938 7.546875 -0.992188 7.390625 -1.359375 L 6.421875 -3.71875 Z M 6.1875 -4.296875 L 4.671875 -8.015625 L 3.1875 -4.296875 Z M 6.1875 -4.296875 "/></g></g></g><g fill="#806073" fill-opacity="1"><g transform="translate(149.760991, 307.163828)"><g><path d="M 10.171875 -9.59375 C 10.035156 -9.570312 9.90625 -9.46875 9.78125 -9.28125 C 9.65625 -9.101562 9.59375 -8.785156 9.59375 -8.328125 L 9.59375 0.390625 L 2.453125 -7.9375 L 2.453125 -1.25 C 2.453125 -0.8125 2.53125 -0.5 2.6875 -0.3125 C 2.851562 -0.132812 3.007812 -0.03125 3.15625 0 L 1.1875 0 C 1.3125 -0.03125 1.441406 -0.132812 1.578125 -0.3125 C 1.710938 -0.5 1.78125 -0.816406 1.78125 -1.265625 L 1.78125 -8.25 C 1.78125 -8.5625 1.671875 -8.847656 1.453125 -9.109375 C 1.242188 -9.367188 0.976562 -9.53125 0.65625 -9.59375 L 2.390625 -9.59375 L 8.9375 -1.96875 L 8.9375 -8.328125 C 8.9375 -9.046875 8.691406 -9.46875 8.203125 -9.59375 Z M 10.171875 -9.59375 "/></g></g></g><g fill="#806073" fill-opacity="1"><g transform="translate(163.372713, 307.163828)"><g><path d="M 7.421875 0 C 7.421875 0.03125 7.476562 0.0078125 7.59375 -0.0625 C 7.707031 -0.132812 7.804688 -0.265625 7.890625 -0.453125 C 7.984375 -0.640625 8.03125 -0.921875 8.03125 -1.296875 L 8.03125 -4.46875 L 2.796875 -4.46875 L 2.796875 -1.296875 C 2.796875 -0.921875 2.835938 -0.640625 2.921875 -0.453125 C 3.015625 -0.265625 3.117188 -0.132812 3.234375 -0.0625 C 3.347656 0 3.40625 0.0195312 3.40625 0 L 1.1875 0 C 1.1875 0.03125 1.238281 0.0078125 1.34375 -0.0625 C 1.457031 -0.132812 1.554688 -0.265625 1.640625 -0.453125 C 1.734375 -0.640625 1.78125 -0.921875 1.78125 -1.296875 L 1.78125 -8.296875 C 1.78125 -8.671875 1.734375 -8.953125 1.640625 -9.140625 C 1.554688 -9.335938 1.457031 -9.46875 1.34375 -9.53125 C 1.238281 -9.59375 1.1875 -9.613281 1.1875 -9.59375 L 3.40625 -9.59375 C 3.40625 -9.613281 3.347656 -9.59375 3.234375 -9.53125 C 3.117188 -9.46875 3.015625 -9.335938 2.921875 -9.140625 C 2.835938 -8.953125 2.796875 -8.671875 2.796875 -8.296875 L 2.796875 -5.078125 L 8.03125 -5.078125 L 8.03125 -8.296875 C 8.03125 -8.671875 7.984375 -8.953125 7.890625 -9.140625 C 7.804688 -9.335938 7.707031 -9.46875 7.59375 -9.53125 C 7.476562 -9.59375 7.421875 -9.613281 7.421875 -9.59375 L 9.640625 -9.59375 C 9.640625 -9.625 9.582031 -9.601562 9.46875 -9.53125 C 9.363281 -9.46875 9.265625 -9.335938 9.171875 -9.140625 C 9.085938 -8.953125 9.046875 -8.671875 9.046875 -8.296875 L 9.046875 -1.296875 C 9.046875 -0.921875 9.09375 -0.640625 9.1875 -0.453125 C 9.28125 -0.265625 9.378906 -0.132812 9.484375 -0.0625 C 9.597656 0 9.65625 0.0195312 9.65625 0 Z M 7.421875 0 "/></g></g></g><g fill="#806073" fill-opacity="1"><g transform="translate(176.426648, 307.163828)"><g/></g></g><g fill="#806073" fill-opacity="1"><g transform="translate(182.452507, 307.163828)"><g><path d="M 9.59375 -0.4375 C 9.351562 -0.03125 9.050781 0.171875 8.6875 0.171875 C 8.414062 0.171875 8.082031 0.0507812 7.6875 -0.1875 C 7.300781 -0.4375 6.820312 -0.796875 6.25 -1.265625 C 5.3125 -0.304688 4.390625 0.171875 3.484375 0.171875 C 2.628906 0.171875 1.960938 -0.0546875 1.484375 -0.515625 C 1.015625 -0.972656 0.78125 -1.566406 0.78125 -2.296875 C 0.78125 -2.890625 0.945312 -3.382812 1.28125 -3.78125 C 1.625 -4.175781 2.128906 -4.585938 2.796875 -5.015625 C 2.046875 -5.972656 1.671875 -6.8125 1.671875 -7.53125 C 1.671875 -8.019531 1.78125 -8.429688 2 -8.765625 C 2.21875 -9.097656 2.503906 -9.347656 2.859375 -9.515625 C 3.210938 -9.679688 3.585938 -9.765625 3.984375 -9.765625 C 4.359375 -9.765625 4.710938 -9.691406 5.046875 -9.546875 C 5.378906 -9.398438 5.644531 -9.1875 5.84375 -8.90625 C 6.039062 -8.625 6.140625 -8.289062 6.140625 -7.90625 C 6.140625 -7.375 5.945312 -6.898438 5.5625 -6.484375 C 5.1875 -6.066406 4.644531 -5.625 3.9375 -5.15625 C 4.789062 -4.09375 5.628906 -3.175781 6.453125 -2.40625 C 6.828125 -3 7.117188 -3.515625 7.328125 -3.953125 C 7.546875 -4.398438 7.65625 -4.800781 7.65625 -5.15625 C 7.65625 -5.5 7.546875 -5.78125 7.328125 -6 L 9.140625 -6 C 8.921875 -5.78125 8.601562 -5.203125 8.1875 -4.265625 C 7.90625 -3.609375 7.46875 -2.875 6.875 -2.0625 C 6.9375 -2.03125 7.019531 -1.96875 7.125 -1.875 C 7.59375 -1.5 8 -1.203125 8.34375 -0.984375 C 8.695312 -0.773438 9.03125 -0.671875 9.34375 -0.671875 C 9.4375 -0.671875 9.597656 -0.738281 9.828125 -0.875 C 9.765625 -0.71875 9.6875 -0.570312 9.59375 -0.4375 Z M 3.890625 -9.328125 C 3.421875 -9.328125 3.078125 -9.1875 2.859375 -8.90625 C 2.640625 -8.632812 2.53125 -8.304688 2.53125 -7.921875 C 2.53125 -7.578125 2.640625 -7.1875 2.859375 -6.75 C 3.085938 -6.320312 3.351562 -5.914062 3.65625 -5.53125 C 4.226562 -5.882812 4.640625 -6.234375 4.890625 -6.578125 C 5.140625 -6.921875 5.265625 -7.316406 5.265625 -7.765625 C 5.265625 -8.285156 5.128906 -8.675781 4.859375 -8.9375 C 4.585938 -9.195312 4.265625 -9.328125 3.890625 -9.328125 Z M 3.09375 -4.625 C 2.625 -4.332031 2.269531 -4.023438 2.03125 -3.703125 C 1.789062 -3.390625 1.671875 -3.023438 1.671875 -2.609375 C 1.671875 -2.242188 1.765625 -1.898438 1.953125 -1.578125 C 2.148438 -1.253906 2.410156 -0.992188 2.734375 -0.796875 C 3.054688 -0.597656 3.40625 -0.5 3.78125 -0.5 C 4.175781 -0.5 4.519531 -0.585938 4.8125 -0.765625 C 5.101562 -0.953125 5.445312 -1.238281 5.84375 -1.625 C 5.375 -2.0625 4.894531 -2.546875 4.40625 -3.078125 C 3.914062 -3.617188 3.476562 -4.132812 3.09375 -4.625 Z M 3.09375 -4.625 "/></g></g></g><g fill="#806073" fill-opacity="1"><g transform="translate(194.990498, 307.163828)"><g/></g></g><g fill="#806073" fill-opacity="1"><g transform="translate(201.016358, 307.163828)"><g><path d="M 7.421875 0 C 7.421875 0.03125 7.476562 0.0078125 7.59375 -0.0625 C 7.707031 -0.132812 7.804688 -0.265625 7.890625 -0.453125 C 7.984375 -0.640625 8.03125 -0.921875 8.03125 -1.296875 L 8.03125 -4.46875 L 2.796875 -4.46875 L 2.796875 -1.296875 C 2.796875 -0.921875 2.835938 -0.640625 2.921875 -0.453125 C 3.015625 -0.265625 3.117188 -0.132812 3.234375 -0.0625 C 3.347656 0 3.40625 0.0195312 3.40625 0 L 1.1875 0 C 1.1875 0.03125 1.238281 0.0078125 1.34375 -0.0625 C 1.457031 -0.132812 1.554688 -0.265625 1.640625 -0.453125 C 1.734375 -0.640625 1.78125 -0.921875 1.78125 -1.296875 L 1.78125 -8.296875 C 1.78125 -8.671875 1.734375 -8.953125 1.640625 -9.140625 C 1.554688 -9.335938 1.457031 -9.46875 1.34375 -9.53125 C 1.238281 -9.59375 1.1875 -9.613281 1.1875 -9.59375 L 3.40625 -9.59375 C 3.40625 -9.613281 3.347656 -9.59375 3.234375 -9.53125 C 3.117188 -9.46875 3.015625 -9.335938 2.921875 -9.140625 C 2.835938 -8.953125 2.796875 -8.671875 2.796875 -8.296875 L 2.796875 -5.078125 L 8.03125 -5.078125 L 8.03125 -8.296875 C 8.03125 -8.671875 7.984375 -8.953125 7.890625 -9.140625 C 7.804688 -9.335938 7.707031 -9.46875 7.59375 -9.53125 C 7.476562 -9.59375 7.421875 -9.613281 7.421875 -9.59375 L 9.640625 -9.59375 C 9.640625 -9.625 9.582031 -9.601562 9.46875 -9.53125 C 9.363281 -9.46875 9.265625 -9.335938 9.171875 -9.140625 C 9.085938 -8.953125 9.046875 -8.671875 9.046875 -8.296875 L 9.046875 -1.296875 C 9.046875 -0.921875 9.09375 -0.640625 9.1875 -0.453125 C 9.28125 -0.265625 9.378906 -0.132812 9.484375 -0.0625 C 9.597656 0 9.65625 0.0195312 9.65625 0 Z M 7.421875 0 "/></g></g></g><g fill="#806073" fill-opacity="1"><g transform="translate(214.070295, 307.163828)"><g><path d="M 2.9375 -3.71875 L 2.046875 -1.5 C 1.910156 -1.15625 1.84375 -0.875 1.84375 -0.65625 C 1.84375 -0.351562 1.984375 -0.132812 2.265625 0 L 0.265625 0 C 0.359375 0 0.492188 -0.09375 0.671875 -0.28125 C 0.847656 -0.46875 1.050781 -0.832031 1.28125 -1.375 L 4.921875 -10.046875 L 8.546875 -1.34375 C 8.742188 -0.84375 8.9375 -0.5 9.125 -0.3125 C 9.320312 -0.125 9.472656 -0.0195312 9.578125 0 L 7.265625 0 C 7.503906 -0.113281 7.625 -0.285156 7.625 -0.515625 C 7.625 -0.710938 7.546875 -0.992188 7.390625 -1.359375 L 6.421875 -3.71875 Z M 6.1875 -4.296875 L 4.671875 -8.015625 L 3.1875 -4.296875 Z M 6.1875 -4.296875 "/></g></g></g><g fill="#806073" fill-opacity="1"><g transform="translate(226.120223, 307.163828)"><g><path d="M 10.171875 -9.59375 C 10.035156 -9.570312 9.90625 -9.46875 9.78125 -9.28125 C 9.65625 -9.101562 9.59375 -8.785156 9.59375 -8.328125 L 9.59375 0.390625 L 2.453125 -7.9375 L 2.453125 -1.25 C 2.453125 -0.8125 2.53125 -0.5 2.6875 -0.3125 C 2.851562 -0.132812 3.007812 -0.03125 3.15625 0 L 1.1875 0 C 1.3125 -0.03125 1.441406 -0.132812 1.578125 -0.3125 C 1.710938 -0.5 1.78125 -0.816406 1.78125 -1.265625 L 1.78125 -8.25 C 1.78125 -8.5625 1.671875 -8.847656 1.453125 -9.109375 C 1.242188 -9.367188 0.976562 -9.53125 0.65625 -9.59375 L 2.390625 -9.59375 L 8.9375 -1.96875 L 8.9375 -8.328125 C 8.9375 -9.046875 8.691406 -9.46875 8.203125 -9.59375 Z M 10.171875 -9.59375 "/></g></g></g><g clip-path="url(#6a5a0c34f9)"><path fill="#bc8c96" d="M 269.894531 156.046875 C 269.894531 155.960938 269.859375 155.886719 269.792969 155.828125 C 269.726562 155.769531 269.648438 155.746094 269.558594 155.757812 C 269.492188 155.75 269.429688 155.757812 269.367188 155.789062 C 268.675781 156.203125 268.035156 156.683594 267.449219 157.238281 C 266.363281 158.167969 265.464844 159.253906 264.757812 160.5 C 264.007812 161.847656 263.375 163.25 262.859375 164.703125 C 262.457031 165.769531 262.136719 167.113281 261.402344 168.058594 C 261.5 167.136719 261.601562 166.144531 261.691406 165.222656 C 261.753906 164.574219 261.785156 163.949219 261.800781 163.367188 C 261.878906 162.230469 261.84375 161.09375 261.691406 159.960938 C 261.691406 159.953125 261.6875 159.9375 261.6875 159.929688 L 261.683594 159.925781 L 261.691406 159.914062 C 262.550781 158.433594 263.398438 156.945312 264.230469 155.449219 C 265.070312 154.050781 265.820312 152.601562 266.476562 151.105469 C 267.507812 148.496094 267.542969 145.769531 267.085938 143.027344 C 267.066406 142.96875 267.035156 142.917969 266.992188 142.875 C 266.945312 142.832031 266.894531 142.800781 266.832031 142.785156 C 266.773438 142.769531 266.710938 142.769531 266.652344 142.785156 C 266.589844 142.804688 266.539062 142.832031 266.496094 142.878906 C 264.929688 144.808594 263.460938 146.660156 262.609375 149.027344 C 262.335938 149.785156 262.109375 150.558594 261.917969 151.339844 C 261.710938 152.191406 261.558594 153.050781 261.464844 153.921875 C 261.40625 154.46875 261.363281 155.011719 261.328125 155.558594 C 261.328125 152.296875 261.117188 149.050781 260.707031 145.816406 C 260.929688 145.675781 261.15625 145.539062 261.375 145.394531 C 261.617188 145.242188 261.855469 145.085938 262.089844 144.921875 C 262.703125 144.503906 263.289062 144.050781 263.851562 143.566406 C 265.890625 141.785156 267.570312 139.652344 269.238281 137.53125 C 269.339844 137.417969 269.363281 137.292969 269.304688 137.152344 C 269.246094 137.011719 269.140625 136.941406 268.988281 136.933594 C 266.433594 136.902344 264.15625 138.066406 262.230469 139.644531 C 261.988281 139.84375 261.75 140.050781 261.511719 140.269531 C 261.394531 140.375 261.273438 140.484375 261.15625 140.597656 C 260.796875 140.941406 260.429688 141.300781 260.058594 141.675781 C 259.703125 139.726562 259.269531 137.800781 258.765625 135.90625 C 259.210938 135.269531 259.535156 134.582031 259.207031 133.875 C 260.003906 132.824219 260.871094 131.820312 261.765625 130.84375 L 262.488281 130.0625 C 262.902344 129.613281 263.320312 129.171875 263.734375 128.730469 C 265.011719 127.371094 266.355469 126.015625 267.292969 124.390625 C 268.105469 122.976562 268.773438 120.980469 267.960938 119.410156 C 267.753906 119.007812 267.449219 118.707031 267.042969 118.503906 C 266.640625 118.300781 266.214844 118.238281 265.769531 118.316406 C 264.945312 118.496094 264.285156 118.925781 263.785156 119.605469 C 263.527344 119.003906 263.203125 118.4375 262.8125 117.910156 C 262.613281 117.640625 262.386719 117.394531 262.132812 117.175781 C 261.589844 116.6875 260.957031 116.40625 260.234375 116.328125 C 258.441406 116.144531 257.125 117.539062 256.328125 119.015625 C 255.628906 118.027344 254.667969 117.078125 253.355469 117.398438 C 253 117.496094 252.699219 117.683594 252.453125 117.960938 C 252.207031 118.238281 252.058594 118.558594 252.011719 118.925781 C 250.363281 115.894531 248.523438 112.984375 246.484375 110.195312 C 244.449219 107.410156 242.234375 104.773438 239.84375 102.285156 C 237.453125 99.792969 234.90625 97.476562 232.203125 95.328125 C 229.5 93.183594 226.664062 91.226562 223.699219 89.460938 C 220.734375 87.695312 217.664062 86.132812 214.488281 84.78125 C 211.316406 83.425781 208.0625 82.289062 204.738281 81.371094 C 201.410156 80.457031 198.035156 79.765625 194.617188 79.300781 C 191.195312 78.835938 187.757812 78.605469 184.308594 78.601562 C 141.835938 78.601562 107.28125 113.15625 107.28125 155.625 L 107.28125 230.144531 C 107.089844 229.988281 106.886719 229.839844 106.675781 229.703125 C 106.351562 229.492188 106 229.363281 105.617188 229.3125 C 104.386719 229.191406 103.445312 230.210938 103.070312 231.292969 L 102.839844 231.960938 C 102.585938 232.824219 102.480469 233.703125 102.523438 234.601562 C 101.832031 233.757812 101.003906 233.074219 100.042969 232.550781 C 99.460938 232.277344 98.785156 232.214844 98.375 232.804688 C 97.855469 233.566406 98.003906 234.816406 98.226562 235.652344 C 98.804688 237.875 100.558594 239.492188 102.382812 240.753906 C 103.59375 241.589844 104.878906 242.324219 106.039062 243.242188 C 106.476562 243.589844 106.890625 243.964844 107.28125 244.367188 L 107.28125 254.902344 C 106.625 254.109375 105.925781 253.355469 105.214844 252.617188 C 104.015625 251.367188 102.816406 250.105469 101.285156 249.261719 C 101.230469 249.234375 101.171875 249.222656 101.109375 249.226562 C 101.046875 249.230469 100.988281 249.246094 100.9375 249.28125 C 100.886719 249.3125 100.84375 249.359375 100.816406 249.414062 C 100.785156 249.464844 100.769531 249.523438 100.773438 249.585938 C 100.597656 252.328125 101.988281 254.84375 103.695312 256.886719 C 104.699219 258.074219 105.785156 259.183594 106.949219 260.21875 C 107.058594 260.320312 107.171875 260.417969 107.28125 260.519531 L 107.28125 272.484375 C 107.183594 272.726562 107.09375 272.964844 107.023438 273.195312 C 106.378906 275.328125 106.058594 277.507812 106.0625 279.734375 C 106.070312 280.832031 106.167969 281.921875 106.355469 283 C 106.363281 283.070312 106.375 283.136719 106.386719 283.203125 C 106.410156 283.324219 106.441406 283.441406 106.46875 283.558594 C 106.46875 283.574219 106.472656 283.589844 106.476562 283.605469 C 106.628906 284.339844 106.914062 285.632812 107.28125 286.878906 L 107.28125 289.074219 L 261.332031 289.074219 L 261.332031 169.152344 C 263.480469 167.636719 265.730469 166.148438 267.222656 163.933594 C 268.761719 161.585938 269.648438 159.015625 269.882812 156.21875 C 269.902344 156.175781 269.90625 156.136719 269.898438 156.09375 L 269.898438 156.085938 C 269.898438 156.074219 269.898438 156.0625 269.894531 156.046875 Z M 262.109375 154.53125 C 262.265625 152.816406 262.625 151.144531 263.183594 149.515625 C 263.90625 147.382812 265.148438 145.679688 266.519531 143.96875 C 266.921875 146.476562 266.632812 148.898438 265.664062 151.242188 C 265.046875 152.640625 264.242188 153.96875 263.503906 155.304688 C 262.96875 156.277344 262.410156 157.242188 261.855469 158.207031 C 261.957031 156.984375 262.003906 155.757812 262.109375 154.53125 Z M 248.617188 153.996094 C 249.347656 154.558594 250.058594 155.144531 250.753906 155.753906 C 250.757812 155.757812 250.757812 155.757812 250.761719 155.757812 L 250.761719 155.765625 L 250.675781 155.917969 C 250.351562 155.820312 250.023438 155.710938 249.699219 155.59375 C 249.53125 155.539062 249.367188 155.472656 249.199219 155.40625 C 249.117188 155.378906 249.03125 155.347656 248.949219 155.3125 C 248.933594 155.308594 248.933594 155.308594 248.929688 155.304688 C 248.914062 155.300781 248.894531 155.292969 248.878906 155.285156 C 248.835938 155.269531 248.796875 155.25 248.753906 155.234375 C 248.667969 155.191406 248.582031 155.179688 248.492188 155.207031 C 248.398438 155.234375 248.328125 155.289062 248.28125 155.375 C 248.238281 155.457031 248.226562 155.542969 248.25 155.636719 C 248.273438 155.730469 248.328125 155.800781 248.410156 155.847656 C 249.054688 156.113281 249.707031 156.351562 250.375 156.554688 C 250.371094 156.554688 250.371094 156.554688 250.371094 156.5625 C 250.308594 156.71875 250.261719 156.882812 250.238281 157.050781 C 250.035156 157.066406 249.84375 157.089844 249.644531 157.109375 C 248.65625 157.25 247.664062 157.339844 246.667969 157.371094 C 245.859375 157.382812 244.546875 157.402344 244.179688 156.484375 C 243.789062 155.511719 245.199219 155.199219 245.859375 155.109375 C 246.035156 155.101562 246.144531 155.011719 246.1875 154.839844 C 246.230469 154.671875 246.175781 154.539062 246.027344 154.449219 C 245.777344 154.3125 245.605469 154.109375 245.511719 153.84375 C 245.414062 153.578125 245.417969 153.316406 245.519531 153.050781 C 245.855469 152.347656 246.820312 152.617188 247.394531 152.773438 C 247.507812 152.800781 247.609375 152.78125 247.699219 152.710938 C 247.789062 152.636719 247.832031 152.542969 247.832031 152.429688 C 247.804688 152.191406 247.710938 151.828125 247.675781 151.460938 C 247.648438 151.222656 247.667969 150.984375 247.730469 150.753906 C 247.792969 150.550781 247.921875 150.40625 248.121094 150.328125 C 248.609375 150.152344 248.957031 150.476562 249.203125 150.886719 C 249.335938 151.113281 249.445312 151.355469 249.53125 151.605469 C 249.558594 151.660156 249.570312 151.707031 249.59375 151.753906 C 249.855469 152.484375 250.214844 153.160156 250.667969 153.789062 C 250.921875 154.148438 251.199219 154.503906 251.433594 154.886719 C 251.328125 154.96875 251.230469 155.0625 251.148438 155.164062 L 251.148438 155.167969 C 250.484375 154.589844 249.804688 154.03125 249.105469 153.488281 C 249.03125 153.425781 248.949219 153.394531 248.855469 153.394531 C 248.757812 153.398438 248.675781 153.433594 248.605469 153.5 C 248.539062 153.570312 248.507812 153.652344 248.511719 153.75 C 248.511719 153.847656 248.550781 153.929688 248.617188 153.996094 Z M 247.042969 150.652344 C 246.609375 150.585938 246.183594 150.492188 245.765625 150.378906 C 245.105469 150.195312 244.457031 149.96875 243.824219 149.707031 C 246.199219 148.765625 248.65625 148.433594 251.195312 148.703125 C 252.609375 148.828125 253.964844 149.167969 255.265625 149.730469 C 255.8125 149.996094 256.335938 150.296875 256.835938 150.640625 C 256.328125 150.574219 255.816406 150.5625 255.304688 150.601562 C 253.699219 150.695312 252.09375 150.894531 250.488281 150.914062 C 250.332031 150.914062 250.175781 150.914062 250.019531 150.910156 C 249.921875 150.691406 249.804688 150.488281 249.660156 150.296875 C 249.175781 149.675781 248.242188 149.332031 247.554688 149.859375 C 247.285156 150.0625 247.117188 150.328125 247.042969 150.652344 Z M 250.960938 156.984375 C 251.039062 156.757812 251.136719 156.542969 251.253906 156.335938 C 251.378906 156.035156 251.550781 155.761719 251.761719 155.515625 C 251.84375 155.433594 251.941406 155.378906 252.054688 155.355469 C 252.246094 155.347656 252.40625 155.414062 252.535156 155.558594 C 252.625 155.644531 252.714844 155.738281 252.792969 155.832031 C 253.09375 156.171875 253.410156 156.5 253.722656 156.832031 C 254.128906 157.257812 254.53125 157.679688 254.933594 158.109375 L 254.976562 158.152344 C 254.503906 158.097656 254.023438 158.039062 253.550781 157.984375 C 253.089844 157.929688 252.628906 157.875 252.160156 157.816406 C 251.945312 157.785156 251.734375 157.761719 251.519531 157.734375 C 251.421875 157.714844 251.277344 157.710938 251.15625 157.679688 C 251.085938 157.664062 251.027344 157.632812 250.972656 157.585938 C 250.84375 157.453125 250.875 157.21875 250.960938 156.984375 Z M 253.90625 156.003906 C 253.425781 155.5 252.878906 154.664062 252.113281 154.652344 C 251.78125 154.089844 251.363281 153.570312 251.015625 153.046875 C 250.707031 152.601562 250.464844 152.125 250.285156 151.617188 C 251.574219 151.613281 252.859375 151.496094 254.140625 151.394531 C 255.578125 151.273438 257.261719 151.03125 258.453125 152.011719 C 259.363281 153.976562 260.089844 156.003906 260.628906 158.101562 L 260.628906 159.945312 C 260.140625 159.613281 259.613281 159.351562 259.050781 159.164062 C 258.492188 158.964844 257.917969 158.8125 257.347656 158.652344 C 257.058594 158.570312 256.769531 158.488281 256.488281 158.390625 L 256.390625 158.359375 C 256.367188 158.347656 256.34375 158.339844 256.320312 158.335938 C 256.300781 158.328125 256.289062 158.324219 256.269531 158.320312 C 255.847656 158.070312 255.492188 157.753906 255.199219 157.363281 C 254.765625 156.90625 254.332031 156.453125 253.90625 156.003906 Z M 260.628906 155.476562 C 260.617188 155.4375 260.605469 155.398438 260.59375 155.363281 C 260.167969 154.140625 259.679688 152.941406 259.132812 151.769531 L 259.132812 151.757812 C 259.128906 151.753906 259.128906 151.75 259.128906 151.746094 C 259.121094 151.714844 259.105469 151.683594 259.09375 151.652344 C 259.085938 151.640625 259.078125 151.625 259.066406 151.617188 C 258.539062 150.445312 257.988281 149.277344 257.507812 148.09375 L 257.507812 148.089844 C 258.289062 147.375 259.136719 146.753906 260.050781 146.222656 C 260.429688 149.292969 260.621094 152.378906 260.628906 155.476562 Z M 260.214844 142.539062 C 260.636719 142.09375 261.074219 141.667969 261.492188 141.261719 L 261.515625 141.238281 C 261.742188 141.019531 261.972656 140.800781 262.210938 140.589844 C 263.929688 139.074219 265.953125 137.867188 268.246094 137.671875 C 266.785156 139.625 265.152344 141.429688 263.347656 143.078125 C 262.953125 143.414062 262.542969 143.734375 262.117188 144.027344 C 261.882812 144.195312 261.644531 144.351562 261.402344 144.511719 C 261.136719 144.683594 260.867188 144.851562 260.597656 145.019531 C 260.378906 145.15625 260.164062 145.292969 259.945312 145.429688 C 259.074219 145.957031 258.242188 146.542969 257.457031 147.195312 C 257.8125 145.667969 258.53125 144.339844 259.613281 143.203125 C 259.808594 142.976562 260.011719 142.753906 260.214844 142.539062 Z M 259.464844 142.308594 C 258.277344 143.5 257.417969 144.894531 256.898438 146.496094 C 256.707031 145.941406 256.535156 145.375 256.386719 144.804688 C 256.015625 143.457031 255.878906 142.082031 255.980469 140.683594 L 255.980469 140.675781 C 256.480469 139.277344 257.183594 137.988281 258.085938 136.804688 C 258.132812 136.742188 258.183594 136.679688 258.234375 136.617188 C 258.714844 138.488281 259.128906 140.386719 259.464844 142.308594 Z M 258.285156 135.425781 C 258.199219 135.550781 258.105469 135.671875 258.011719 135.792969 C 257.855469 135.996094 257.695312 136.199219 257.53125 136.402344 C 257.429688 136.527344 257.339844 136.65625 257.246094 136.777344 C 256.9375 137.214844 256.652344 137.660156 256.386719 138.125 L 256.386719 138.128906 C 256.3125 138.25 256.242188 138.371094 256.183594 138.5 C 256.097656 138.648438 256.019531 138.800781 255.945312 138.953125 C 255.9375 138.695312 255.933594 138.441406 255.929688 138.179688 L 255.929688 138.148438 C 255.925781 138.117188 255.921875 138.089844 255.921875 138.0625 C 255.921875 138.039062 255.921875 138.019531 255.917969 137.996094 C 255.910156 137.542969 255.890625 137.085938 255.882812 136.632812 C 255.863281 135.761719 255.839844 134.894531 255.84375 134.027344 C 255.789062 133.621094 255.886719 133.257812 256.136719 132.933594 C 256.308594 132.796875 256.5 132.757812 256.714844 132.808594 C 256.757812 132.816406 256.796875 132.824219 256.835938 132.832031 C 256.960938 132.863281 257.082031 132.910156 257.199219 132.96875 C 257.539062 133.136719 257.847656 133.355469 258.125 133.613281 C 258.203125 133.6875 258.28125 133.761719 258.34375 133.832031 C 258.351562 133.835938 258.355469 133.84375 258.363281 133.847656 C 258.597656 134.082031 258.679688 134.363281 258.617188 134.691406 C 258.597656 134.796875 258.566406 134.898438 258.523438 134.996094 C 258.457031 135.148438 258.378906 135.289062 258.285156 135.425781 Z M 253.78125 118.054688 C 254.890625 118 255.570312 119.085938 256.082031 119.902344 C 256.117188 119.953125 256.160156 119.996094 256.214844 120.027344 C 256.265625 120.054688 256.324219 120.070312 256.386719 120.070312 C 256.449219 120.070312 256.507812 120.054688 256.5625 120.027344 C 256.617188 119.996094 256.660156 119.953125 256.691406 119.902344 C 257.289062 118.554688 258.398438 116.921875 260.070312 117.023438 C 260.914062 117.09375 261.59375 117.464844 262.113281 118.128906 C 262.371094 118.445312 262.597656 118.78125 262.789062 119.140625 C 263.007812 119.550781 263.195312 119.96875 263.359375 120.402344 C 263.40625 120.546875 263.503906 120.628906 263.65625 120.648438 C 263.804688 120.667969 263.921875 120.609375 264.003906 120.480469 C 264.53125 119.730469 265.328125 118.859375 266.347656 119.011719 C 267.324219 119.160156 267.632812 120.214844 267.617188 121.070312 C 267.59375 122.769531 266.632812 124.324219 265.605469 125.601562 C 264.644531 126.808594 263.585938 127.9375 262.523438 129.058594 C 262.28125 129.3125 262.039062 129.566406 261.796875 129.828125 C 260.789062 130.898438 259.796875 131.984375 258.894531 133.144531 C 258.859375 133.191406 258.824219 133.238281 258.789062 133.285156 C 258.714844 133.210938 258.632812 133.132812 258.542969 133.050781 L 258.542969 133.046875 C 259.890625 131.171875 261 129.171875 261.875 127.035156 C 262.15625 126.351562 262.40625 125.648438 262.632812 124.945312 C 262.730469 124.648438 262.820312 124.355469 262.90625 124.054688 C 262.933594 123.964844 262.925781 123.878906 262.878906 123.796875 C 262.832031 123.714844 262.761719 123.664062 262.667969 123.648438 C 262.574219 123.613281 262.484375 123.621094 262.394531 123.667969 C 262.308594 123.710938 262.25 123.785156 262.226562 123.878906 C 262.132812 124.195312 262.035156 124.511719 261.933594 124.828125 C 261.019531 127.628906 259.703125 130.226562 257.984375 132.621094 C 257.917969 132.578125 257.851562 132.535156 257.785156 132.496094 C 257.738281 132.351562 257.691406 132.207031 257.644531 132.0625 C 257.648438 132.039062 257.652344 132.011719 257.65625 131.988281 C 257.742188 131.570312 257.808594 131.160156 257.867188 130.746094 C 258.226562 128.214844 258.113281 125.703125 257.53125 123.214844 C 257.425781 122.777344 256.75 122.964844 256.851562 123.40625 C 257.191406 124.863281 257.363281 126.339844 257.367188 127.832031 C 257.371094 128.566406 257.332031 129.300781 257.253906 130.03125 C 257.234375 130.234375 257.199219 130.433594 257.171875 130.636719 C 257.144531 130.820312 257.125 131.007812 257.09375 131.1875 C 257.070312 131.34375 257.039062 131.5 257.011719 131.65625 C 257.003906 131.6875 256.945312 132.015625 256.941406 132.125 C 256.9375 132.125 256.933594 132.128906 256.929688 132.132812 C 256.921875 132.136719 256.917969 132.140625 256.914062 132.140625 C 256.871094 132.128906 256.832031 132.121094 256.789062 132.117188 C 256.789062 132.015625 256.773438 131.914062 256.761719 131.8125 C 256.75 131.714844 256.738281 131.609375 256.726562 131.507812 C 256.542969 129.574219 256.085938 127.707031 255.347656 125.910156 C 254.527344 124.113281 253.066406 122.546875 252.695312 120.570312 C 252.664062 120.414062 252.644531 120.253906 252.632812 120.09375 C 252.566406 119.203125 252.757812 118.097656 253.78125 118.054688 Z M 106.253906 242.523438 C 104.300781 241.039062 101.976562 239.980469 100.355469 238.101562 C 99.644531 237.308594 99.152344 236.398438 98.875 235.371094 C 98.75 234.855469 98.472656 232.875 99.414062 233.066406 C 100.136719 233.207031 100.808594 233.898438 101.316406 234.386719 C 101.816406 234.863281 102.277344 235.371094 102.738281 235.878906 C 102.855469 235.980469 102.980469 236 103.121094 235.9375 C 103.261719 235.871094 103.332031 235.761719 103.328125 235.609375 C 103.152344 234.585938 103.175781 233.570312 103.40625 232.558594 C 103.59375 231.765625 103.890625 230.8125 104.5625 230.289062 C 105.199219 229.789062 105.941406 230.015625 106.539062 230.457031 C 106.800781 230.652344 107.050781 230.867188 107.285156 231.09375 C 107.53125 231.332031 107.765625 231.585938 107.988281 231.851562 C 108.304688 232.226562 108.59375 232.621094 108.863281 233.035156 C 108.949219 233.164062 109.066406 233.214844 109.21875 233.191406 C 109.375 233.164062 109.46875 233.074219 109.503906 232.921875 C 109.839844 231.335938 110.222656 229.8125 111.148438 228.441406 C 111.496094 227.925781 111.984375 227.351562 112.539062 227.539062 C 112.542969 227.546875 112.550781 227.550781 112.5625 227.550781 C 112.566406 227.554688 112.578125 227.558594 112.585938 227.566406 L 112.613281 227.574219 C 112.726562 227.628906 112.824219 227.703125 112.910156 227.792969 C 113.644531 228.601562 114.09375 229.542969 114.269531 230.621094 C 114.675781 232.722656 114.261719 234.921875 113.859375 236.992188 C 113.332031 239.664062 112.800781 242.332031 112.347656 245.019531 C 112.285156 245.40625 112.21875 245.789062 112.15625 246.175781 L 112.132812 246.175781 L 110.863281 235.976562 C 110.808594 235.53125 110.105469 235.554688 110.160156 236 C 110.589844 239.429688 111.015625 242.863281 111.441406 246.292969 L 111.4375 246.292969 C 111.378906 246.304688 111.320312 246.320312 111.261719 246.339844 C 110.527344 244.238281 109.433594 242.34375 107.984375 240.65625 C 107.75 240.367188 107.519531 240.082031 107.28125 239.800781 C 106.960938 239.421875 106.640625 239.042969 106.320312 238.667969 C 106.027344 238.328125 105.550781 238.84375 105.84375 239.183594 C 106.324219 239.746094 106.808594 240.3125 107.28125 240.890625 C 107.519531 241.1875 107.753906 241.484375 107.984375 241.785156 C 109.128906 243.21875 109.996094 244.804688 110.589844 246.539062 C 110.386719 246.613281 110.1875 246.703125 110 246.808594 C 109.4375 245.820312 108.761719 244.910156 107.984375 244.078125 C 107.757812 243.839844 107.523438 243.605469 107.28125 243.382812 C 106.953125 243.082031 106.613281 242.792969 106.253906 242.523438 Z M 112.789062 246.921875 C 112.871094 246.949219 112.941406 246.992188 113.003906 247.050781 C 113.183594 247.234375 113.226562 247.574219 113.132812 248.117188 C 112.875 249.398438 112.554688 250.667969 112.167969 251.917969 C 112.140625 252.011719 112.117188 252.105469 112.089844 252.203125 C 112.023438 252.429688 111.957031 252.65625 111.894531 252.886719 C 111.8125 253.160156 111.738281 253.441406 111.660156 253.71875 C 111.585938 253.269531 111.492188 252.824219 111.367188 252.382812 C 111.242188 251.9375 111.089844 251.5 110.910156 251.070312 L 110.867188 250.972656 C 110.753906 250.71875 110.632812 250.46875 110.511719 250.222656 C 110.316406 249.832031 110.136719 249.433594 109.980469 249.023438 C 109.859375 248.703125 109.816406 248.371094 109.855469 248.027344 C 109.875 247.886719 109.933594 247.765625 110.027344 247.660156 C 110.039062 247.644531 110.054688 247.632812 110.074219 247.621094 C 110.15625 247.546875 110.246094 247.484375 110.339844 247.433594 C 110.867188 247.152344 111.425781 246.976562 112.015625 246.902344 C 112.027344 246.902344 112.039062 246.898438 112.050781 246.898438 C 112.300781 246.84375 112.546875 246.851562 112.789062 246.921875 Z M 107.984375 245.136719 C 108.226562 245.421875 108.460938 245.71875 108.679688 246.027344 C 108.960938 246.421875 109.21875 246.832031 109.453125 247.253906 C 109.078125 247.710938 109.03125 248.433594 109.320312 249.261719 C 109.484375 249.695312 109.671875 250.117188 109.882812 250.527344 C 109.996094 250.769531 110.117188 251.011719 110.222656 251.253906 C 110.949219 252.929688 111.222656 254.675781 111.046875 256.492188 C 110.984375 256.871094 110.945312 257.25 110.925781 257.632812 L 110.660156 259.316406 C 110.59375 259.785156 110.519531 260.253906 110.4375 260.726562 C 110.011719 259.144531 109.328125 257.683594 108.386719 256.34375 C 108.261719 256.15625 108.121094 255.980469 107.984375 255.796875 Z M 104.90625 257.207031 C 103.128906 255.269531 101.53125 252.882812 101.460938 250.183594 C 102.609375 250.992188 103.652344 251.921875 104.582031 252.972656 C 105.542969 253.9375 106.441406 254.957031 107.28125 256.027344 C 107.410156 256.195312 107.539062 256.359375 107.664062 256.53125 C 107.769531 256.6875 107.875 256.84375 107.984375 257.007812 C 109.011719 258.582031 109.964844 260.59375 109.949219 262.511719 C 109.457031 261.707031 108.859375 260.992188 108.15625 260.363281 L 107.980469 260.199219 C 107.746094 259.984375 107.511719 259.765625 107.277344 259.550781 C 106.46875 258.792969 105.664062 258.03125 104.90625 257.207031 Z M 109.804688 263.84375 C 109.8125 263.867188 109.820312 263.886719 109.828125 263.910156 C 109.328125 266.269531 108.707031 268.597656 107.984375 270.894531 L 107.984375 261.183594 C 108.800781 261.925781 109.40625 262.8125 109.808594 263.84375 Z M 106.761719 279.726562 C 106.757812 278.128906 106.933594 276.550781 107.28125 274.992188 L 107.28125 284.046875 C 107.160156 283.527344 107.054688 283.027344 107.011719 282.675781 L 107.015625 282.675781 C 106.855469 281.699219 106.773438 280.714844 106.761719 279.726562 Z M 260.628906 288.371094 L 107.984375 288.371094 L 107.984375 273.160156 C 108.140625 272.703125 108.289062 272.242188 108.441406 271.785156 L 108.441406 271.816406 L 108.921875 270.816406 C 109.664062 269.339844 111.542969 268.929688 112.875 268.152344 C 113.792969 267.613281 114.640625 266.976562 115.417969 266.246094 C 116.195312 265.515625 116.882812 264.710938 117.484375 263.828125 C 118.082031 262.949219 118.578125 262.011719 118.96875 261.019531 C 119.359375 260.027344 119.640625 259.007812 119.804688 257.953125 C 119.839844 257.78125 119.777344 257.65625 119.621094 257.574219 C 119.46875 257.492188 119.328125 257.511719 119.203125 257.636719 C 116.164062 261.128906 112.222656 263.894531 109.636719 267.75 C 110.214844 265.589844 110.691406 263.398438 111.074219 261.175781 C 111.152344 261.148438 111.210938 261.09375 111.25 261.019531 C 112.753906 258.132812 115.683594 256.300781 117.695312 253.804688 C 119.628906 251.402344 120.980469 248.507812 120.992188 245.378906 C 120.980469 245.226562 120.902344 245.125 120.761719 245.070312 C 120.617188 245.015625 120.488281 245.042969 120.382812 245.15625 C 116.425781 248.734375 113.488281 253.011719 111.574219 257.992188 L 111.621094 257.703125 C 111.640625 257.355469 111.675781 257.011719 111.734375 256.667969 C 111.730469 256.660156 111.730469 256.648438 111.734375 256.640625 C 111.734375 256.628906 111.734375 256.621094 111.738281 256.613281 C 112.015625 255.089844 112.382812 253.585938 112.839844 252.109375 C 113.234375 250.835938 113.5625 249.542969 113.824219 248.234375 C 114 247.621094 113.894531 247.058594 113.5 246.554688 C 113.332031 246.386719 113.128906 246.277344 112.898438 246.226562 C 112.957031 245.859375 113.023438 245.488281 113.089844 245.097656 C 113.09375 245.085938 113.097656 245.082031 113.101562 245.074219 C 113.101562 245.074219 113.734375 241.535156 113.730469 241.539062 C 113.730469 241.53125 113.734375 241.519531 113.738281 241.511719 C 114.074219 239.726562 114.414062 237.941406 114.734375 236.144531 C 115.246094 233.25 115.550781 230.035156 113.65625 227.542969 C 113.378906 227.203125 113.027344 226.972656 112.601562 226.859375 C 112.308594 226.796875 112.023438 226.8125 111.742188 226.917969 C 111.460938 227.019531 111.230469 227.191406 111.050781 227.429688 C 109.878906 228.667969 109.359375 230.347656 108.988281 231.988281 C 108.683594 231.566406 108.347656 231.164062 107.984375 230.789062 L 107.984375 155.625 C 107.984375 113.542969 142.222656 79.304688 184.304688 79.304688 C 187.777344 79.304688 191.230469 79.542969 194.667969 80.019531 C 198.105469 80.492188 201.496094 81.195312 204.835938 82.128906 C 208.175781 83.066406 211.441406 84.222656 214.625 85.601562 C 217.808594 86.984375 220.882812 88.574219 223.851562 90.371094 C 226.816406 92.171875 229.648438 94.164062 232.34375 96.347656 C 235.042969 98.53125 237.578125 100.890625 239.953125 103.421875 C 242.324219 105.949219 244.519531 108.628906 246.527344 111.460938 C 248.535156 114.289062 250.34375 117.242188 251.953125 120.316406 C 251.972656 120.527344 252.007812 120.738281 252.054688 120.945312 C 252.445312 122.628906 253.566406 124.027344 254.371094 125.527344 C 255.296875 127.257812 255.703125 129.277344 255.972656 131.210938 C 256.019531 131.523438 256.054688 131.839844 256.078125 132.160156 C 255.839844 132.234375 255.640625 132.371094 255.488281 132.570312 C 255.089844 133.050781 255.136719 133.726562 255.144531 134.308594 C 255.144531 134.953125 255.15625 135.601562 255.167969 136.242188 C 255.199219 137.714844 255.261719 139.195312 255.246094 140.675781 C 255.242188 140.722656 255.246094 140.765625 255.257812 140.8125 L 255.261719 140.816406 C 255.234375 141.195312 255.230469 141.570312 255.25 141.949219 C 254.148438 139.554688 252.746094 137.351562 251.042969 135.339844 C 249.351562 133.332031 247.429688 131.570312 245.277344 130.066406 C 245.019531 129.886719 244.6875 130.195312 244.765625 130.46875 C 245.605469 133.539062 247.015625 136.324219 248.992188 138.820312 C 250.871094 141.082031 253.070312 142.96875 255.59375 144.480469 L 255.597656 144.484375 C 255.972656 146.054688 256.496094 147.582031 257.15625 149.054688 C 257.351562 149.511719 257.542969 149.964844 257.753906 150.414062 C 257.742188 150.40625 257.730469 150.398438 257.714844 150.390625 C 257.125 149.964844 256.511719 149.585938 255.867188 149.246094 C 254.5 148.59375 253.058594 148.195312 251.550781 148.046875 C 248.519531 147.664062 245.617188 148.105469 242.839844 149.375 C 242.769531 149.375 242.710938 149.402344 242.664062 149.453125 C 242.589844 149.5 242.542969 149.566406 242.527344 149.652344 C 242.515625 149.742188 242.535156 149.820312 242.59375 149.886719 C 242.632812 149.980469 242.699219 150.042969 242.796875 150.070312 C 243.652344 150.378906 244.503906 150.734375 245.367188 150.996094 C 245.902344 151.152344 246.445312 151.277344 246.996094 151.367188 C 247.007812 151.574219 247.035156 151.777344 247.070312 151.980469 C 246.21875 151.824219 245.265625 151.886719 244.871094 152.785156 C 244.75 153.078125 244.710938 153.382812 244.753906 153.699219 C 244.796875 154.011719 244.914062 154.292969 245.109375 154.542969 C 244.269531 154.761719 243.433594 155.207031 243.421875 156.167969 C 243.402344 157.519531 244.832031 157.96875 245.925781 158.050781 C 247.296875 158.082031 248.660156 157.988281 250.015625 157.769531 C 250.101562 157.757812 250.1875 157.75 250.269531 157.746094 C 250.429688 158.109375 250.703125 158.316406 251.09375 158.371094 C 251.578125 158.460938 252.070312 158.507812 252.554688 158.566406 C 253.71875 158.710938 254.898438 158.835938 256.058594 158.992188 L 256.0625 158.996094 L 256.070312 158.996094 C 256.320312 159.089844 256.574219 159.160156 256.816406 159.230469 C 257.375 159.398438 257.9375 159.539062 258.496094 159.710938 C 259.289062 159.925781 260 160.296875 260.632812 160.824219 L 260.632812 172.371094 C 259.957031 170.269531 259.210938 168.175781 257.824219 166.429688 C 256.046875 164.257812 253.863281 162.640625 251.269531 161.574219 C 251.234375 161.546875 251.195312 161.53125 251.152344 161.523438 L 251.148438 161.523438 C 251.136719 161.519531 251.121094 161.515625 251.109375 161.515625 C 251.023438 161.488281 250.945312 161.5 250.871094 161.546875 C 250.792969 161.59375 250.75 161.660156 250.734375 161.746094 C 250.703125 161.808594 250.695312 161.875 250.707031 161.941406 C 250.890625 162.726562 251.160156 163.480469 251.511719 164.207031 C 252.070312 165.523438 252.835938 166.703125 253.808594 167.753906 C 254.867188 168.875 256.011719 169.898438 257.246094 170.828125 C 258.289062 171.648438 260.007812 172.601562 260.453125 174.070312 L 260.628906 174.125 Z M 109.660156 269.042969 C 111.960938 265.097656 115.753906 262.339844 118.867188 259.050781 C 118.25 261.496094 117.054688 263.617188 115.273438 265.410156 C 114.246094 266.449219 113.082031 267.296875 111.773438 267.949219 C 111.046875 268.273438 110.34375 268.636719 109.660156 269.042969 Z M 112.113281 258.554688 C 113.878906 253.824219 116.589844 249.71875 120.25 246.238281 C 120 249.15625 118.535156 251.808594 116.617188 253.996094 C 115.21875 255.589844 113.5 256.9375 112.113281 258.550781 Z M 255.070312 143.3125 C 253 141.96875 251.171875 140.34375 249.589844 138.449219 C 247.867188 136.292969 246.585938 133.902344 245.75 131.273438 C 247.816406 132.824219 249.640625 134.617188 251.222656 136.664062 C 252.804688 138.707031 254.089844 140.921875 255.070312 143.3125 Z M 259.75 171.929688 C 259.367188 171.585938 258.953125 171.273438 258.554688 170.960938 C 257.257812 170 256.027344 168.960938 254.863281 167.84375 C 253.730469 166.738281 252.835938 165.460938 252.183594 164.015625 C 251.980469 163.539062 251.734375 163.003906 251.566406 162.476562 C 253.828125 163.503906 255.746094 164.984375 257.308594 166.914062 C 258.425781 168.4375 259.238281 170.109375 259.75 171.929688 Z M 266.609375 163.585938 C 265.492188 165.109375 264.144531 166.386719 262.5625 167.421875 C 262.773438 166.953125 262.949219 166.46875 263.125 165.988281 C 263.652344 164.464844 264.273438 162.980469 264.988281 161.535156 C 265.703125 160.117188 266.652344 158.882812 267.832031 157.824219 C 268.226562 157.488281 268.660156 157.09375 269.117188 156.773438 C 268.816406 159.242188 267.980469 161.511719 266.609375 163.585938 Z M 266.609375 163.585938 " fill-opacity="1" fill-rule="nonzero"/></g></svg>